<?xml version="1.0" encoding="utf-8"?>
<!-- Generator: Adobe Illustrator 24.2.1, SVG Export Plug-In . SVG Version: 6.00 Build 0)  -->
<svg version="1.1" id="Layer_1" xmlns="http://www.w3.org/2000/svg" xmlns:xlink="http://www.w3.org/1999/xlink" x="0px" y="0px"
	 viewBox="0 0 317.5 131.5" style="enable-background:new 0 0 317.5 131.5;" xml:space="preserve">
<style type="text/css">
	.st0{fill:none;stroke:#FFFFFF;stroke-miterlimit:10;}
</style>
<g>
	<path class="st0" d="M5.3,119.3c1.3,0,2.7,0,4.2,0c0-5.5,0-10.9,0-16.4c0.5,0,0.9,0,1.3,0.1c0,5.4,0,10.8,0,16.1c0.1,0,0.2,0,0.2,0
		c0-0.4,0-0.8,0-1.2c0-4.6,0-9.2,0-13.8c0-0.8,0.2-1.2,1.1-1.1c2.1,0.1,4.3,0.1,6.4,0c0.9,0,1.2,0.3,1.2,1.2c0,4.6,0,9.2,0,13.8
		c0,0.4,0,0.7,0,1.1c0.2-0.1,0.3-0.3,0.3-0.4c0-5.9,0-11.8,0-17.7c0-0.3-0.2-0.6-0.4-0.9l0,0c0-1.3,0-2.6,0-3.9c1.6,0,2.9,0,4.4,0
		c0,7.7,0,15.3,0,23c0.1,0,0.2,0,0.2,0c0-15.1,0-30.2,0-45.3c0.4,0,0.7-0.1,0.9-0.1l0,0c0.6-1,1.3-1.9,1.9-2.8
		c0.3,0.4,0.6,0.7,0.9,1.1c0.2,0.4,0.3,0.8,0.5,1.2c0.4,0.7,0.8,0.7,1.2,0c0.5-0.8,0.9-1.5,1.5-2.4c0.5,0.9,1,1.7,1.5,2.5l0,0
		c0.3,0.3,0.6,0.6,1.1,1.1c0,14.7,0,29.7,0,44.6c0.1,0,0.2,0,0.2,0c0-7.6,0-15.2,0-22.9c0.5,0,0.9,0,1.2,0c1.6,0,1.6,0,1.6,1.6
		c0,6.7,0,13.5,0,20.2c0,0.4,0,0.8,0,1.2c0.2-0.3,0.2-0.6,0.2-0.9c0-2.6,0-5.2,0-7.7c0-1.9,0.6-3.5,2.1-4.8c0.8-0.7,1.6-1.3,2.4-2
		l0,0c1.8-1.2,3.2-0.1,4.7,0.9c0,0,0.1,0,0.1,0.1c2.2,1.6,3.4,3.6,3.3,6.4c-0.1,2.3,0,4.6,0,7c0,0.4,0,0.7,0,1.1c0.1,0,0.2,0,0.3,0
		c0-7.6,0-15.2,0-22.9c0.8,0,1.5,0.1,2.2,0c0.9-0.1,1.2,0.3,1.2,1.2c0,6.9,0,13.8,0,20.7c0,0.4,0,0.8,0,1.2c0.1,0,0.2,0,0.4,0
		c0-12.4,0-24.9,0-37.3c0.3,0.2,0.6,0.5,0.9,0.5c0.8,0.1,1.6,0.1,2.4,0c0.4-0.1,0.7-0.7,1.1-0.7c0.4,0,0.8,0.7,1.2,0.7
		c0.7,0.1,1.5,0.1,2.2,0c0.2,0,0.6-0.1,0.6-0.3c0.2-0.9,0.8-0.5,1.5-0.4c0,12.5,0,25,0,37.5c0.1,0,0.2,0,0.3,0c0-7.8,0-15.6,0-23.5
		c0.7,0,1.3-0.1,1.8-0.1c1.5,0,1.5,0,1.5,1.5c0,7,0,13.9,0,20.9c0,0.4,0,0.7,0,1.1c0.1,0,0.2,0,0.3,0c0-12.5,0-25,0-37.5
		c0.5,0,0.8,0,1.1,0l0,0c0.1,0.4,0.1,0.9,0.1,1.3c0,11.7,0,23.3,0,35c0,0.5,0,1,0,1.5c2.1,0.2,2.7,0.4,2.7-2.2c0-5,0-10,0-14.9
		c0-0.6,0.1-1.1-0.4-1.6c-0.9-1-0.8-1.3,0.5-1.9c0-0.9,0-1.8,0-2.7c4.6,0,9.1,0,13.6,0c-0.2-0.2-0.3-0.2-0.5-0.2
		c-4.2,0-8.3,0-12.5,0c-1.1,0-1.6-0.6-2.2-1.4c1.6-1,1.7-2.6,1.6-4.2c0.4-0.1,0.7-0.1,1.1-0.1v-0.1c-0.6,0-1.1,0.1-1.8,0.1
		c0-0.4-0.1-0.9,0.1-0.9c1-0.6,0.7-1.5,0.6-2.3c0-2.1-0.2-4.2-0.3-6.2c0-0.6,0.2-1.2,1-1.1c0.4,0,0.7,0,1.1,0
		c-0.4-0.1-1,0.1-1.3-0.1c-0.5-0.3-0.9-0.7-1.2-1.2c-0.2-0.3-0.2-0.7,0.3-1.1s1.1-1.2,0.5-2.2c-0.2-0.3-0.1-1.1,0.2-1.2
		c0.9-0.6,0.9-1.3,0.9-2.2c0-1.9,0-3.8,0-5.6c-0.1-1.7-0.2-3.5-0.4-5.3c0.5,0,0.9,0,1,0c0.1-0.4,0.1-0.7,0.2-0.9s0.5-0.3,0.5-0.4
		c-0.1-1.2,0.5-2.4-0.4-3.5c0,0,0.2-0.2,0.3-0.4c2.5,0,5.1,0,7.6,0c-2.5,0-5.1,0-7.6,0c0.3-0.4,0.6-0.8,1.1-1.3
		c-0.5-1,0.1-1.8,0.7-2.8c0.4-0.6,0.7-1.6,0.5-2.2c-0.6-1.3,0.1-1.9,0.9-2.4s1-1.1,1-2c0-1.2,0.3-2.3,0.4-3.5c0.1,0,0.2,0,0.3,0
		c0.1,1.2,0.3,2.4,0.3,3.5c0,0.8,0.1,1.4,0.8,2c0.5,0.5,1.1,1.5,0.9,1.9c-0.7,1.3-0.1,2.1,0.5,3.1c0.3,0.4,0.6,1.2,0.4,1.6
		c-0.7,1.2,0.2,1.4,0.9,1.8c0.2,0.1,0.4,0.2,0.3,0.1c0,1.6,0,3,0,4.4c0.5,0.5,1.7,0.6,1,1.9c-0.1,0.1,0.1,0.3,0.1,0.5
		c0,0.4-0.1,0.7-0.1,1.1c0,0.3-0.2,0.5-0.2,0.8c0,2.7,0,5.4,0,8.1c0,0.4,0.3,0.9,0.6,1.2c0.5,0.6,0.9,1,0.4,1.8
		c-0.6,0.9,0.3,2.9,1.2,3c1.3,0.1,2.7,0,3.9,0c0.8-1.4-0.9-3.5,1.7-4c0.2-0.7,0.5-1.4,0.1-2.3c-0.2-0.4,0.2-1.1,0.4-1.6
		c0-0.1,0.6-0.1,0.7,0c0.2,0.5,0.5,1.2,0.4,1.6c-0.4,0.9-0.1,1.5,0.3,2.2c1.3,0,2.6,0,3.8,0c0.3-0.5,0.4-1,0.7-1.3
		c0.9-1,0.9-1.6-0.1-2.5c-0.3-0.2-0.6-0.4-0.9-0.6c0.7-1.4,1.1-1.7,1.8-1.3c0.5,0.2,0.8,0.5,1.2,0c0,0,0.7,0.3,0.7,0.4
		c0,1.2,0,2.5-0.1,3.7c0,0.4-0.1,0.8-0.1,1.2c0.1,0.1,0.2,0.1,0.3,0.2c0.3-0.3,0.7-0.5,0.9-0.9c0.7-1.1,0.4-2.6,1.6-3.5
		c0.1-0.1,0.1-0.3,0.1-0.4c0-0.9,0-1.8,0-2.9c-0.6,0-1.1,0-1.5,0c-0.6,0-0.8-0.2-0.8-0.8c0-0.6,0.3-0.8,0.8-0.7c0.5,0,0.9,0,1.5,0
		c-0.1-1.3,0.5-1.4,1.5-1.1c0.1,0.4,0.1,0.7,0.2,1.2c0.7,0,1.4,0,2.1,0c0,0.5,0,0.9,0,1.4c-0.8,0-1.4,0.1-2.1,0.1
		c0,1.2-0.4,2.6,0.1,3.2c0.8,1,0.7,2.1,1.2,3c0.4,0.7,0.6,1.2,1.5,1c-0.1-1.1-0.3-2.3-0.4-3.4c0-0.6,0.2-1.2,0.3-1.8
		c0.4,0.1,0.8,0.2,1.2,0.4c1.3-0.7,1.6-0.6,2.2,0.6c-0.4,0.6-0.9,1.1-1.1,1.7c-0.2,0.5-0.3,1.1-0.1,1.5c0.3,0.6,0.8,1.1,1.4,1.7
		c1.1,0,2.4,0,3.6,0c0.2-0.5,0.5-0.9,0.7-1.3c-0.1-0.2-0.4-0.4-0.4-0.6c0-0.6,0.1-1.3,0.3-1.9c0-0.1,0.7-0.1,0.7,0
		c0.2,0.6,0.6,1.3,0.4,1.7c-0.4,0.9,0.1,1.5,0.2,2.1c2.6,0.6,1,2.7,1.6,4c0,0,0.1,0,0.2,0c1,0,2.1,0,3.1,0c1.3,0,2.6-1.8,1.9-2.9
		c-0.6-1-0.1-1.4,0.5-1.9c0.3-0.3,0.5-0.7,0.5-1.1c0-2.7,0-5.3,0-8c0-0.3,0.1-0.7-0.1-0.7c-1.1-0.8,0.3-1.9-0.8-2.8c0.7,0,1,0,1.4,0
		c-1.1-0.9,0.3-0.6,0.5-1.2c-0.1-1.2-0.1-2.6-0.2-4.2c0.2-0.1,0.6-0.2,0.9-0.5c0.2-0.2,0.5-0.6,0.4-0.8c-0.5-1-0.1-1.7,0.5-2.5
		c0.4-0.6,0.8-1.7,0.5-2.2c-0.6-1.2,0.1-1.8,0.7-2.5c0.4-0.5,0.7-1.1,0.8-1.7c0.2-1.2,0.2-2.5,0.3-3.8c0.1,0,0.2,0,0.3,0
		c0.2,1.2,0.5,2.4,0.4,3.6c0,0.9,0.1,1.5,0.9,1.9c0.8,0.5,1.2,1.1,1.2,2.2c-0.1,0.8-0.2,1.8,0.2,2.4c0.7,1,1.2,1.9,0.8,2.8
		c0.4,0.6,0.7,0.9,0.9,1.3c-2.5,0-5,0-7.5,0l0,0c2.5,0,5,0,7.5,0c0.2,0,0.3,0,0.6,0c-1,1.4-0.3,2.8-0.5,4c0.4,0.3,0.6,0.5,0.8,0.7
		c-0.3,0.1-0.6,0.3-0.9,0.4c-0.3,0.1-0.7,0-1.1,0v0.1c0.9,0,1.8,0,2.5,0c0.1,0.6,0.2,1.2,0.3,1.7c0,0.2,0,0.4-0.1,0.5
		c-0.1,0.5-0.3,1-0.3,1.5c0,2.6-0.1,5.2,0,7.7c0,0.5,0.4,0.9,0.6,1.4c0.2,0.4,0.6,1.1,0.4,1.3c-0.7,0.9-0.1,1.6,0.2,2.2
		c0.7,1.3,0.8,1.5-0.3,2.5c0.9,0.7,0.2,1.5,0.2,2.2c0,2.1,0,4.1,0,6.2c0,0.3,0.3,0.6,0.4,1c0.1,0.4,0.2,0.7,0.3,1.1
		c-1,0.1-1.7,0.1-1.5-0.6c0.2,0.6-0.4,0.7-1.2,0.7c-3.2,0-6.4,0-9.6,0c-0.6,0-1.1,0-1.7,0c0,1,0,1.7,0,2.5c0.1,0,0.1,0,0.2,0
		c0-0.8,0-1.6,0-2.4c4.1,0,8.1,0,12,0c0.9,0,1.1,0.3,1,1c-0.2,1.4,0.6,2.4,1.5,3.3c-0.1,0.2-0.2,0.3-0.4,0.5
		c-0.9,1.1-2.2,0.8-3.4,0.8c-3.8,0.1-7.6,0-11.7,0c0.3,0.2,0.5,0.4,0.6,0.4c0.2-0.1,0.5-0.3,0.7-0.3c3.5,0,7-0.1,10.5,0
		c2.4,0.1,2.1-0.6,2.1,2.2c0,0.3,0,0.5,0,0.7c1.2,0.3,1.3,0.5,0.6,1.5c-0.3,0.4-0.6,0.9-0.6,1.3c0,5.4-0.1,10.8,0,16.2
		c0,0.6,0.1,1.5,1.1,1.6c0.9,0.1,1.8,0,2.8,0c0-0.5,0-1,0-1.4c0-2.8,0.1-5.5,0-8.3c0-1.5,0.3-2.7,1.1-4c0.5-0.8,0.8-1.9,1-2.8
		c0.1-0.5,0-1.2,0-1.7c0.3,0.4,0.6,0.8,0.5,1.1c-0.6,1.3,0.1,2.2,0.8,3.2l0,0c0.8,1.4,1.3,2.9,1.2,4.6c-0.1,2.6,0,5.2,0,7.7
		c0,0.3,0,0.5,0.1,0.9c0.2-0.3,0.3-0.3,0.3-0.4c1.4-4.2,2.9-8.4,4.2-12.7c0.4-1.3,0.3-2.8,0.1-4.1c-0.1-0.8-0.1-1.3,0.6-1.7
		c0.8-0.5,1.6-1.1,2.4-1.5c2.3-1.4,4.5-2.7,6.8-4c0.9-0.5,1.8-1,2.6-1.4c-0.5,0.4-0.9,0.8-1.4,1.2c0.1,0.1,0.1,0.1,0.2,0.2
		c0.7-0.5,1.3-1,2-1.5c0.5-0.5,1-0.3,1.4,0.1c0.6,1.6,0.9,3.3,0.5,5c-0.7,3.3-1.5,6.7-2.2,10c-0.4,1.9-0.9,3.7-1.4,5.6
		c-0.6-0.9-2.2-1.4-3-0.9c-0.2,0.1-0.5,0.5-0.5,0.7c0,2.1,0,4.2,0,6.5c0.6-0.3,1.2-0.3,1.4-0.6c0.6-0.8,1.3-1.6,1.5-2.5
		c1.4-5.1,2.7-10.3,3.8-15.5c0.4-1.9,0.6-3.8,0.7-5.7c0-0.9-0.5-1.8-0.8-2.7c-0.5-1.4-1.3-0.4-1.9-0.2c0.4-0.4,0.9-0.8,1.3-1.3
		c0.1,0,0.3,0,0.4-0.1c3.2-2,6.4-4,9.6-6.1c1.1-0.7,1.9-0.7,3,0c3,2,6.1,3.8,9.2,5.7c3.9,2.4,7.8,4.9,11.7,7.3
		c1.1,0.7,2.2,1.5,3.3,2.3c-0.6,1.9-0.7,3.8-0.1,5.6c1.2,3.8,2.5,7.5,3.7,11.2c0.3,0.8,0.6,1.5,0.9,2.2c0.1-0.3,0-0.5,0-0.7
		c-0.5-1.9-1-3.7-1.5-5.6c-0.2-0.8,0.5-2-1-2c-0.1,0-0.1-0.2-0.2-0.4c-0.6-1.5-1.1-2.9,0.1-4.4c0.2-0.2,0.2-0.5,0.3-0.8
		c0,0,0.1-0.1,0.1-0.2c0.8-0.7,1-1.6,0.9-2.6c0-0.5,0-1,0-1.5c0.1,0,0.3,0,0.4,0c0,0.5-0.1,1,0,1.5c0.1,0.6,0.3,1.3,0.5,1.9l0,0
		c0,0.2,0,0.4,0.1,0.5c1.4,1.8,1.6,3.8,1.4,5.9c-0.1,0.7,0,1.5,0,2.2c0,2,0,4,0,5.9c0.2-1,0.2-2,0.2-3c0.1-3.1,0.1-6.2,0.2-9.2
		c0.2-0.4,0.5-0.7,0.7-1.1c1.5-1.2,0.8-3.1,1.3-4.6c0.2,0.4,0.4,0.8,0.3,1.1c-0.4,1-0.1,1.9,0.5,2.7c1.1,1.6,1.6,3.4,1.5,5.4
		c-0.2,2.6,0,5.3,0,8c0,0.3,0.1,0.7,0.1,1c0.1,0,0.2,0,0.3,0c0-0.4,0.1-0.8,0.1-1.3c0-15.2,0-30.4,0-45.6c0-1.4,0.1-2.8-1.1-3.9
		c-0.1,0,0-0.2,0-0.4c1,0,2.1,0,3.1,0c0.1-0.3,0.1-0.4,0.1-0.5c0-3.4,0-6.8,0-10.2c0-0.2,0-0.4-0.1-0.5c-0.7-1.3-0.7-1.3,0.7-1.5
		c0-0.2,0.1-0.3,0.1-0.5c-0.2-1,0.4-1.3,1.3-1.2c0.6,0.1,1.2,0,1.9,0c0-1.9,0-3.7,0-5.5c-1.2-0.3-1.5-0.7-1.4-2.6
		c0.1-2.1,1.9-0.4,2.7-1.4c0-0.4-0.1-1,0-1.5c0.3-1,0.5-2.4,1.2-2.9c1.1-0.9,1.2-1.9,1.2-3.1c0-0.5,0-1.1,0.1-1.5
		c0.2-0.8,0.5-1.6,0.8-2.4c0.2,0,0.4,0,0.6,0c0.3,0.8,0.6,1.5,0.7,2.3c0.2,1,0.1,2.1,0.2,3.1c0,0.3,0.2,0.8,0.5,1
		c1.3,1,1.9,2.2,1.9,3.8c0,0.5,0,1.1,0,1.7c0.6,0,1-0.1,1.4,0c0.3,0.1,0.6,0.4,0.7,0.6c0.1,1.1,0.1,2.2-0.7,3.2
		c0.1,0,0.2,0.1,0.3,0.1c2.2,0,3,0.8,3,3c0,1.3,0.2,2.6,0.3,3.9c1.3,0.2,1.3,0.2,1.2,1.2c-0.3,0.1-0.6,0.2-0.9,0.2
		c0,3.8,0,7.5,0,11.4c1,0,2,0,2.9,0c-0.4,0.9-0.9,1.6-0.9,2.3c-0.1,3.1,0,6.3,0,9.4c1.1,0.1,1.7,0.6,1.8,1.8c0,0.8,0,1.5,0,2.3
		c0,0.3,0.1,0.7,0.3,1c0.4,0.5,0.8,0.9,1.3,1.4c2.9-1.3,5.8-2.7,8.7-4c0.8-0.4,0.9-0.9,0.9-1.6c0-0.9,0.1-1.8,0.3-2.7
		c0.1-0.3,0.5-0.6,0.8-0.6c1.2-0.1,1.4,0.2,1.5,1.4c0,0.5,0.1,1,0.2,1.6c3.3-1.5,6.4-2.8,9.5-4.2c1.2-0.5,1.2-0.9,1-2.2
		c-0.1-0.8,0.4-1.7,0.6-2.6c0-0.1,0.2-0.1,0.3-0.1c1.2-0.2,1.4-0.1,1.5,1.2c0.1,0.7,0.1,1.4,0.2,2.1c0.5-0.2,1-0.4,1.5-0.7
		c0.8-0.4,1.8-0.5,2.3-1.6c0.3-0.5,1.2-1,1.8-1c0.6,0,1.5,0.5,1.8,1c0.9,1.5,2.6,1.4,3.8,2.3c0.1-1,0.1-1.8,0.2-2.6
		c0-0.3,0.3-0.7,0.5-0.7c0.4,0,1.3,0.2,1.3,0.2c-0.1,1,0.9,1.7,0.6,2.7c-0.3,0.8-0.2,1.7,1,1.9c0.5,0.1,0.9,0.4,1.4,0.6
		c2.6,1.2,5.2,2.3,8.1,3.6c0.1-0.9,0.1-1.6,0.3-2.2c0.1-0.3,0.4-0.7,0.7-0.8c0.5-0.1,1.3,0.1,1.3,0.3c0.3,0.9,0.3,1.8,0.5,2.7
		c0.1,0.5,0,1.4,0.3,1.5c3.1,1.5,6.2,2.9,9.2,4.3c1.6-1,1.9-2.5,1.6-4.1c0-0.2,0-0.4,0-0.7c0-0.9,0.6-1.5,1.3-1.6
		c0.7-0.2,1.3,0.6,1.4,1.6c0,1.7,0,3.3,0,5c0,9.4,0,18.7,0,28.1c0,1.5,0,3,0,4.6c2.7,0,5.2,0,7.7,0 M100.8,81.4c0,2.3,0,4.6,0,6.9
		l0,0C100.8,86,100.8,83.7,100.8,81.4c1.7,0,3.4,0,5.2,0C104.3,81.4,102.5,81.4,100.8,81.4z M29.8,87.5c0.9-0.4,0.9-1.1,0.4-1.8
		c-0.5-0.7-1.1-0.8-1.8-0.3c-0.7,0.5-0.8,1.2-0.3,1.8C28.5,87.9,29.1,88.3,29.8,87.5L29.8,87.5z M196.3,106.9
		c0.4,1.6,0.8,3.2,1.2,4.7c0.1,0,0.2-0.1,0.4-0.1C197.4,110,196.8,108.5,196.3,106.9c-0.6-2.8-1.1-5.7-1.7-8.5
		c0.5-0.4,0.9-0.4,1.2,0.2c0.8,1.4,1.6,2.8,2.5,4.2c0.1,0.2,0.1,0.3,0.2,0.5c0.1,0.1,0.2,0.3,0.3,0.4c-0.8-2.3-1.9-4.5-3.8-6.3
		c-0.1,0.4-0.2,0.7-0.3,1C194.3,101.4,195,104.2,196.3,106.9z M185.7,92.8c-0.1,0.2-0.4,0.4-0.4,0.6c-0.1,1-0.4,2-0.3,2.9
		c0.2,4.3,1.6,8.3,2.6,12.4c0.7,2.7,1.3,5.5,2,8.2c0.4,1.4,1.5,2.3,2.7,2.3c0-1.7,0-3.3,0-5c0-2-0.8-2.5-2.7-2
		c-0.2,0.1-0.4,0.2-0.7,0.3c-0.1-0.5-0.3-1-0.4-1.4c-0.3-0.8-0.6-1.6-0.8-2.4c0-0.4,0-0.8-0.1-1.2c-0.6-2.4-1.2-4.7-1.7-7.1
		C185.1,98,184.8,95.4,185.7,92.8c0.5-0.8,1-0.8,1.7-0.2c0.8,0.7,1.6,1.4,2.4,2c0.1-0.1,0.1-0.2,0.2-0.2c-1-0.8-2-1.7-3-2.4
		C186.2,91.6,185.7,92,185.7,92.8z M62.2,91.5L62.2,91.5c-0.2-0.9-0.9-1.1-1.8-1c-0.8,0-1.4,0.6-1.4,1.5c-0.1,1.6,0,3.3,0,5
		c1.3,0,2.4,0,3.6,0c0-1.5,0-2.9,0-4.4C62.5,92.2,62.3,91.8,62.2,91.5z M56.9,91L56.9,91c-1-0.9-2.7-0.6-2.8,0.7
		c-0.1,1.7,0,3.5,0,5.2c1.2,0,2.3,0,3.5,0c0-1.7,0-3.4,0-5.1C57.4,91.6,57.1,91.3,56.9,91z M29.9,91.4c-0.1,0.1-0.1,0.1-0.2,0.2
		c-0.1,1.8-0.2,3.5-0.3,5.4c1.4,0,2.5,0,3.6,0c0-1.7,0-3.3,0-4.8c0-0.9-0.6-1.5-1.5-1.6C30.8,90.3,30.1,90.5,29.9,91.4z M25.7,90.7
		c-0.3,0.4-0.8,0.8-0.9,1.2c-0.1,1.7,0,3.3,0,5c1.2,0,2.3,0,3.5,0c0-1.5,0-2.9,0-4.3c0-0.2,0.1-0.4,0-0.5c-0.2-0.4-0.4-0.8-0.6-1.2
		C27,90.8,26.3,90.7,25.7,90.7z M29.8,74.2c-0.3,0.1-0.5,0.2-0.8,0.3c-1.6-1.5-3.5-1.2-3.7,0.7c-0.2,2.2-0.1,4.5-0.1,6.7
		c2.6,0,5.1,0,7.6,0c0-2.2,0-4.3,0-6.4c0-0.7-0.2-1.4-1.1-1.5C31.1,74,30.4,74.1,29.8,74.2z M153.3,99.3c-0.3,0.5-0.6,0.9-0.9,1.4
		c-2.1,3.6-2.9,7.6-4.2,11.5c-0.4,1.3-0.8,2.5-1.2,3.8c0.5-0.7,1-1.4,1.6-2.2c0.1-1.3,0.3-2.8,0.5-4.4c0.1,0,0.3,0,0.4,0
		c0,3.3,0,6.5,0,9.8c0.4-0.3,0.5-0.6,0.6-0.9c0.5-1.5,1-3.1,1.5-4.6c1.2-3.9,2.4-7.7,3.5-11.6c0.4-1.5,0.6-3-0.2-4.6
		c-0.3,0.3-0.5,0.5-0.7,0.7C153.9,98.5,153.6,98.9,153.3,99.3z M273,101.6c0-5.6,0-11.1,0-16.6c-1,2.4-2.7,3.8-5.3,3.8
		c-2.5,0-4.2-1.4-5.2-3.9c0,5.7,0,11.2,0,16.8C266.1,101.6,269.5,101.6,273,101.6z M281.5,102.1c1.4,0,2.8,0,4.2,0
		c0.7,0,0.9-0.2,0.9-0.9c0-2.4,0-4.7,0-7.1c0-1.6-0.7-2.7-2.3-2.9c-1.8-0.3-3.7-0.3-5.5-0.1c-1.7,0.2-2.4,1.4-2.4,3
		c0,2.3,0.1,4.6,0,7c0,0.8,0.3,1,1.1,1C278.9,102.1,280.2,102.2,281.5,102.1z M299.9,106.5c0-2.8,0-5.5,0-8.1c0-1.4-0.7-2.3-2-2.7
		c-2.1-0.6-4.2-0.6-6.2,0c-1.1,0.4-1.9,1.1-1.9,2.5c0.1,1.1,0,2.3,0,3.4c0,1.6,0,3.2,0,4.8C293.2,106.5,296.5,106.5,299.9,106.5z
		 M248.9,102.1c3.5,0,6.7,0,10.1,0c0-2.7,0-5.4,0-8c0-1.5-0.8-2.4-2.2-2.8c-1.9-0.5-3.9-0.5-5.8,0c-1.3,0.4-2.1,1.3-2.2,2.7
		c-0.1,1,0,2.1,0,3.1C248.9,98.7,248.9,100.3,248.9,102.1z M245.7,106.5c0-2.8-0.1-5.4,0-8.1c0-1.4-0.7-2.2-1.8-2.6
		c-2.1-0.8-4.4-0.8-6.5,0c-1.1,0.4-1.8,1.2-1.8,2.5c0,2,0,4,0,6c0,0.7,0,1.5,0,2.3C239,106.5,242.3,106.5,245.7,106.5z M286.8,116.9
		c0-1.6,0-3.2,0-4.7c0-0.4-0.4-0.7-0.5-1.1c-0.1-0.3-0.1-0.7,0-1.1c0.1-0.3,0.3-0.5,0.4-0.7c-0.3-0.1-0.6-0.2-0.9-0.2
		c-3.1,0-6.2,0-9.3,0c-0.3,0-0.6,0.1-1.2,0.2c1.2,0.8,1.5,1.4,0.5,2.2c-0.1,0.1-0.2,0.4-0.2,0.6c0,1.6,0,3.1,0,4.8
		C279.4,116.9,283,116.9,286.8,116.9z M260.1,109.6c-0.1-0.1-0.2-0.3-0.3-0.4c-3.7,0-7.3,0-11.1,0c0.6,1.1,0.6,1.1,0.1,2.4
		c0,0.1-0.1,0.2-0.1,0.3c0,1.6,0,3.3,0,4.9c3.8,0,7.5,0,11.2,0c0-0.2,0-0.2,0-0.3c-0.3-1.9,0.7-4.1-0.7-5.9
		c-0.1-0.1,0.2-0.6,0.3-0.8C259.6,109.7,259.9,109.7,260.1,109.6z M273.4,111.2c-0.3-0.1-0.9-0.3-0.9-0.4c0.1-0.5,0.3-0.9,0.6-1.7
		c-3.5,0-7,0-10.6,0c0.2,0.6,0.2,1.8,0,2.5c0,0.1,0,0.1,0,0.2c0,1.6,0,3.3,0,5c3.6,0,7.1,0,10.7,0c0-1.7,0-3.2,0-4.7
		C273.1,111.8,273.3,111.5,273.4,111.2z M101.2,111c0,2.7,0,5.3,0,7.8c1.8,0,3.4,0,5.2,0c0-2.4,0-4.6,0-6.9c0-0.3-0.4-0.8-0.6-0.9
		C104.3,111,102.8,111,101.2,111z M89.8,118.9c0-2.5,0-4.8,0-7.1c0-0.3-0.3-0.8-0.5-0.8c-1.4-0.1-2.8,0-4.2,0c0,2.3,0,4.4,0,6.5
		c0,0.5-0.2,1-0.3,1.4C86.4,118.9,88.1,118.9,89.8,118.9z M122.7,118.9c-0.1-0.4-0.2-0.8-0.2-1.2c0-1.8-0.1-3.5,0-5.3
		c0.1-1.1-0.3-1.5-1.4-1.3c-0.2,0-0.4,0-0.6,0c-2.9,0-2.9,0-2.9,2.9c0,1.6,0,3.3,0,5C119.5,118.9,121.2,118.9,122.7,118.9z
		 M45.5,119.3c0-2.1,0.1-4.1,0-6.1c-0.1-1.2-1.1-2.1-2.3-2.1s-2.4,0.8-2.4,2c-0.1,2.1,0,4.2,0,6.3C42.4,119.3,43.9,119.3,45.5,119.3
		z M179.6,119.3c0-2.7,0-5.2,0-7.7c0-0.2-0.1-0.6-0.3-0.6c-1.1-0.4-2.2-0.6-3.4-1c0,3.2,0,6.3,0,9.3
		C177.2,119.3,178.3,119.3,179.6,119.3z M173.8,110c-0.6,0.1-1.1,0.2-1.5,0.4c-2.1,0.6-2.1,0.6-2.1,2.9c0,2,0,4,0,6.1
		c1.3,0,2.5,0,3.7,0C173.8,116.2,173.8,113.2,173.8,110z M113.1,118.9c0-2.1,0-4.2,0-6.2c0-0.9-0.5-1.6-1.5-1.6
		c-0.8,0-1.5,0.5-1.5,1.3c-0.1,2.2,0,4.3,0,6.5C111.1,118.9,112,118.9,113.1,118.9z M97.6,118.8c0-1,0-2,0-3c0-1.1,0-2.2,0-3.3
		c-0.1-0.9-0.7-1.6-1.5-1.4c-0.5,0.1-1.4,0.8-1.4,1.2c-0.1,2.2-0.1,4.4-0.1,6.5C95.6,118.8,96.5,118.8,97.6,118.8z M131,71.5
		c0-2,0-4,0-6c0-0.9-0.4-1.5-1.4-1.5s-1.3,0.7-1.4,1.5c0,1.3,0,2.6,0,3.9C128.2,71.8,128.2,71.8,131,71.5z M79.3,68.1
		c0-0.9,0-1.8,0-2.8c0-0.8-0.5-1.4-1.4-1.4c-0.8,0-1.3,0.5-1.3,1.4c0,1.8,0,3.7,0,5.5c0,0.2,0.4,0.6,0.7,0.7c0.3,0.1,0.7,0,1.1,0
		c0.7,0.1,0.9-0.3,0.9-0.9C79.3,69.8,79.3,69,79.3,68.1z M105.9,85.2c0-1.2-0.9-2.2-2.1-2.2c-1.1,0-2.1,1-2.1,2.1
		c0,1.2,0.9,2.2,2.1,2.2C104.9,87.3,105.9,86.4,105.9,85.2z M79,116.6c0-1.6,0-3,0-4.5c0-0.2-0.4-0.6-0.6-0.6c-0.5-0.1-1.1,0-1.7,0
		c0,1.8,0,3.5,0,5.2C77.4,116.6,78.2,116.6,79,116.6z M128.6,111.5c0,1.7,0,3.3,0,5c0.8,0,1.5,0,2.3,0c0-1.1,0-2.2,0-3.3
		c0-2.1,0-2.1-2.1-1.9C128.8,111.4,128.7,111.5,128.6,111.5z M223.4,59.5c-0.7,0-1.3-0.1-1.9,0c-0.2,0-0.6,0.4-0.6,0.6
		c-0.1,1.3,0,2.5,0,3.8c0.9,0,1.7,0,2.5,0C223.4,62.5,223.4,61.1,223.4,59.5z M187.3,119.2c0.7-0.9,0.7-1.8,0.4-2.8
		c-0.9-3.4-1.7-6.9-2.7-10.3c-1.1-4-2.2-8.1-3.5-12.1c-0.8-2.3-2.1-4.4-3.8-6.2c0,0.2,0.1,0.3,0.2,0.5c2.4,2.9,3.9,6.3,4.8,9.9
		c1.5,5.7,2.9,11.4,4.4,17.1C187.5,116.6,188,117.9,187.3,119.2z M130.9,102.3c-0.8,0-1.5,0-2.3,0c0,1.3,0,2.6,0,3.9
		c0.8,0,1.5,0,2.3,0C130.9,104.9,130.9,103.7,130.9,102.3z M76.6,106.3c0.7,0,1.3,0,1.9,0c0.2,0,0.5-0.3,0.5-0.4c0-1.2,0-2.3,0-3.5
		c-0.9,0-1.6,0-2.3,0c0,0.3,0,0.6,0,0.8C76.6,104.2,76.6,105.1,76.6,106.3z M224.9,82.9c0,1.2,0,2.4,0,3.5c0.7,0,1.4,0,2,0
		c0-1.2,0-2.3,0-3.5C226.3,82.9,225.7,82.9,224.9,82.9z M122.7,100.7C122.7,100.7,122.7,100.6,122.7,100.7c-2.6-0.1-5.1-0.1-7.6-0.1
		c-7.4,0-14.9,0-22.3,0c-0.7,0-1.6,0.3-1.7-0.9c0,0.3,0.1,0.7,0.1,1c5.2,0,10.3,0,15.4,0c1.2,0,2.3,0,3.5,0c2.1,0,4.3,0,6.4,0.1
		c0.3,0,0.5,0.3,0.6,0.4c0.4-0.2,0.7-0.4,1-0.5C119.6,100.7,121.1,100.7,122.7,100.7z M224.9,96.7c0.5,0,1,0.1,1.5,0
		c0.2,0,0.6-0.3,0.6-0.5c0.1-1,0-2,0-3c-0.8,0-1.4,0-2.1,0C224.9,94.4,224.9,95.5,224.9,96.7z M224.9,106.9c0.8,0,1.5,0,2.2,0
		c0-1.1,0-2,0-3c0-0.8-0.6-0.7-1-0.6c-0.5,0-1.1-0.3-1.2,0.6C224.8,104.9,224.9,105.8,224.9,106.9z M224.9,113.6c0,1.2,0,2.3,0,3.5
		c0.7,0,1.4,0,2.1,0c0-0.9-0.1-1.6,0-2.4c0.1-1-0.3-1.3-1.3-1.2C225.5,113.6,225.3,113.6,224.9,113.6z M226.9,76.2
		c0-1.2,0-2.3,0-3.5c-0.7,0-1.4,0-2.1,0c0,0.8,0.1,1.6,0,2.3c-0.1,1.1,0.3,1.5,1.4,1.3C226.4,76.2,226.6,76.2,226.9,76.2z
		 M168.4,93.8c-0.3,0.8-0.7,1.6-0.9,2.4c-1.8,7-3.7,14-5.5,21c-0.2,0.6,0.1,1.4,0.1,2.1c0.1-0.9,0.1-1.9,0.3-2.7
		C164.4,108.9,166.4,101.4,168.4,93.8z M219.3,93.1c-0.7,0-1.3,0-2,0c0,1.2,0,2.4,0,3.5c0.7,0,1.3,0,2,0
		C219.3,95.4,219.3,94.3,219.3,93.1z M219.4,86.5c0-1.1,0.1-2,0-3c0-0.3-0.5-0.6-0.8-0.6c-0.4,0-1.1,0.3-1.2,0.5
		c-0.1,1-0.1,2.1-0.1,3.1C218,86.5,218.6,86.5,219.4,86.5z M219.4,106.9c0-1.1,0.1-2.1-0.1-3.1c0-0.2-0.7-0.5-1.1-0.5
		c-0.3,0-0.9,0.3-0.9,0.5c-0.1,1,0,2,0,3.1c0.5,0,0.9,0.1,1.2,0.1C218.7,107,219,106.9,219.4,106.9z M159.6,95.1
		c-3.6,7.7-5.6,16-8.4,24C154.3,111.2,156.3,102.9,159.6,95.1z M219.3,72.7c-0.7,0-1.3,0-1.9,0c0,1.2,0,2.3,0,3.4c0.7,0,1.3,0,1.9,0
		C219.3,74.9,219.3,73.8,219.3,72.7z M217.3,115.3c0,0.3,0,0.6,0,0.9c-0.1,0.8,0.3,1.1,1.1,1.1s1.1-0.3,1.1-1.1
		c-0.1-0.5-0.1-1.1,0-1.6c0.1-0.9-0.4-1-1.1-1c-0.8,0-1.1,0.3-1,1C217.3,114.8,217.3,115.1,217.3,115.3z M191.5,97.1
		c-0.1,0-0.2,0.1-0.2,0.1c2.4,7.3,4.8,14.6,7.2,21.9c0.1,0,0.2-0.1,0.3-0.1C196.3,111.7,193.9,104.4,191.5,97.1z M123.2,117.1
		c0.1,0,0.1,0,0.2,0c0-5.3,0-10.6,0-16c2.2,0,4.3,0,6.4,0l0,0c-2.2,0-4.4,0-6.6,0c0,2.9,0,5.7,0,8.5c-1.9,0-3.6,0-5.4,0
		c1.5,0.1,3,0.2,4.4,0.1c0.8,0,1,0.3,1,1C123.2,112.9,123.2,115,123.2,117.1z M116.4,94.5c0-0.1,0-0.1,0-0.2c-8.4,0-16.9,0-25.3,0
		c0,0.1,0,0.1,0,0.2C99.5,94.5,108,94.5,116.4,94.5z M90.5,80c1.1-1.3,2.4-0.6,3.7-0.8c0.3,0,0.7,0,1,0c6.8,0,13.6,0,20.4,0
		c-7.6-0.1-15.3-0.1-22.9-0.1C91.8,79.1,90.9,78.8,90.5,80z M93.2,117.2c0-2.2,0-4.3,0-6.5c0-0.7,0.3-1,1-1c1,0,1.9,0,2.9,0
		c2.2,0,1.8-0.1,1.9,1.8c0,0,0,0.1,0,0.2c0-1,0-1.9,0-2.6c-0.3,0.1-0.6,0.4-0.9,0.4c-1.3,0.1-2.5,0-3.8,0.1c-0.8,0-1.1-0.3-1.1-1.1
		c0-1.8,0-3.7,0-5.5c-0.1,4.3-0.1,8.7-0.1,13c0,0.7-0.1,1.2-0.6,1.1C92.5,117.3,92.8,117.2,93.2,117.2z M201.7,114.2
		c0.1,0,0.2-0.1,0.3-0.1c0.5,1.7,1,3.4,1.5,5c0.1,0,0.2-0.1,0.3-0.1c-0.8-2.5-1.5-4.9-2.3-7.4h-0.1c0,2.5,0,5,0,7.5
		c0.1,0,0.2,0,0.2,0C201.7,117.5,201.7,115.9,201.7,114.2z M115.3,96.5C115.3,96.4,115.3,96.4,115.3,96.5c-7.4,0-14.8,0-22.2,0l0,0
		C100.5,96.5,107.9,96.5,115.3,96.5z M92.5,99.8L92.5,99.8c7.1,0,14.2,0,21.3,0l0,0C106.7,99.8,99.6,99.8,92.5,99.8z M142.1,111
		c-0.1,0-0.3,0-0.4,0c-0.4,0.5-0.8,2.6-0.5,3.1c0.1,0.1,0.4,0.2,0.6,0.2c0.1,0,0.4-0.2,0.4-0.3C142.2,113.1,142.2,112.1,142.1,111z
		 M205.3,113c0-0.6,0-1,0-1.4c0-0.2-0.3-0.3-0.5-0.5c-0.2,0.2-0.4,0.3-0.5,0.5c-0.1,0.4-0.1,0.9,0,1.3c0.1,0.5-0.5,1.4,0.4,1.4
		C205.8,114.4,205.1,113.3,205.3,113z M207.4,114.3c0.1,0.1,0.2,0.2,0.3,0.2c0.3-0.2,0.7-0.4,0.7-0.6c0.1-0.7,0.1-1.4,0-2.1
		c0-0.2-0.4-0.4-0.5-0.7c-0.2,0.2-0.4,0.4-0.4,0.7C207.3,112.6,207.4,113.4,207.4,114.3z M210.3,112.9c-0.3-0.7-0.6-1.8-0.7-1.7
		c-1,0.2-0.5,1.1-0.5,1.7c0,0.5-0.5,1.4,0.5,1.4C209.8,114.3,210.1,113.4,210.3,112.9z M144.1,112.6c-0.2-0.5-0.6-1.5-0.7-1.5
		c-0.9,0.2-0.5,1.1-0.5,1.7c0,0.5-0.5,1.5,0.5,1.5C144.5,114.4,143.6,113.3,144.1,112.6z M219.6,44.5c0.5,0,0.8,0,1.3-0.1
		c0-0.8,0-1.4,0-2.1c-0.4,0-0.8,0-1.3,0C219.6,43,219.6,43.7,219.6,44.5z M225,42.3c-0.5,0-0.9,0-1.2,0c-0.2,2.2-0.1,2.4,1.2,2
		C225,43.7,225,43.1,225,42.3z M41.2,108.4c-0.9,0.7-1.6,1.6-1.6,2.9c0,2.2,0,4.4,0,6.6c0,0.4,0,0.8,0,1.2c0.2-2.3,0.3-4.5,0.2-6.7
		C39.8,110.8,40.2,109.5,41.2,108.4z M45.9,108.7L45.9,108.7c0.1,1.2,0.4,2.3,0.5,3.4c0.1,1.2,0,2.4,0,3.5s0,2.3,0,3.4
		c0.1,0,0.2,0,0.3,0c0-2.5,0.1-5.1,0-7.6C46.6,110.6,46.1,109.6,45.9,108.7z M81.3,63L81.3,63c-0.1,3.2-0.1,6.4-0.1,9.6h0.1
		C81.3,69.4,81.3,66.2,81.3,63z M89.4,107.5L89.4,107.5c-1.1-0.1-2.1-0.1-3.2,0c-0.9,0.1-1.1-0.3-1.1-1.1c0.1-1.5,0-2.9,0-4.4
		c0,1.5,0,3,0,4.5c0,0.8,0.3,1.1,1.1,1.1C87.3,107.5,88.4,107.5,89.4,107.5z M134.1,62.9C134.1,62.9,134,62.9,134.1,62.9
		c-0.1,3.1-0.1,6.3-0.1,9.4h0.1C134.1,69.2,134.1,66.1,134.1,62.9z M75.6,63.3L75.6,63.3c0,3.1,0,6.2,0,9.3l0,0
		C75.6,69.5,75.6,66.4,75.6,63.3z M82.3,90L82.3,90c-3.1,0-6.1,0-9.2,0l0,0C76.2,90,79.3,90,82.3,90z M100.2,90.1c0-0.1,0-0.1,0-0.2
		c-2.8,0-5.6,0-8.4,0c0,0.1,0,0.1,0,0.2C94.6,90.1,97.4,90.1,100.2,90.1z M116.8,89.8c-2.6,0.4-5.2,0-7.8,0.2
		C111.6,90,114.2,90,116.8,89.8C116.8,89.9,116.8,89.7,116.8,89.8z M120.1,107.6c0.4,0,0.7,0,1.1,0c0.9,0.1,1.2-0.2,1.2-1.2
		c-0.1-1.6,0-3.3,0-4.9c-0.1,1.2-0.1,2.5-0.1,3.7C122.3,107.4,122.3,107.4,120.1,107.6z M123.2,88.8
		C123.2,88.8,123.3,88.8,123.2,88.8c0.1-2.5,0.1-5,0.1-7.5c0,0,0,0-0.1,0C123.2,83.8,123.2,86.3,123.2,88.8z M126.7,79.4L126.7,79.4
		c2.2,0,4.3,0,6.5,0l0,0C131.1,79.4,128.9,79.4,126.7,79.4z M218.6,46.4c0.3-1.2-0.4-1.1-0.9-1c-0.3,0-0.5,0.3-0.8,0.4
		C217.4,46.1,218,46.2,218.6,46.4z M97.3,88.1L97.3,88.1c0-2,0-4.1,0-6.1l0,0C97.3,84.1,97.3,86.1,97.3,88.1z M110.1,88.4
		C110.2,88.3,110.2,88.3,110.1,88.4c0.1-2.1,0.1-4.1,0.1-6.1c0,0,0,0-0.1,0C110.1,84.3,110.1,86.3,110.1,88.4z M93.8,88.3L93.8,88.3
		c0.1-2,0.1-4,0.1-6.1c0,0,0,0-0.1,0C93.8,84.2,93.8,86.3,93.8,88.3z M90.3,93.4c0,0-0.3,0.2-0.5,0.4c-0.3,0.2-0.6,0.6-0.9,0.6
		c-0.9,0.1-1.8,0-2.7,0v0.1c1.2,0,2.4,0,3.7,0C89.8,94,89.7,93.3,90.3,93.4z M90.3,109.8C90.3,109.8,90.3,109.7,90.3,109.8
		c-1.9-0.1-3.8-0.1-5.6-0.1c0,0,0,0,0,0.1C86.5,109.8,88.4,109.8,90.3,109.8z M114.2,109.8L114.2,109.8c-1.8-0.1-3.6-0.1-5.4-0.1
		c0,0,0,0,0,0.1C110.6,109.8,112.4,109.8,114.2,109.8z M125.7,60.3c0,0.1,0,0.1,0,0.2c1.4,0,2.8,0,4.3,0c0-0.1,0-0.1,0-0.2
		C128.5,60.3,127.1,60.3,125.7,60.3z M77.5,101.1C77.4,101.1,77.4,101.1,77.5,101.1c1.4,0,2.9,0,4.4,0l0,0
		C80.4,101.1,78.9,101.1,77.5,101.1z M113.7,87L113.7,87c0-1.6,0-3.2,0-4.8l0,0C113.7,83.8,113.7,85.4,113.7,87z M89.8,106.6
		L89.8,106.6c0-1.5,0-3.1,0-4.6l0,0C89.8,103.5,89.8,105,89.8,106.6z"/>
	<path class="st0" d="M191.5,20.3c-0.1,0.6-0.3,1.2-0.4,1.8c-0.2,1.7-0.3,3.4-0.6,5c-0.4,2-0.9,4-1.3,5.9c-0.1,0.5-0.1,1-0.1,1.5
		c0,0.6,0.1,1.3,0,1.9c-0.1,1.4-0.4,2.8-0.5,4.2c0,1,0.4,2,0.4,3c0.1,2-0.1,4,0,5.9c0.3,4.6-0.3,9.2,0.4,13.8
		c0.5,3.2,0.2,6.6-0.3,10c-0.5,3.7-0.1,7.6-0.1,11.4c0,0.6,0,1.2,0,1.8c0.6,0.1,1.1,0.1,1.5,0.2c0,0.7,0.1,1.2,0.1,1.8
		c0.6,0.1,1.1,0.1,1.7,0.2c0.1,0.7,0.1,1.3,0.2,1.7c1.1,0.8,3.2-0.9,3.3,1.7c0.5,0,0.8-0.1,1.3-0.1c0-0.6,0-1.1,0-1.6
		c0-10.9,0-21.8,0-32.8c0.1-7.4-0.2-14.8-1.7-22c0-0.2-0.1-0.4-0.1-0.5c0.6-1.3,0-2.6-0.2-3.9c-0.4-2.1-0.8-4.1-1.2-6.2
		c-0.2-1.3-0.3-2.6-0.5-3.9c-0.1-0.7-0.2-1.1,0.4-1.6c1-0.9,0.7-2.4-0.6-3c-1-0.5-2.2-0.2-2.8,0.7C190.1,18.4,190.3,19.3,191.5,20.3
		z M160.7,86.7c0-0.5,0-0.8,0-1.2c-0.3-4.7,0.3-9.3-0.4-14c-0.5-3.3,0-6.8,0.3-10.3c0.5-6.9-0.2-13.9,0.5-20.8
		c0.1-0.8-0.1-1.5-0.2-2.3c-0.4-3.3-0.3-6.7-1.3-9.9c-0.3-1-0.3-2-0.5-3c-0.2-1.3-0.2-2.6-0.5-3.8c-0.1-0.7-0.2-1.2,0.4-1.7
		c0.7-0.7,0.6-1.8-0.1-2.5c-0.7-0.7-1.9-0.8-2.6-0.2c-0.8,0.6-1.1,1.8-0.4,2.4c1,0.9,0.6,1.9,0.5,2.9c-0.4,2.3-0.6,4.7-0.9,7
		c-0.3,2.1-1.4,4.1-0.7,6.3c0,0.2-0.1,0.4-0.1,0.5c-1,5.3-1.5,10.6-1.5,15.9c0,11.4,0,22.9,0,34.3c0,1.9,0,3.9,0,5.8
		c1.5,0.6,1.1-0.6,1.4-1.3c0.9,0,1.9,0,2.9,0c0.1-0.7,0.1-1.3,0.2-2c0.6-0.1,1.1-0.1,1.6-0.1c0.1-0.7,0.1-1.3,0.2-1.9
		C159.9,86.9,160.2,86.8,160.7,86.7z M174.6,59.5c-1.6,2.4-3.1,4.8-4.8,7.3c1,0.1,1.6,0.1,2.3,0.1c-0.3,0.5-0.6,0.9-0.8,1.3
		c-0.4,0.7-1.1,1.4-1.2,2.1c-0.1,2.7-0.1,5.4-0.1,8.1c0.8,0.2,1.1,0,1-0.7c0-0.3,0-0.6,0-0.9c0-0.2,0.2-0.3,0.4-0.5
		c0.2,0.2,0.4,0.3,0.5,0.5c0.1,0.1,0,0.4,0,0.5c0.1,0.4,0.3,0.7,0.5,1.1c0.1-0.4,0.3-0.7,0.4-1.1c0-0.1,0-0.2,0-0.2
		c0.2-0.3,0.3-0.6,0.5-0.9c0.2,0.3,0.3,0.6,0.5,0.9c0.2,0.4,0.3,1.2,0.5,1.2c0.9,0,0.4-0.8,0.6-1.2V77c0.2-0.2,0.3-0.5,0.5-0.7
		c0.1,0.2,0.3,0.4,0.4,0.7c0.2,0.5-0.4,1.4,0.6,1.4c0.9,0,0.3-0.9,0.5-1.4c0.1-0.2,0.3-0.5,0.4-0.7c0.2,0.2,0.4,0.5,0.5,0.7
		s0,0.4,0,0.5c0.1,0.3,0.3,0.6,0.5,0.9c0.2-0.3,0.6-0.6,0.6-0.9c0.1-1.8-0.1-3.5,0.1-5.3c0.1-1.7-0.3-3.3-1.3-4.6
		c-0.2-0.2-0.2-0.5-0.4-0.8c0.6-0.1,1.1-0.1,1.6-0.2C179,65.8,176.5,61.6,174.6,59.5z M145.5,73.1c-0.1,0-0.1,0-0.2,0
		c-0.1,0.3-0.3,0.7-0.3,1c0.5,2.4-0.2,4.6-0.7,6.9c-0.5,2.4-1.1,4.8-1.3,7.2c-0.2,3.3-0.1,6.7-0.1,10.1c0,1,0,2,0,3
		c0,0.5,0.2,1,0.3,1.5c1,0,2.2,0,3.6,0c-1.3-0.8-1.3-0.8-1.2-2.1c0-0.3-0.1-0.6,0-0.9s0.3-0.6,0.5-0.8c0.2,0.3,0.4,0.5,0.6,0.8
		c0.2,0.2,0.3,0.5,0.4,0.8c0.1-0.3,0.4-0.5,0.4-0.8c0.1-6.9,0.3-13.7-1.6-20.4c-0.4-1.4-0.4-2.9-0.6-4.4
		C145.4,74.3,145.5,73.7,145.5,73.1z M208,102.8c-0.1-0.4-0.2-0.7-0.1-1c0.1-0.7,0.3-1.3,0.4-2c0-2.2,0-4.5,0-6.7
		c0.1-3.6-0.2-7.2-1.1-10.7c-0.6-2.3-0.8-4.7-1.2-7.1c-0.1-0.7,0-1.4,0-2.1c-0.3,0.7-0.2,1.5-0.3,2.2c-0.4,2.4-0.8,4.7-1.2,7.1
		c-0.3,1.8-0.9,3.6-1,5.4c-0.2,3.9-0.1,7.8,0,11.7c0,0.3,0.3,0.7,0.4,1c0.1-0.3,0.2-0.6,0.4-0.9s0.4-0.5,0.6-0.7
		c0.2,0.3,0.6,0.5,0.6,0.8c-0.1,1.1,0.6,2.4-0.9,3.2C205.7,102.8,206.8,102.8,208,102.8z M201.7,94.2c-1,1.4-0.1,3.1-0.5,4.8
		c1.1-0.3,1.2,0.3,1.2,1.1c0,0.5,0,1,0,1.4c0,0.9-0.4,0.9-1.1,0.7c-0.1-0.5-0.1-1-0.2-1.5c-0.1,0-0.2,0-0.3,0
		c-0.2,0.7-0.3,1.4-0.5,2.2c1.1,0,1.9,0,2.9,0c0-2.1,0-4.2,0-6.2c0.1-5.3,0.1-10.7-1.4-15.9c-0.5-1.8-0.6-3.8-0.8-5.7
		c-0.1-0.6,0-1.1,0-1.7c-0.1,0-0.2,0-0.3,0c0,0.7,0.1,1.4,0,2c-0.4,2.6-0.8,5.2-1.4,7.8c-0.7,3-1,6-0.9,9.1c0,0.3,0.2,0.8,0.4,0.9
		C199.9,93.4,201.1,92.8,201.7,94.2z M150.4,73.2c-0.1,0-0.2,0-0.2,0c0,0.7,0.1,1.4,0,2c-0.2,1.7-0.5,3.5-0.8,5.2
		c-0.7,3.5-1.6,7-1.4,10.7c0.2,3.9,0,7.8,0,11.8c0.6-0.1,1-0.1,1.3-0.2c-0.2-0.6-0.6-1.1-0.6-1.5c0-2.4,0.1-4.8,0.1-7.2
		c0-0.6,0.2-0.9,0.8-0.8c0.9,0,1.9,0,3,0c0-0.6,0-1,0-1.4c0.3-3.5-0.5-6.9-1.2-10.3c-0.4-2.1-0.7-4.2-1-6.3
		C150.3,74.6,150.4,73.9,150.4,73.2z M147.9,58.4c-0.1,0-0.2,0-0.3,0c-0.1,0.4-0.2,0.7-0.2,1.1c0,1.1,0.1,2.3,0,3.4
		c-0.4,3-1,5.9-1.2,8.9c-0.3,4.3,0.1,8.6,1.2,12.8c0.1,0.5,0.2,0.9,0.4,1.4c0.1,0,0.2,0,0.4,0c0.4-2.6,0.9-5.3,1.1-7.9
		c0.3-4.5-0.1-8.9-1-13.3c-0.3-1.4-0.4-2.9-0.5-4.4C147.7,59.6,147.8,59,147.9,58.4z M198.3,93.1c0-0.7,0-1.3,0-2
		c0.1-2,0.3-3.9,0.4-5.9c0.1-0.8,0.2-1.5,0.2-2.3c0-3.6,0-7.3,0-10.9c0-0.5,0.1-1,0.1-1.5c0.4-2.8,0.9-5.7,1.3-8.5
		c0-0.3-0.1-1-0.2-1c-0.8-0.1-1.6-0.2-2.3,0c-0.2,0-0.3,0.9-0.3,1.3c0,9.1,0,18.2,0,27.3c0,1,0,2,0,2.9c-0.6,0.1-1.2,0.2-1.7,0.3
		c0,0.1,0,0.2,0,0.3C196.6,93.1,197.3,93.1,198.3,93.1z M203.1,86c0.1,0,0.3,0,0.4,0c0.6-2.6,1.1-5.2,1.7-7.9c0.3-1.3,0.7-2.6,0-3.9
		c-0.1-0.1,0-0.3,0-0.4c0.8-1.3,0.5-2.7,0.3-4.1c-0.4-3.1-0.9-6.1-1.2-9.2c-0.1-0.7,0-1.5,0-2.3c-0.3,0.4-0.4,0.7-0.4,1.1
		c0,1.1,0.1,2.3-0.1,3.4c-0.4,3-1,5.9-1.2,8.9c-0.2,3.2-0.1,6.5-0.1,9.7C202.6,82.9,202.9,84.5,203.1,86z M152.5,85.8
		c0.1,0,0.2,0,0.3,0c0-3.9,0-7.7,0-11.6c0-1.4-0.1-2.9-0.2-4.3c-0.3-3.6-1.5-7.1-1.1-10.7c0-0.3-0.1-0.6-0.2-0.9
		c-0.3,0.7-0.2,1.4-0.3,2.2c-0.3,2.8-0.7,5.6-1,8.4c-0.2,1.2-0.3,2.4-0.4,3.6c1,0.3,1.2,0,1.2-0.7s0-1.3,0-2
		c0.7,0.5,0.8,4.7,0.5,5.2c-0.3,0.4-0.6,1-0.5,1.4C151.3,79.5,151.9,82.6,152.5,85.8z M200.9,58.3c-0.5,7.8-2.7,15.5-1.4,23.4
		c0.4-2.2,0.7-4.4,1-6.6c0-0.4-0.3-0.8-0.3-1.2c0-1,0.1-2,0.2-3.1c0-0.4,0.1-0.8,0.1-1.2c0.1,0,0.2,0,0.4,0c0.1,0.3,0.1,0.6,0.2,1
		c0.1,0.9,0.3,1.8,0.4,2.7c0.1,0.3,0.4,0.7,0.4,0.9c-1,2,0,3.8,0.5,5.7c0-3.9-0.1-7.8-0.4-11.7c-0.2-2.7-0.6-5.3-0.9-8
		C200.8,59.7,200.9,59,200.9,58.3z M179,60.5c0-1.6,0-3.1,0-4.6c0-0.2-0.5-0.5-0.7-0.5c-2.4,0-4.9,0-7.3,0c-0.3,0-0.7,0.3-0.7,0.5
		c-0.1,1.4,0,2.9,0,4.5C172.5,57.6,176,57,179,60.5z M145.1,116.8c0.1,0,0.2,0,0.2,0c0.1-0.1,0.1-0.2,0.2-0.3
		c0.8-1.4,0.4-2.9,0.5-4.4c0-1,0.2-1.1,1.2-0.6c0.2-0.7,0.5-1.3,0.6-2c0.1-0.5-0.1-1.3,0.2-1.6c1.4-1.1,0.4-2-0.1-3.1
		c-0.3-0.6-0.4-1.3-0.5-2c-0.1-0.6,0-1.2,0-1.8c-0.3,0.4-0.4,0.8-0.5,1.3c-0.1,0.8,0.1,1.7-0.3,2.3c-1.5,2.1-1.9,4.4-1.7,6.9
		c0.1,1.1,0,2.3,0,3.4C145.1,115.5,145.1,116.1,145.1,116.8z M151,61c-0.9,0-1.6-0.1-2.2,0c-0.3,0-0.7,0.5-0.7,0.7
		c0.4,2.7,0.8,5.4,1.2,8.1c0.1,0,0.2,0,0.3,0C150.1,67,150.5,64.1,151,61z M202.3,69.3c0.1,0,0.1,0,0.2,0c0.1-0.2,0.2-0.4,0.2-0.7
		c0.3-2,0.6-4.1,0.9-6.1c0.3-1.8,0.3-1.8-1.6-1.7c-0.7,0-1,0.2-0.9,0.9C201.5,64.2,201.9,66.7,202.3,69.3z M152.6,67.8
		c0.1,0,0.2,0,0.3,0c0-2,0-4,0-5.9c0-0.8-0.4-0.9-1.2-0.6C152,63.4,152.3,65.6,152.6,67.8z M147.9,103.1c-0.1,0.1-0.2,0.2-0.2,0.3
		c0.4,0.8,0.8,1.5,1.2,2.3c0.2,0,0.3-0.1,0.5-0.1c0-0.8,0.1-1.6-0.1-2.3C149.3,103.2,148.4,103.2,147.9,103.1z"/>
	<path class="st0" d="M167,81.1c0.7-0.6,1.5-1.2,2.3-1.7c0.4-0.3,0.8-0.5,1.3-0.5c3,0,6,0,9.1,0c0.5,0,0.9,0.3,1.4,0.5
		c1.1,0.9,2.1,1.9,3.2,2.8c0.3,0.5,0.5,1.1,0.8,1.6c0.2,0.3,0.5,0.5,0.8,0.6s0.6,0,1.1,0c0.1,0.5,0.1,1,0.2,1.5
		c0.4,0,0.8,0.1,1.2,0.1c0.1,0.3,0.2,0.7,0.3,1.1c1.5-0.3,2.3,0.2,1.9,1.8c1.8,0.3,1.8,0.3,2,2.3c0.9,0,1.9,0,3,0
		c0.1,0.8,0.1,1.5,0.2,2.3c1.8,0,3.5,0,5.4,0c0,2.2,0,4.2,0,6.4c-1.2-0.6-2.4-1.2-3.5-1.8c-3.9-2.4-7.8-4.9-11.7-7.3
		c-3.1-1.9-6.2-3.8-9.2-5.7c-1.1-0.7-1.9-0.7-3,0c-3.2,2.1-6.4,4-9.6,6.1c-0.1,0.1-0.3,0-0.4,0.1c-0.5,0.3-1.1,0.7-1.6,1
		c-0.9,0.6-1.8,1.3-2.6,1.9c-2.3,1.3-4.5,2.7-6.8,4c-0.8,0.5-1.6,1-2.4,1.5c-0.3,0.1-0.6,0.1-1,0.2c0-2,0-3.9,0-5.8
		c0-0.2,0.5-0.5,0.8-0.5c1.5-0.1,2.9,0,4.4,0c0.1-0.1,0.2-0.2,0.2-0.2c0.2-2,0.2-2,2.2-2c0.3,0,0.6,0,1-0.1c-0.1-1.3-0.2-2.6,1.9-2
		c-0.3-1.6,0.3-2.4,1.9-2c0.1-0.4,0.2-0.7,0.3-1.1c0.4-0.1,0.8-0.1,1.2-0.2c0.1-0.4,0.1-0.9,0.2-1.4c0.6-0.1,1.2-0.1,1.6-0.2
		c0.3-0.7,0.5-1.3,0.7-1.9C166,81.9,166.5,81.5,167,81.1z"/>
	<path class="st0" d="M273,101.6c-3.5,0-6.9,0-10.4,0c0-5.5,0-11,0-16.8c0.9,2.5,2.6,3.9,5.2,3.9c2.5,0,4.3-1.4,5.3-3.8
		C273,90.5,273,96,273,101.6z"/>
	<path class="st0" d="M281.5,102.2c-1.3,0-2.7,0-4,0c-0.7,0-1.1-0.2-1.1-1c0-2.3,0-4.6,0-7c0-1.6,0.7-2.8,2.4-3
		c1.8-0.2,3.7-0.2,5.5,0.1c1.6,0.2,2.3,1.3,2.3,2.9c0,2.4,0,4.7,0,7.1c0,0.7-0.2,0.9-0.9,0.9C284.3,102.1,282.9,102.1,281.5,102.2z"
		/>
	<path class="st0" d="M299.9,106.5c-3.4,0-6.6,0-10,0c0-1.7,0-3.2,0-4.8c0-1.1,0-2.3,0-3.4c-0.1-1.4,0.7-2.1,1.9-2.5
		c2-0.7,4.1-0.7,6.2,0c1.3,0.4,2,1.3,2,2.7C299.9,101.1,299.9,103.7,299.9,106.5z"/>
	<path class="st0" d="M248.9,102.1c0-1.7,0-3.4,0-5c0-1-0.1-2.1,0-3.1c0.1-1.4,0.8-2.3,2.2-2.7c1.9-0.5,3.9-0.5,5.8,0
		c1.4,0.4,2.1,1.4,2.2,2.8c0,2.6,0,5.3,0,8C255.6,102.1,252.3,102.1,248.9,102.1z"/>
	<path class="st0" d="M245.7,106.5c-3.4,0-6.7,0-10.1,0c0-0.8,0-1.5,0-2.3c0-2,0-4,0-6c0-1.3,0.7-2.1,1.8-2.5c2.2-0.8,4.4-0.8,6.5,0
		c1.1,0.4,1.8,1.2,1.8,2.6C245.6,101.1,245.7,103.8,245.7,106.5z"/>
	<path class="st0" d="M286.8,116.9c-3.8,0-7.4,0-11.2,0c0-1.6,0-3.2,0-4.8c0-0.2,0-0.5,0.2-0.6c1-0.8,0.7-1.4-0.5-2.2
		c0.6-0.1,0.9-0.2,1.2-0.2c3.1,0,6.2,0,9.3,0c0.3,0,0.6,0.1,0.9,0.2c-0.2,0.2-0.4,0.4-0.4,0.7c-0.1,0.3-0.1,0.7,0,1.1
		s0.5,0.7,0.5,1.1C286.9,113.7,286.8,115.3,286.8,116.9z"/>
	<path class="st0" d="M260.1,109.6c-0.2,0.1-0.5,0.1-0.6,0.2c-0.2,0.2-0.4,0.7-0.3,0.8c1.5,1.8,0.5,3.9,0.7,5.9c0,0.1,0,0.1,0,0.3
		c-3.7,0-7.3,0-11.2,0c0-1.6,0-3.3,0-4.9c0-0.1,0.1-0.2,0.1-0.3c0.5-1.3,0.5-1.3-0.1-2.4c3.7,0,7.4,0,11.1,0
		C259.9,109.4,260,109.5,260.1,109.6z"/>
	<path class="st0" d="M273.4,111.2c-0.1,0.3-0.3,0.6-0.3,0.9c0,1.5,0,3.1,0,4.7c-3.6,0-7.1,0-10.7,0c0-1.7,0-3.3,0-5
		c0-0.1,0-0.1,0-0.2c0.2-0.7,0.2-1.9,0-2.5c3.6,0,7.1,0,10.6,0c-0.3,0.7-0.5,1.2-0.6,1.7C272.5,110.9,273.1,111.1,273.4,111.2z"/>
	<path class="st0" d="M101.2,111c1.6,0,3,0,4.5,0c0.2,0,0.6,0.5,0.6,0.9c0.1,2.3,0,4.6,0,6.9c-1.7,0-3.4,0-5.2,0
		C101.2,116.3,101.2,113.7,101.2,111z"/>
	<path class="st0" d="M153.3,99.3c0.3-0.4,0.6-0.8,1-1.2c0.7-0.3,0.9,0.1,0.8,0.7c-0.2,1.8-0.3,3.7-0.8,5.4c-1,3.5-2.2,7-3.3,10.5
		c-0.3,0.9-0.6,1.8-0.9,2.7c-0.2-2.5-0.2-5-0.2-7.5c-0.1-1.6,0.1-3.2,0.7-4.7c0.4-1,0.5-2.4,2-2.1
		C152.9,101.7,153.1,100.5,153.3,99.3z"/>
	<path class="st0" d="M89.8,118.9c-1.8,0-3.5,0-5.1,0c0.1-0.4,0.3-0.9,0.3-1.4c0-2.1,0-4.2,0-6.5c1.5,0,2.8,0,4.2,0
		c0.2,0,0.5,0.5,0.5,0.8C89.9,114.1,89.8,116.4,89.8,118.9z"/>
	<path class="st0" d="M122.7,118.9c-1.6,0-3.2,0-5,0c0-1.7,0-3.3,0-5c0-2.9,0-2.9,2.9-2.9c0.2,0,0.4,0,0.6,0c1-0.1,1.4,0.3,1.4,1.3
		c-0.1,1.8,0,3.5,0,5.3C122.5,118.1,122.6,118.5,122.7,118.9z"/>
	<path class="st0" d="M45.5,119.3c-1.6,0-3.1,0-4.8,0c0-2.1-0.1-4.2,0-6.3c0.1-1.2,1.3-2,2.4-2c1.2,0,2.2,0.9,2.3,2.1
		C45.6,115.2,45.5,117.2,45.5,119.3z"/>
	<path class="st0" d="M179.6,119.3c-1.3,0-2.4,0-3.7,0c0-3.1,0-6.1,0-9.3c1.1,0.3,2.3,0.6,3.4,1c0.2,0.1,0.3,0.4,0.3,0.6
		C179.6,114.1,179.6,116.7,179.6,119.3z"/>
	<path class="st0" d="M173.8,110c0,3.2,0,6.2,0,9.3c-1.2,0-2.4,0-3.7,0c0-2,0-4.1,0-6.1c0-2.2,0-2.3,2.1-2.9
		C172.7,110.2,173.2,110.2,173.8,110z"/>
	<path class="st0" d="M164.1,92.6c0.3,0.9,0.9,1.8,0.8,2.7c0,1.9-0.2,3.8-0.7,5.7c-1.2,5.2-2.5,10.3-3.8,15.5
		c-0.2,0.9-0.9,1.7-1.5,2.5c-0.2,0.3-0.8,0.4-1.4,0.6c0-2.3,0-4.4,0-6.5c0-0.2,0.2-0.6,0.5-0.7c0.8-0.5,2.4,0,3,0.9
		c0.5-2,1-3.8,1.4-5.6c0.8-3.3,1.5-6.7,2.2-10C165,95.9,164.7,94.2,164.1,92.6L164.1,92.6z"/>
	<path class="st0" d="M113.1,118.9c-1.1,0-2,0-3,0c0-2.2,0-4.3,0-6.5c0-0.8,0.7-1.4,1.5-1.3c0.9,0,1.5,0.7,1.5,1.6
		C113.1,114.7,113.1,116.7,113.1,118.9z"/>
	<path class="st0" d="M97.6,118.8c-1,0-2,0-3,0c0-2.2-0.1-4.4,0.1-6.5c0-0.5,0.9-1.1,1.4-1.2c0.8-0.1,1.4,0.6,1.5,1.4
		c0.1,1.1,0,2.2,0,3.3C97.6,116.8,97.6,117.8,97.6,118.8z"/>
	<path class="st0" d="M187.6,108.8c0.3,0.8,0.6,1.6,0.8,2.4c0.1,0.5,0.3,0.9,0.4,1.4c0.3-0.1,0.5-0.3,0.7-0.3c1.9-0.6,2.7,0,2.7,2
		c0,1.7,0,3.3,0,5c-1.1,0-2.3-1-2.7-2.3C188.8,114.2,188.2,111.5,187.6,108.8L187.6,108.8z"/>
	<path class="st0" d="M153.3,99.3c-0.2,1.2-0.4,2.4-0.6,3.8c-1.6-0.3-1.6,1.1-2,2.1c-0.6,1.5-0.8,3.1-0.7,4.7c0.1,2.5,0,5,0.2,7.5
		c0.3-0.9,0.6-1.8,0.9-2.7c1.1-3.5,2.3-7,3.3-10.5c0.5-1.7,0.6-3.6,0.8-5.4c0.1-0.5-0.1-1-0.8-0.7c0.2-0.2,0.4-0.4,0.7-0.7
		c0.8,1.6,0.6,3.2,0.2,4.6c-1.1,3.9-2.3,7.8-3.5,11.6c-0.5,1.6-1,3.1-1.5,4.6c-0.1,0.3-0.3,0.7-0.6,0.9c0-3.3,0-6.5,0-9.8
		c-0.1,0-0.3,0-0.4,0c-0.2,1.6-0.4,3.1-0.5,4.4c-0.6,0.8-1.1,1.5-1.6,2.2c0.4-1.3,0.8-2.6,1.2-3.8c1.3-3.9,2.1-7.9,4.2-11.5
		C152.6,100.2,153,99.8,153.3,99.3z"/>
	<path class="st0" d="M131,71.5c-2.7,0.4-2.7,0.4-2.7-2.1c0-1.3,0-2.6,0-3.9c0-0.9,0.4-1.5,1.4-1.5s1.4,0.6,1.4,1.5
		C131,67.5,131,69.4,131,71.5z"/>
	<path class="st0" d="M79.3,68.1c0,0.8,0,1.7,0,2.5c0,0.7-0.2,1-0.9,0.9c-0.4,0-0.8,0.1-1.1,0c-0.3-0.1-0.7-0.4-0.7-0.7
		c-0.1-1.8-0.1-3.7,0-5.5c0-0.8,0.5-1.3,1.3-1.4c0.9,0,1.3,0.5,1.4,1.4C79.3,66.3,79.3,67.2,79.3,68.1z"/>
	<path class="st0" d="M29.8,74.2c0.7-0.1,1.3-0.1,2-0.2c0.3,0.7,0.8,1.4,0.8,2.2c0.1,1.5,0,3.1,0.1,4.6c0,0.7-0.2,1-0.9,1
		c-1.8,0-3.5,0-5.3,0c-0.7,0-1-0.2-1-0.9c0-1.6,0-3.2,0-4.9c0-1.2,0.6-2,1.5-2.1s1.5,0.4,1.9,1.7c0,0.1,0.1,0.1,0.1,0.1
		C29.3,75.1,29.5,74.7,29.8,74.2z M32.2,80.9c0-1.6,0-3.4,0-5.2c0-0.8-0.4-1.5-1.3-1.5s-1.3,0.7-1.3,1.5c0,1.1-0.1,2.1-0.1,3.2
		c0,2.4,0,2.4,2.4,2.1C32,81.1,32,81.1,32.2,80.9z M28.5,81.1c0-1.4,0-2.7,0-4c0-0.6,0.1-1.3-0.2-1.8c-0.2-0.4-0.9-1-1.3-0.9
		c-0.4,0-1.1,0.7-1.1,1.1c-0.1,1.9-0.1,3.8-0.1,5.7C26.8,81.1,27.6,81.1,28.5,81.1z"/>
	<path class="st0" d="M105.9,85.2c0,1.2-1,2.1-2.1,2.1c-1.2,0-2.2-1-2.1-2.2c0-1.1,1-2.1,2.1-2.1C105,83,105.9,84,105.9,85.2z"/>
	<path class="st0" d="M79,116.6c-0.9,0-1.6,0-2.4,0c0-1.7,0-3.3,0-5.2c0.6,0,1.2-0.1,1.7,0c0.2,0,0.6,0.4,0.6,0.6
		C79,113.5,79,115,79,116.6z"/>
	<path class="st0" d="M128.6,111.5c0.1,0,0.2-0.1,0.2-0.1c2.1-0.2,2.1-0.2,2.1,1.9c0,1.1,0,2.1,0,3.3c-0.8,0-1.5,0-2.3,0
		C128.6,114.9,128.6,113.2,128.6,111.5z"/>
	<path class="st0" d="M223.4,59.5c0,1.6,0,3,0,4.4c-0.8,0-1.6,0-2.5,0c0-1.3,0-2.6,0-3.8c0-0.2,0.4-0.5,0.6-0.6
		C222.1,59.5,222.7,59.5,223.4,59.5z"/>
	<path class="st0" d="M25.2,73.7c-0.1-0.3-0.3-0.7-0.2-0.9c0.2-0.6,0.5-1.2,0.8-1.8l0,0c0.4-0.6,0.8-1.2,1.3-2
		c0.7,1.3,1.2,2.5,1.9,3.7c0.5-1,1-1.9,1.5-2.8c0.2-0.3,0.6-0.6,0.9-0.8l0,0c0.6,1.4,1.2,2.9,1.9,4.6c-0.4-0.2-0.6-0.3-0.9-0.3l0,0
		c-0.4-1-0.9-2.1-1.3-3.1c-0.1,0-0.2,0-0.3,0c-0.4,1-0.9,2-1.3,3c-0.4,0.7-0.8,0.7-1.2,0c-0.2-0.4-0.3-0.8-0.5-1.2
		c-0.3-0.6-0.5-1.2-0.9-2C26.4,71.4,25.8,72.6,25.2,73.7C25.2,73.8,25.2,73.7,25.2,73.7z"/>
	<path class="st0" d="M187.3,119.2c0.6-1.4,0.2-2.6-0.2-4c-1.5-5.7-3-11.4-4.4-17.1c-0.9-3.6-2.4-6.9-4.8-9.9
		c-0.1-0.1-0.2-0.3-0.2-0.5c1.7,1.8,3.1,3.9,3.8,6.2c1.3,4,2.4,8.1,3.5,12.1c0.9,3.4,1.8,6.8,2.7,10.3
		C188,117.4,188,118.3,187.3,119.2z"/>
	<path class="st0" d="M130.9,102.3c0,1.3,0,2.6,0,3.9c-0.8,0-1.5,0-2.3,0c0-1.3,0-2.6,0-3.9C129.4,102.3,130.1,102.3,130.9,102.3z"
		/>
	<path class="st0" d="M76.6,106.3c0-1.2,0-2.1,0-3.1c0-0.3,0-0.5,0-0.8c0.7,0,1.5,0,2.3,0c0,1.1,0,2.3,0,3.5c0,0.2-0.3,0.4-0.5,0.4
		C77.9,106.3,77.3,106.3,76.6,106.3z"/>
	<path class="st0" d="M204.7,104.5c-0.1-0.4-0.2-0.8-0.3-1.4c1.2,0,2.2,0,3.2,0c0.8,0,0.7,0.4,0.5,1c-0.2,0.5-0.5,1.1-0.7,1.6
		c-0.2,0.4-0.5,0.7-0.7,1.1c-0.2-0.1-0.6-0.1-0.7-0.2C205.5,105.9,205.1,105.2,204.7,104.5L204.7,104.5z"/>
	<path class="st0" d="M29.8,74.2c-0.2,0.5-0.5,1-0.7,1.4c0,0-0.1,0-0.1-0.1c-0.4-1.3-1-1.8-1.9-1.7c-0.9,0.1-1.5,0.9-1.5,2.1
		c0,1.6,0,3.2,0,4.9c0,0.8,0.3,0.9,1,0.9c1.8,0,3.5,0,5.3,0c0.8,0,0.9-0.3,0.9-1c0-1.5,0.1-3.1-0.1-4.6c-0.1-0.7-0.6-1.4-0.8-2.2
		c0.9,0.1,1.1,0.9,1.1,1.5c0.1,2.1,0,4.2,0,6.4c-2.6,0-5,0-7.6,0c0-2.2-0.2-4.5,0.1-6.7c0.2-1.8,2.1-2.1,3.7-0.7
		C29.3,74.4,29.5,74.3,29.8,74.2z"/>
	<path class="st0" d="M224.9,82.9c0.8,0,1.4,0,2,0c0,1.2,0,2.3,0,3.5c-0.7,0-1.3,0-2,0C224.9,85.3,224.9,84.1,224.9,82.9z"/>
	<path class="st0" d="M122.7,100.7c-1.6,0-3.2,0-4.7,0c-0.3,0-0.7,0.3-1,0.5c-0.1,0-0.3-0.4-0.6-0.4c-2.1-0.1-4.3-0.1-6.4-0.1
		c-1.2,0-2.3,0-3.5,0c-5.1,0-10.2,0-15.4,0c0-0.3-0.1-0.7-0.1-1c0.1,1.2,1,0.9,1.7,0.9c7.4,0,14.9,0,22.3,0
		C117.6,100.6,120.1,100.6,122.7,100.7C122.7,100.6,122.7,100.7,122.7,100.7z"/>
	<path class="st0" d="M224.9,96.7c0-1.3,0-2.4,0-3.6c0.7,0,1.3,0,2.1,0c0,1,0,2,0,3c0,0.2-0.4,0.5-0.6,0.5
		C225.9,96.8,225.5,96.7,224.9,96.7z"/>
	<path class="st0" d="M224.9,106.9c0-1,0-2,0-3c0-0.9,0.7-0.6,1.2-0.6s1-0.1,1,0.6c0,1,0,1.9,0,3
		C226.3,106.9,225.7,106.9,224.9,106.9z"/>
	<path class="st0" d="M202.8,105.4c-0.4,0.6-0.8,1.3-1.5,2.2c-0.4-1.6-0.7-2.9-1-4.4c1.2,0,2.2,0,3.4,0c-0.3,0.7-0.5,1.4-0.8,2
		C202.8,105.3,202.8,105.4,202.8,105.4z"/>
	<path class="st0" d="M224.9,113.6c0.4,0,0.6,0,0.9-0.1c0.9-0.1,1.4,0.2,1.3,1.2c-0.1,0.8,0,1.5,0,2.4c-0.8,0-1.4,0-2.1,0
		C224.9,116,224.9,114.8,224.9,113.6z"/>
	<path class="st0" d="M226.9,76.2c-0.4,0-0.6,0-0.7,0.1c-1,0.2-1.5-0.2-1.4-1.3c0.1-0.7,0-1.5,0-2.3c0.7,0,1.4,0,2.1,0
		C226.9,73.9,226.9,75,226.9,76.2z"/>
	<path class="st0" d="M168.4,93.8c-2,7.6-4,15.2-5.9,22.7c-0.2,0.8-0.2,1.8-0.3,2.7c-0.1-0.7-0.3-1.4-0.1-2.1c1.8-7,3.6-14,5.5-21
		C167.7,95.4,168,94.6,168.4,93.8z"/>
	<path class="st0" d="M219.3,93.1c0,1.2,0,2.3,0,3.5c-0.7,0-1.3,0-2,0c0-1.2,0-2.3,0-3.5C218,93.1,218.6,93.1,219.3,93.1z"/>
	<path class="st0" d="M219.4,86.5c-0.8,0-1.3,0-2.1,0c0-1.1-0.1-2.1,0.1-3.1c0-0.2,0.8-0.5,1.2-0.5c0.3,0,0.8,0.4,0.8,0.6
		C219.4,84.4,219.4,85.4,219.4,86.5z"/>
	<path class="st0" d="M219.4,106.9c-0.4,0-0.6,0.1-0.9,0.1c-0.4,0-0.7,0-1.2-0.1c0-1.1-0.1-2.1,0-3.1c0-0.2,0.6-0.5,0.9-0.5
		c0.4,0,1,0.3,1.1,0.5C219.4,104.8,219.4,105.8,219.4,106.9z"/>
	<path class="st0" d="M159.6,95.1c-3.3,7.8-5.3,16.1-8.4,24C154,111.1,156,102.8,159.6,95.1z"/>
	<path class="st0" d="M219.3,72.7c0,1.1,0,2.2,0,3.4c-0.6,0-1.2,0-1.9,0c0-1.1,0-2.2,0-3.4C218,72.7,218.6,72.7,219.3,72.7z"/>
	<path class="st0" d="M217.3,115.3c0-0.3,0-0.5,0-0.8c-0.1-0.7,0.2-1.1,1-1c0.7,0,1.2,0.1,1.1,1c-0.1,0.5,0,1.1,0,1.6
		c0.1,0.8-0.3,1.1-1.1,1.1s-1.2-0.2-1.1-1.1C217.3,115.9,217.3,115.6,217.3,115.3z"/>
	<path class="st0" d="M191.5,97.1c2.4,7.3,4.8,14.6,7.3,21.9c-0.1,0-0.2,0.1-0.3,0.1c-2.4-7.3-4.8-14.6-7.2-21.9
		C191.3,97.2,191.4,97.1,191.5,97.1z"/>
	<path class="st0" d="M25.7,90.7c0.7,0.1,1.3,0.1,2,0.2c0.1,1.3,0.4,2.5,0.4,3.8c0.1,2.3,0,2.3-2.3,2.1c-0.1,0-0.2,0-0.2,0
		c-0.2-0.2-0.5-0.4-0.5-0.6C25.2,94.3,24.5,92.4,25.7,90.7z M27.7,96.3c0-1.5,0.1-2.8,0-4.2c0-0.4-0.6-1-1-1s-1.1,0.5-1.1,0.9
		c-0.1,1.4-0.1,2.8-0.1,4.3C26.2,96.3,26.9,96.3,27.7,96.3z"/>
	<path class="st0" d="M29.7,91.6c0.1-0.1,0.1-0.1,0.2-0.2c0.6-0.5,1.2-0.9,2-0.5s0.9,1.2,0.9,2c0,0.7,0,1.3,0,2c0,2.2,0.5,1.9-2.1,2
		c-0.7,0-1-0.2-1-0.9C29.7,94.4,29.7,93,29.7,91.6z M32.3,96.3c0-1.5,0.1-2.8-0.1-4.1c0-0.4-0.7-1-1.1-1.1c-0.3-0.1-1,0.6-1,1
		C30,93.5,30,94.9,30,96.3C30.9,96.3,31.5,96.3,32.3,96.3z"/>
	<path class="st0" d="M123.2,117.1c0-2.1,0-4.2,0-6.3c0-0.8-0.2-1.1-1-1c-1.5,0-2.9,0-4.4-0.1c1.7,0,3.5,0,5.4,0c0-2.8,0-5.6,0-8.5
		c2.3,0,4.5,0,6.6,0l0,0c-2.1,0-4.2,0-6.4,0c0,5.4,0,10.7,0,16C123.3,117.1,123.3,117.1,123.2,117.1z"/>
	<path class="st0" d="M116.4,94.5c-8.4,0-16.9,0-25.3,0c0-0.1,0-0.1,0-0.2c8.4,0,16.9,0,25.3,0C116.4,94.4,116.4,94.4,116.4,94.5z"
		/>
	<path class="st0" d="M90.5,80c0.4-1.1,1.3-0.8,2.1-0.8c7.6,0,15.3,0,22.9,0.1c-6.8,0-13.6,0-20.4,0c-0.3,0-0.7,0-1,0
		C92.9,79.3,91.5,78.7,90.5,80z"/>
	<path class="st0" d="M56.9,91c0.2,0.3,0.6,0.6,0.6,0.9c0.1,1.7,0,3.4,0,5.1c-1.2,0-2.3,0-3.5,0c0-1.7-0.1-3.5,0-5.2
		C54.2,90.4,55.9,90.1,56.9,91c-1.5-0.4-2.5-0.2-2.6,0.8c-0.1,1.6,0,3.3,0,5c0.8,0,1.5,0,2.2,0c0.2,0,0.6-0.3,0.6-0.5
		C57.1,94.5,57,92.7,56.9,91z"/>
	<path class="st0" d="M93.2,117.2c-0.4,0-0.7,0.1-0.7,0.1c0.6,0.1,0.6-0.4,0.6-1.1c0-4.3,0-8.7,0.1-13c0,1.8,0,3.7,0,5.5
		c0,0.8,0.2,1.1,1.1,1.1c1.2-0.1,2.5,0,3.8-0.1c0.3,0,0.6-0.3,0.9-0.4c0,0.6,0,1.6,0,2.6c0-0.1,0-0.2,0-0.2
		c-0.1-1.9,0.3-1.8-1.9-1.8c-1,0-1.9,0-2.9,0c-0.7,0-1,0.2-1,1C93.2,112.9,93.2,115,93.2,117.2z"/>
	<path class="st0" d="M201.7,114.2c0,1.7,0,3.3,0,5c-0.1,0-0.2,0-0.2,0c0-2.5,0-5,0-7.5h0.1c0.8,2.5,1.5,4.9,2.3,7.4
		c-0.1,0-0.2,0.1-0.3,0.1c-0.5-1.7-1-3.4-1.5-5C201.9,114.1,201.8,114.2,201.7,114.2z"/>
	<path class="st0" d="M62.2,91.5c0.1,0.4,0.3,0.7,0.3,1.1c0,1.4,0,2.9,0,4.4c-1.2,0-2.4,0-3.6,0c0-1.7-0.1-3.3,0-5
		c0-0.8,0.7-1.4,1.5-1.5C61.3,90.3,62,90.6,62.2,91.5c-0.6-0.4-1.2-1.1-2.1-0.6c-0.9,0.5-1,1.3-1,2.2c0,0.6,0,1.1,0,1.7
		c0,2.2,0,2.2,2.2,2.1c0.7,0,0.9-0.3,0.9-0.9C62.2,94.4,62.2,92.9,62.2,91.5z"/>
	<path class="st0" d="M115.3,96.5c-7.4,0-14.8,0-22.2,0l0,0C100.5,96.4,107.9,96.4,115.3,96.5C115.3,96.4,115.3,96.4,115.3,96.5z"/>
	<path class="st0" d="M92.5,99.8c7.1,0,14.2,0,21.3,0l0,0C106.7,99.8,99.6,99.8,92.5,99.8L92.5,99.8z"/>
	<path class="st0" d="M187.6,108.8c-1-4.1-2.5-8.1-2.6-12.4c0-1,0.2-2,0.3-2.9c0-0.2,0.3-0.4,0.4-0.6l0,0c-0.9,2.6-0.5,5.2,0.1,7.7
		c0.6,2.4,1.2,4.7,1.7,7.1C187.6,108,187.5,108.4,187.6,108.8L187.6,108.8z"/>
	<path class="st0" d="M29.7,91.6c0,1.4,0.1,2.9,0,4.3c0,0.7,0.3,1,1,0.9c2.6,0,2,0.2,2.1-2c0-0.7,0-1.3,0-2c0-0.8-0.1-1.6-0.9-2
		c-0.8-0.4-1.4,0-2,0.5c0.2-0.9,0.9-1,1.6-0.9c0.9,0.1,1.5,0.7,1.5,1.6c0,1.6,0,3.2,0,4.8c-1.2,0-2.3,0-3.6,0
		C29.5,95.1,29.6,93.3,29.7,91.6z"/>
	<path class="st0" d="M204.7,104.5c0.4,0.7,0.9,1.4,1.3,2.1c0.1,0.2,0.4,0.2,0.7,0.2c-0.1,3.1-0.1,6.2-0.2,9.2c0,1,0,2-0.2,3
		c0-2,0-4,0-5.9c0-0.7-0.1-1.5,0-2.2c0.2-2.1-0.1-4.2-1.4-5.9C204.7,104.9,204.7,104.7,204.7,104.5z"/>
	<path class="st0" d="M25.7,90.7c-1.1,1.7-0.5,3.7-0.6,5.5c0,0.2,0.3,0.4,0.5,0.6c0,0,0.1,0,0.2,0c2.3,0.2,2.4,0.2,2.3-2.1
		c0-1.3-0.3-2.5-0.4-3.8c0.2,0.4,0.5,0.8,0.6,1.2c0.1,0.2,0,0.4,0,0.5c0,1.4,0,2.8,0,4.3c-1.2,0-2.3,0-3.5,0c0-1.7-0.1-3.4,0-5
		C24.8,91.5,25.4,91.1,25.7,90.7z"/>
	<path class="st0" d="M142.1,111c0,1,0.1,2,0.1,3c0,0.1-0.3,0.3-0.4,0.3c-0.2,0-0.5-0.1-0.6-0.2c-0.3-0.5,0-2.6,0.5-3.1
		C141.8,111.1,142,111.1,142.1,111z"/>
	<path class="st0" d="M205.3,113c-0.2,0.3,0.5,1.3-0.5,1.3c-0.9,0-0.3-0.9-0.4-1.4c-0.1-0.4-0.1-0.9,0-1.3c0-0.2,0.3-0.4,0.5-0.5
		c0.2,0.2,0.4,0.3,0.5,0.5C205.4,112,205.3,112.5,205.3,113z"/>
	<path class="st0" d="M207.4,114.3c0-0.8,0-1.7,0-2.5c0-0.2,0.3-0.4,0.4-0.7c0.2,0.2,0.5,0.4,0.5,0.7c0.1,0.7,0.1,1.4,0,2.1
		c0,0.2-0.5,0.4-0.7,0.6C207.5,114.4,207.5,114.3,207.4,114.3z"/>
	<path class="st0" d="M210.3,112.9c-0.3,0.5-0.5,1.4-0.7,1.4c-1-0.1-0.5-0.9-0.5-1.4c0-0.6-0.5-1.5,0.5-1.7
		C209.7,111.1,210.1,112.2,210.3,112.9z"/>
	<path class="st0" d="M144.1,112.6c-0.5,0.6,0.4,1.7-0.7,1.7c-0.9,0-0.4-1-0.5-1.5c0-0.6-0.4-1.4,0.5-1.7
		C143.5,111.1,143.9,112.2,144.1,112.6z"/>
	<path class="st0" d="M219.6,44.5c0-0.8,0-1.5,0-2.2c0.4,0,0.8,0,1.3,0c0,0.7,0,1.3,0,2.1C220.5,44.5,220.1,44.5,219.6,44.5z"/>
	<path class="st0" d="M225,42.3c0,0.7,0,1.4,0,2c-1.3,0.4-1.4,0.2-1.2-2C224.2,42.3,224.5,42.3,225,42.3z"/>
	<path class="st0" d="M41.2,108.4c-1,1.1-1.5,2.4-1.4,3.9c0.1,2.2,0,4.5-0.2,6.7c0-0.4,0-0.8,0-1.2c0-2.2,0-4.4,0-6.6
		C39.6,110,40.3,109.1,41.2,108.4z"/>
	<path class="st0" d="M194.6,98.4c0.1-0.3,0.2-0.6,0.3-1c2,1.8,3,3.9,3.8,6.3c-0.1-0.1-0.2-0.3-0.3-0.4c-0.1-0.2-0.1-0.3-0.2-0.5
		c-0.8-1.4-1.6-2.8-2.5-4.2C195.5,98,195.1,98,194.6,98.4L194.6,98.4z"/>
	<path class="st0" d="M45.9,108.7c0.3,0.9,0.8,1.8,0.8,2.7c0.1,2.5,0,5.1,0,7.6c-0.1,0-0.2,0-0.3,0c0-1.1,0-2.3,0-3.4
		c0-1.2,0.1-2.4,0-3.5S46,109.9,45.9,108.7C45.8,108.8,45.8,108.8,45.9,108.7z"/>
	<path class="st0" d="M194.6,98.4c0.6,2.8,1.1,5.7,1.7,8.5l0,0C195,104.2,194.3,101.4,194.6,98.4L194.6,98.4z"/>
	<path class="st0" d="M81.3,63c0,3.2,0,6.4,0,9.6h-0.1C81.2,69.4,81.2,66.2,81.3,63C81.2,63,81.2,63,81.3,63z"/>
	<path class="st0" d="M89.4,107.5c-1.1,0-2.1,0-3.2,0c-0.8,0-1.1-0.3-1.1-1.1c0-1.5,0-3,0-4.5c0,1.5,0,2.9,0,4.4
		c0,0.8,0.2,1.2,1.1,1.1C87.3,107.4,88.4,107.5,89.4,107.5L89.4,107.5z"/>
	<path class="st0" d="M134.1,62.9c0,3.1,0,6.3,0,9.4H134C134,69.2,134,66.1,134.1,62.9C134,62.9,134.1,62.9,134.1,62.9z"/>
	<path class="st0" d="M29.9,87.5c-0.7,0.8-1.4,0.4-1.8-0.3c-0.5-0.6-0.3-1.3,0.3-1.8c0.7-0.5,1.4-0.4,1.8,0.3
		C30.7,86.4,30.7,87.1,29.9,87.5c0.1-0.2,0.3-0.4,0.2-0.5c0-0.4-0.1-1-0.3-1.2c-0.3-0.2-0.9-0.2-1.3,0c-0.3,0.2-0.5,0.8-0.3,1.1
		c0.2,0.3,0.7,0.5,1,0.7C29.4,87.6,29.6,87.5,29.9,87.5z"/>
	<path class="st0" d="M75.6,61.3c0,0,0,3,0,6.6s0,6.6,0,6.6s0-3,0-6.6S75.6,61.3,75.6,61.3z"/>
	<path class="st0" d="M77.7,90c3.6,0,6.5,0,6.5,0S81.3,90,77.7,90s-6.5,0-6.5,0S74.1,90,77.7,90z"/>
	<path class="st0" d="M100.2,90.1c-2.8,0-5.6,0-8.4,0c0-0.1,0-0.1,0-0.2c2.8,0,5.6,0,8.4,0C100.2,90,100.2,90.1,100.2,90.1z"/>
	<path class="st0" d="M116.8,89.8C116.8,89.7,116.8,89.9,116.8,89.8c-2.6,0.1-5.2,0.1-7.8,0.2C111.6,89.8,114.2,90.2,116.8,89.8z"/>
	<path class="st0" d="M120.1,107.6c2.2-0.1,2.2-0.1,2.2-2.4c0-1.2,0-2.5,0.1-3.7c0,1.6-0.1,3.3,0,4.9c0,1-0.3,1.3-1.2,1.2
		C120.9,107.5,120.5,107.6,120.1,107.6z"/>
	<path class="st0" d="M29.6,73.2c0.4-1,0.9-2,1.3-3c0.1,0,0.2,0,0.3,0c0.4,1,0.9,2.1,1.3,3.1c-0.5-0.8-0.9-1.6-1.5-2.5
		C30.6,71.7,30.1,72.4,29.6,73.2z"/>
	<path class="st0" d="M123.2,79.8c0,0,0,2.4,0,5.3s0,5.3,0,5.3s0-2.4,0-5.3S123.2,79.8,123.2,79.8z"/>
	<path class="st0" d="M25.2,73.8c0.6-1.2,1.2-2.4,1.9-3.8c0.4,0.8,0.6,1.4,0.9,2c-0.3-0.4-0.6-0.7-0.9-1.1
		C26.5,71.9,25.8,72.8,25.2,73.8z"/>
	<path class="st0" d="M133.8,55.2c-2.5,0-5,0-7.5,0l0,0C128.9,55.2,131.4,55.2,133.8,55.2C133.9,55.2,133.8,55.2,133.8,55.2z"/>
	<path class="st0" d="M73.6,55.2c2.5,0,5.1,0,7.6,0C78.6,55.2,76.1,55.2,73.6,55.2L73.6,55.2z"/>
	<path class="st0" d="M130,79.4c2.5,0,4.6,0,4.6,0S132.5,79.4,130,79.4s-4.6,0-4.6,0S127.5,79.4,130,79.4z"/>
	<path class="st0" d="M218.6,46.4c-0.6-0.2-1.1-0.4-1.7-0.6c0.3-0.2,0.5-0.4,0.8-0.4C218.2,45.4,218.9,45.2,218.6,46.4z"/>
	<path class="st0" d="M185.7,92.8c0-0.8,0.5-1.2,1.2-0.8c1.1,0.7,2,1.6,3,2.4c-0.1,0.1-0.1,0.2-0.2,0.2c-0.8-0.7-1.6-1.4-2.4-2
		C186.7,92,186.1,92.1,185.7,92.8C185.6,92.8,185.7,92.8,185.7,92.8z"/>
	<path class="st0" d="M100.8,81.4c0,2.3,0,4.6,0,6.9l0,0C100.8,86,100.8,83.7,100.8,81.4L100.8,81.4z"/>
	<path class="st0" d="M97.3,80.8c0,0,0,1.9,0,4.3s0,4.3,0,4.3s0-1.9,0-4.3S97.3,80.8,97.3,80.8z"/>
	<path class="st0" d="M159.2,94c0.9-0.6,1.8-1.3,2.6-1.9c0.5-0.4,1.1-0.7,1.6-1c-0.4,0.4-0.9,0.8-1.3,1.3c-0.1,0.1-0.2,0.1-0.3,0.2
		C161,93.1,160.1,93.5,159.2,94z"/>
	<path class="st0" d="M110.1,88.4c0-2,0-4.1,0-6.1c0,0,0,0,0.1,0C110.2,84.3,110.2,86.3,110.1,88.4
		C110.2,88.3,110.2,88.3,110.1,88.4z"/>
	<path class="st0" d="M93.8,88.3c0-2,0-4.1,0-6.1c0,0,0,0,0.1,0C93.8,84.2,93.8,86.3,93.8,88.3L93.8,88.3z"/>
	<path class="st0" d="M90.3,93.4c-0.6-0.1-0.5,0.6-0.4,1.2c-1.3,0-2.5,0-3.7,0v-0.1c0.9,0,1.8,0.1,2.7,0c0.3,0,0.6-0.4,0.9-0.6
		C90,93.6,90.3,93.4,90.3,93.4z"/>
	<path class="st0" d="M90.3,109.8c-1.9,0-3.8,0-5.6,0c0,0,0,0,0-0.1C86.5,109.7,88.4,109.7,90.3,109.8
		C90.3,109.7,90.3,109.8,90.3,109.8z"/>
	<path class="st0" d="M114.2,109.8c-1.8,0-3.6,0-5.4,0c0,0,0,0,0-0.1C110.6,109.7,112.4,109.7,114.2,109.8L114.2,109.8z"/>
	<path class="st0" d="M161.9,92.6c0.1-0.1,0.2-0.1,0.3-0.2c0.7-0.2,1.4-1.2,1.9,0.2l0,0c-0.5-0.4-0.9-0.5-1.4-0.1
		c-0.6,0.5-1.3,1-2,1.5c-0.1-0.1-0.1-0.1-0.2-0.2C161,93.4,161.4,93,161.9,92.6z"/>
	<path class="st0" d="M125.7,60.3c1.4,0,2.8,0,4.3,0c0,0.1,0,0.1,0,0.2c-1.4,0-2.8,0-4.3,0C125.7,60.4,125.7,60.4,125.7,60.3z"/>
	<path class="st0" d="M196.3,106.9c0.5,1.5,1.1,3.1,1.6,4.6c-0.1,0-0.2,0.1-0.4,0.1C197.1,110.1,196.7,108.5,196.3,106.9
		L196.3,106.9z"/>
	<path class="st0" d="M77.5,101.1c1.5,0,2.9,0,4.4,0l0,0C80.4,101.1,78.9,101.1,77.5,101.1C77.4,101.1,77.4,101.1,77.5,101.1z"/>
	<path class="st0" d="M113.7,81.2c0,0,0,1.5,0,3.4s0,3.4,0,3.4s0-1.5,0-3.4S113.7,81.2,113.7,81.2z"/>
	<path class="st0" d="M89.8,106.6c0-1.5,0-3.1,0-4.6l0,0C89.8,103.5,89.8,105,89.8,106.6L89.8,106.6z"/>
	<path class="st0" d="M100.8,81.4c1.7,0,3.4,0,5.2,0C104.3,81.4,102.5,81.4,100.8,81.4L100.8,81.4z"/>
	<path class="st0" d="M184.1,82.1c-1.1-0.9-2.1-1.9-3.2-2.8c-0.2-0.2-0.5-0.6-0.7-0.6c-1.2,0.1-1-0.7-1-1.4c0-9.3,0-18.6,0-27.9
		c0-2,0.1-4,0.2-6c0-0.6-0.3-1.4,0.7-1.5c0,0,0-0.4-0.1-0.7c-0.1-0.4-0.4-0.8-0.4-1.2c0.3-2.4,0.7-4.9,1-7.3c0.1-0.7,0-1.4,0-2.2
		c0-0.5,0-1,0.1-1.5c0.4-1.9,0.9-3.7,1.3-5.6c0.3-1.7,0.4-3.4,0.6-5.1c0.1-0.4,0.3-0.9,0.3-1.3s-0.1-0.8-0.3-1.1
		c-0.8-0.9-0.9-2-0.1-2.7c0.8-0.8,2.3-0.8,3.1,0.1c0.8,0.8,0.7,1.8-0.2,2.7c-0.2,0.2-0.5,0.5-0.4,0.8c0.4,2.9,0.9,5.7,1.3,8.6
		c0.2,0.9,0.5,1.9,0.6,2.8c0.1,1,0,2.1,0.1,3.1s0.3,2,0.5,3c1.2,6.5,1.2,13.1,1.2,19.7c0,10.2,0,20.4,0,30.5c0,0.4,0,0.8,0,1.3
		c-0.6-0.1-1-0.1-1.6-0.2c-0.1-0.5-0.1-1-0.2-1.5c-0.6,0-1.2-0.1-1.8-0.1c0.1-0.1,0.1-0.2,0.2-0.2C185.1,83.2,184.6,82.6,184.1,82.1
		z M182.6,64.6c0,1.3,0,2.5,0,3.8c0,0.3,0.3,0.6,0.4,0.9c0.1-0.3,0.4-0.6,0.4-0.9c0-2.7,0-5.3,0-8c0-0.3-0.2-0.5-0.4-0.8
		c-0.2,0.3-0.5,0.5-0.5,0.8C182.5,61.8,182.6,63.2,182.6,64.6z M185.4,60.5c-0.1,0-0.2,0-0.3,0c-0.1,0.3-0.3,0.6-0.3,0.9
		c0,2.7,0,5.3,0,8c0,0.3,0.2,0.5,0.4,0.8c0.2-0.3,0.4-0.5,0.4-0.8c0-2.6,0-5.2,0-7.8C185.6,61.1,185.5,60.8,185.4,60.5z M187,66.3
		L187,66.3c0,1.3,0,2.6,0,4c0,0.3,0.3,0.6,0.4,0.8c0.1-0.3,0.4-0.5,0.4-0.8c0-2.7,0-5.4,0-8.1c0-0.3-0.2-0.5-0.4-0.8
		c-0.1,0.3-0.4,0.6-0.4,0.8C187,63.6,187,64.9,187,66.3z M181.3,63.5C181.2,63.5,181.2,63.5,181.3,63.5c0-1.3,0-2.6,0-3.9
		c0-0.3-0.3-0.6-0.4-0.9c-0.1,0.3-0.4,0.6-0.4,0.9c0,2.6,0,5.3,0,7.9c0,0.3,0.3,0.5,0.4,0.8c0.1-0.3,0.4-0.5,0.4-0.8
		C181.3,66.2,181.3,64.9,181.3,63.5z M184.1,31.2c-0.1,0-0.2,0-0.3,0c0,1.1,0,2.2,0,3.3c0.1,0,0.2,0,0.3,0
		C184.1,33.4,184.1,32.3,184.1,31.2z M186.1,31.1c-0.1,0-0.2,0-0.3,0c0,1.1,0,2.2,0,3.4c0.1,0,0.2,0,0.3,0
		C186.1,33.4,186.1,32.3,186.1,31.1z M182.1,31.2c-0.1,0-0.2,0-0.3,0c0,1.1,0,2.2,0,3.3c0.1,0,0.2,0,0.3,0
		C182.1,33.4,182.1,32.3,182.1,31.2z"/>
	<path class="st0" d="M191.5,20.3c-1.2-1.1-1.5-1.9-0.8-2.8c0.6-0.9,1.7-1.2,2.8-0.7c1.2,0.6,1.6,2.1,0.6,3
		c-0.6,0.5-0.6,0.9-0.4,1.6c0.2,1.3,0.3,2.6,0.5,3.9c0.4,2.1,0.8,4.1,1.2,6.2c0.3,1.3,0.8,2.6,0.2,3.9c-0.1,0.1,0,0.4,0.1,0.5
		c1.5,7.3,1.7,14.6,1.7,22c-0.1,10.9,0,21.8,0,32.8c0,0.5,0,1,0,1.6c-0.5,0-0.8,0.1-1.3,0.1c-0.1-2.7-2.2-0.9-3.3-1.7
		c0-0.5-0.1-1.1-0.2-1.7c-0.6-0.1-1.1-0.1-1.7-0.2c0-0.6-0.1-1.2-0.1-1.8c-0.5-0.1-0.9-0.1-1.5-0.2c0-0.6,0-1.2,0-1.8
		c0-3.8-0.4-7.7,0.1-11.4c0.5-3.4,0.8-6.8,0.3-10c-0.7-4.6-0.2-9.2-0.4-13.8c-0.1-2,0.1-4,0-5.9c0-1-0.4-2-0.4-3
		c0-1.4,0.3-2.8,0.5-4.2c0.1-0.6,0-1.3,0-1.9c0-0.5,0-1,0.1-1.5c0.4-2,1-3.9,1.3-5.9c0.3-1.7,0.4-3.4,0.6-5
		C191.2,21.6,191.4,20.9,191.5,20.3z M191.7,63.6c-0.1,0-0.3,0-0.4,0c-0.1,0.4-0.3,0.7-0.3,1.1c0,2.6,0,5.2,0,7.7
		c0,0.3,0.3,0.6,0.5,0.9c0.1-0.3,0.4-0.6,0.4-0.9c0-2.6,0-5.2,0-7.8C191.8,64.2,191.7,63.9,191.7,63.6z M193.8,64.5
		c-0.1,0-0.3,0-0.4,0c-0.1,0.3-0.2,0.6-0.2,0.9c0,2.6,0,5.3,0,7.9c0,0.3,0.3,0.6,0.4,0.9c0.1-0.3,0.4-0.6,0.4-0.8c0-2.6,0-5.2,0-7.8
		C194,65.2,193.9,64.9,193.8,64.5z M196.2,70.3L196.2,70.3c0-1.4,0-2.7,0-4.1c0-0.2-0.3-0.5-0.4-0.7c-0.1,0.2-0.4,0.5-0.4,0.7
		c0,2.7,0,5.4,0,8.2c0,0.3,0.2,0.5,0.4,0.8c0.1-0.2,0.4-0.5,0.4-0.7C196.3,73,196.2,71.6,196.2,70.3z M192.6,35.2
		c-0.1,0-0.2,0-0.3,0c0,1.1,0,2.2,0,3.3c0.1,0,0.2,0,0.3,0C192.6,37.4,192.6,36.3,192.6,35.2z M194.5,35.2c-0.1,0-0.2,0-0.3,0
		c0,1.1,0,2.2,0,3.3c0.1,0,0.2,0,0.3,0C194.5,37.4,194.5,36.3,194.5,35.2z M190.6,35.2c-0.1,0-0.2,0-0.3,0c0,1.1,0,2.2,0,3.3
		c0.1,0,0.2,0,0.3,0C190.6,37.4,190.6,36.3,190.6,35.2z"/>
	<path class="st0" d="M167,81.1c-0.5,0.4-0.9,0.9-1.4,1.3c-0.3,0.5-0.7,0.9-1,1.4c0.1,0.1,0.1,0.2,0.2,0.2c-0.6,0-1.2,0.1-1.8,0.1
		c-0.1,0.5-0.1,1-0.2,1.5c-0.4,0.1-0.8,0.1-1.2,0.2c-0.1,0.3-0.2,0.6-0.3,1c-0.1,0-0.1,0-0.2,0c0-0.3-0.1-0.5-0.1-0.8
		c0-14,0-28,0.1-42c0.1-3.9,1.2-7.8,1.2-11.6c-0.1-4.3,1.9-8.2,1.6-12.4c0-0.5,0.2-0.9,0.2-1.4c0.2-1.1,0.8-2.2-0.5-3.2
		c-0.7-0.5-0.2-1.7,0.5-2.3c0.8-0.6,1.9-0.5,2.6,0.2c0.6,0.6,0.8,1.8,0.1,2.4c-0.7,0.7-0.5,1.3-0.4,2.1c0.3,2,0.4,4,0.7,6
		c0.2,1.6,0.7,3.1,0.9,4.7c0.1,1,0,1.9,0.1,2.9c0.1,1,0.3,2,0.4,3c0.1,0.8,0.3,1.6,0.3,2.4c0,0.3-0.1,0.6-0.2,0.8
		c-0.3,0.4-0.6,0.7,0.2,0.8c0.1,0,0.2,0.3,0.2,0.4c-0.1,0.9,0.7,1.9-0.3,2.7c-0.1,0.1,0.1,0.5,0.1,0.6c0.8,0.1,0.6,0.6,0.6,1.1
		c0.1,7.2,0.2,14.3,0.2,21.5c0,4.3,0,8.6,0,12.8c0,0.8-0.1,1.4-0.8,1.9C168.3,79.7,167.6,80.4,167,81.1z M164.6,60.5
		c-0.1,0-0.3,0-0.4,0c-0.1,0.3-0.2,0.6-0.2,0.9c0,2.6,0,5.2,0,7.8c0,0.3,0.2,0.6,0.4,0.9c0.1-0.3,0.4-0.6,0.4-0.9c0-2.6,0-5.2,0-7.7
		C164.7,61.2,164.6,60.9,164.6,60.5z M166.6,59.6c-0.1,0-0.3,0-0.4,0c-0.1,0.3-0.2,0.6-0.2,1c0,2.6,0,5.2,0,7.9
		c0,0.3,0.3,0.6,0.4,0.8c0.1-0.3,0.4-0.6,0.4-0.9c0-2.6,0-5.2,0-7.8C166.8,60.3,166.7,59.9,166.6,59.6z M168.6,58.7
		c-0.1,0-0.3,0-0.4,0c-0.1,0.4-0.2,0.7-0.2,1.1c0,2.5,0,5.1,0,7.6c0,0.3,0.3,0.6,0.4,0.9c0.1-0.3,0.3-0.6,0.3-0.9c0-2.5,0-5.1,0-7.6
		C168.8,59.4,168.7,59,168.6,58.7z M162.5,61.4c-0.1,0-0.2,0-0.4,0c-0.1,0.2-0.2,0.5-0.2,0.7c0,2.8,0,5.5,0,8.3
		c0,0.2,0.2,0.4,0.4,0.7c0.1-0.2,0.4-0.5,0.4-0.7c0-2.7,0-5.4,0-8.1C162.7,62,162.5,61.7,162.5,61.4z M167.4,31.2
		c-0.1,0-0.1,0-0.2,0c0,1.1,0,2.2,0,3.3c0.1,0,0.1,0,0.2,0C167.4,33.4,167.4,32.3,167.4,31.2z M163.5,34.4c0.1,0,0.2,0,0.2,0
		c0-1.1,0-2.2,0-3.2c-0.1,0-0.2,0-0.2,0C163.5,32.3,163.5,33.4,163.5,34.4z M165.3,34.5c0.1,0,0.1,0,0.2,0c0-1.1,0-2.2,0-3.3
		c-0.1,0-0.1,0-0.2,0C165.3,32.3,165.3,33.4,165.3,34.5z"/>
	<path class="st0" d="M160.7,86.7c-0.5,0.1-0.8,0.1-1.2,0.2c-0.1,0.6-0.1,1.2-0.2,1.9c-0.6,0-1.1,0.1-1.6,0.1
		c-0.1,0.6-0.1,1.2-0.2,2c-1,0-1.9,0-2.9,0c-0.3,0.7,0.1,1.9-1.4,1.3c0-1.9,0-3.8,0-5.8c0-11.4,0-22.9,0-34.3
		c0-5.4,0.6-10.7,1.5-15.9c0-0.2,0.1-0.4,0.1-0.5c-0.7-2.2,0.4-4.2,0.7-6.3c0.3-2.3,0.6-4.7,0.9-7c0.2-1,0.5-2-0.5-2.9
		c-0.7-0.6-0.3-1.8,0.4-2.4c0.8-0.6,1.9-0.5,2.6,0.2c0.7,0.7,0.8,1.8,0.1,2.5c-0.6,0.6-0.5,1-0.4,1.7c0.2,1.3,0.3,2.6,0.5,3.8
		c0.1,1,0.2,2.1,0.5,3c1,3.2,0.8,6.6,1.3,9.9c0.1,0.8,0.3,1.6,0.2,2.3c-0.7,6.9,0,13.9-0.5,20.8c-0.3,3.4-0.8,6.9-0.3,10.3
		c0.7,4.7,0.1,9.4,0.4,14C160.7,85.9,160.7,86.3,160.7,86.7z M154.8,70.4L154.8,70.4c0-1.4,0-2.7,0-4.1c0-0.3-0.2-0.5-0.3-0.8
		c-0.2,0.2-0.4,0.5-0.4,0.7c0,2.8,0,5.5,0,8.3c0,0.2,0.3,0.4,0.4,0.6c0.1-0.2,0.4-0.4,0.4-0.7C154.8,73.1,154.8,71.7,154.8,70.4z
		 M156.6,64.5c-0.1,0-0.2,0-0.4,0c-0.1,0.3-0.2,0.5-0.2,0.8c0,2.7,0,5.3,0,8c0,0.3,0.3,0.6,0.4,0.9c0.1-0.3,0.3-0.6,0.3-0.9
		c0-2.6,0-5.2,0-7.7C156.8,65.2,156.7,64.9,156.6,64.5z M158.7,63.7c-0.1,0-0.3,0-0.4,0c-0.1,0.4-0.2,0.7-0.2,1.1c0,2.5,0,5.1,0,7.6
		c0,0.3,0.2,0.6,0.3,0.9c0.1-0.3,0.4-0.6,0.4-0.9c0-2.6,0-5.2,0-7.8C158.9,64.2,158.8,63.9,158.7,63.7z M157.5,38.5
		c0.1,0,0.2,0,0.2,0c0-1.1,0-2.2,0-3.3c-0.1,0-0.2,0-0.2,0C157.5,36.3,157.5,37.4,157.5,38.5z M155.9,35.2c-0.1,0-0.2,0-0.3,0
		c0,1.1,0,2.2,0,3.3c0.1,0,0.2,0,0.3,0C155.9,37.4,155.9,36.3,155.9,35.2z M159.3,38.5c0.1,0,0.1,0,0.2,0c0-1.1,0-2.2,0-3.3
		c-0.1,0-0.1,0-0.2,0C159.3,36.3,159.3,37.4,159.3,38.5z"/>
	<path class="st0" d="M46.9,84.8c0.6,1.1,1.4,2.2,1.7,3.4C49,90,49,92,49.1,93.9c0,0.2-0.4,0.6-0.7,0.6c-3.5,0-7.1,0-10.6,0
		c-0.2,0-0.6-0.4-0.7-0.6c-0.1-2.2-0.3-4.5,0.9-6.6c0.5-1,1.2-1.9,2-2.7c1.7-1.6,3.8-1.6,5.8-0.3C46.1,84.5,46.5,84.7,46.9,84.8
		C46.9,84.9,46.9,84.8,46.9,84.8z M47.1,93.7c0.1,0,0.2,0,0.3,0c0-0.7,0-1.4,0-2.1c-0.1,0-0.2,0-0.3,0C47.1,92.3,47.1,93,47.1,93.7z
		 M38.7,93.5c0.1,0,0.2,0,0.3,0c0-0.6,0-1.2,0-1.9c-0.1,0-0.2,0-0.3,0C38.7,92.3,38.7,92.9,38.7,93.5z M44.4,88.2
		c-0.1-0.1-0.2-0.1-0.4-0.2c-0.6,0.5-0.5,1.2-0.5,1.9c0.1,0,0.2,0.1,0.3,0.1C44,89.4,44.2,88.8,44.4,88.2z"/>
	<path class="st0" d="M174.6,59.5c1.9,2.1,4.4,6.3,4.4,7.3c-0.5,0-1,0.1-1.6,0.2c0.1,0.3,0.2,0.6,0.4,0.8c1.1,1.4,1.4,2.9,1.3,4.6
		c-0.1,1.8,0,3.5-0.1,5.3c0,0.3-0.4,0.6-0.6,0.9c-0.2-0.3-0.4-0.6-0.5-0.9c-0.1-0.2,0-0.4,0-0.5c-0.1-0.3-0.3-0.5-0.5-0.7
		c-0.1,0.2-0.3,0.5-0.4,0.7c-0.2,0.5,0.4,1.4-0.5,1.4s-0.4-0.9-0.6-1.4c-0.1-0.2-0.2-0.5-0.4-0.7c-0.2,0.2-0.3,0.5-0.5,0.7v0.1
		c-0.2,0.4,0.4,1.3-0.6,1.2c-0.2,0-0.3-0.8-0.5-1.2c-0.1-0.3-0.3-0.6-0.5-0.9c-0.2,0.3-0.3,0.6-0.5,0.9c0,0.1,0,0.2,0,0.2
		c-0.1,0.4-0.3,0.7-0.4,1.1c-0.2-0.4-0.4-0.7-0.5-1.1c-0.1-0.2,0-0.4,0-0.5c-0.1-0.2-0.3-0.3-0.5-0.5c-0.1,0.2-0.3,0.3-0.4,0.5
		c-0.1,0.3,0,0.6,0,0.9c0,0.7-0.3,0.9-1,0.7c0-2.7-0.1-5.4,0.1-8.1c0-0.7,0.7-1.4,1.2-2.1c0.2-0.4,0.5-0.8,0.8-1.3
		c-0.7,0-1.3-0.1-2.3-0.1C171.5,64.3,173,61.9,174.6,59.5z M176.5,72.2c-0.3-0.8-0.5-1.7-0.9-2.4c-0.5-0.9-1.5-0.8-2.1,0
		c-0.9,1.2-0.9,3.6,0,4.8c0.6,0.9,1.6,0.9,2.1-0.1C176.1,73.8,176.2,73,176.5,72.2z"/>
	<path class="st0" d="M145.5,73.1c0,0.6-0.1,1.2,0,1.8c0.2,1.5,0.2,3,0.6,4.4c1.9,6.7,1.7,13.6,1.6,20.4c0,0.3-0.2,0.5-0.4,0.8
		c-0.1-0.3-0.3-0.5-0.4-0.8c-0.2-0.3-0.4-0.5-0.6-0.8c-0.2,0.3-0.4,0.5-0.5,0.8s0,0.6,0,0.9c0,1.3,0,1.3,1.2,2.1c-1.4,0-2.6,0-3.6,0
		c-0.1-0.5-0.3-1-0.3-1.5c-0.1-1,0-2,0-3c0-3.4-0.2-6.7,0.1-10.1c0.2-2.4,0.8-4.8,1.3-7.2c0.4-2.3,1.1-4.5,0.7-6.9
		C145.1,73.7,145.4,73.3,145.5,73.1C145.4,73.1,145.4,73.1,145.5,73.1z M145.1,102.2c0-0.7,0-1.2,0-1.7c0-0.6,0.3-1.4-0.6-1.5
		c-0.2,0-0.5,1-0.6,1.5c-0.1,0.6,0,1.1,0.1,1.8C144.3,102.2,144.6,102.2,145.1,102.2z M145.5,84.9c-0.1,0-0.2,0-0.4,0
		c0,0.6,0,1.2,0,2.1C146.1,86.1,146.1,85.5,145.5,84.9z"/>
	<path class="st0" d="M208,102.8c-1.2,0-2.3,0-3.4,0c1.5-0.7,0.8-2.1,0.9-3.2c0-0.2-0.4-0.5-0.6-0.8c-0.2,0.2-0.4,0.5-0.6,0.7
		c-0.2,0.3-0.3,0.6-0.4,0.9c-0.1-0.3-0.4-0.7-0.4-1c0-3.9-0.1-7.8,0-11.7c0.1-1.8,0.7-3.6,1-5.4c0.4-2.3,0.8-4.7,1.2-7.1
		c0.1-0.7,0-1.4,0.3-2.2c0,0.7-0.1,1.4,0,2.1c0.3,2.4,0.6,4.8,1.2,7.1c0.9,3.5,1.2,7.1,1.1,10.7c-0.1,2.2,0,4.5,0,6.7
		c0,0.7-0.3,1.3-0.4,2C207.8,102.1,208,102.4,208,102.8z M206.2,102.1c0.8,0.3,1.2,0.1,1.2-0.7c0-0.6,0.1-1.1,0-1.6
		c-0.1-0.3-0.4-0.6-0.6-0.9c-0.2,0.3-0.5,0.5-0.5,0.8C206.2,100.5,206.2,101.3,206.2,102.1z M205.6,86.7c0.2,0,0.3,0,0.5,0
		c0-0.6,0-1.2,0-1.8c-0.2,0-0.3,0-0.5,0C205.6,85.5,205.6,86.1,205.6,86.7z"/>
	<path class="st0" d="M25.9,71C25.9,71,25.8,71,25.9,71c-0.5,0.7-0.9,1.3-1.6,2.3c0-1.1,0-1.8,0-2.6c0-2.6,0-5.2,0-7.9
		c0-0.5,0.4-0.9,0.6-1.4c0.2,0.4,0.4,0.8,0.6,1.1c0,0.1,0.1,0.2,0.2,0.3c0.3-0.7,0.6-1.4,0.9-2.1c0.2,0,0.3,0,0.5,0
		c0.3,0.6,0.5,1.2,0.8,1.7c0.2-0.4,0.4-1,0.7-1.6c0.2,0,0.3,0,0.5,0c0.3,0.6,0.6,1.2,0.7,1.6c0.2-0.4,0.4-1,0.7-1.6
		c0.2,0,0.3,0,0.5,0c0.3,0.6,0.6,1.1,0.8,1.6c0.2-0.4,0.4-1,0.6-1.5c0.1,0,0.3,0,0.4,0c0.2,0.4,0.7,0.7,0.7,1.1
		c0.1,3.5,0.1,6.9,0.1,10.4c0,0.1-0.1,0.1-0.2,0.3c-0.7-1.2-1.3-2.3-1.9-3.5l0,0c-0.6-0.6-0.7,0-0.9,0.3c-0.5,0.8-0.9,1.6-1.5,2.6
		c-0.3-0.7-0.5-1.1-0.8-1.5c-0.4-0.6-0.8-1.1-1.2-1.6C26.7,69.6,26.3,70.3,25.9,71C25.8,70.8,25.9,70.9,25.9,71z"/>
	<path class="st0" d="M46.9,84.8C46.9,84.8,46.9,84.9,46.9,84.8c-2.6-2.8-7.1-2.7-9.7,3.5C37.1,88,37,87.8,37,87.6
		c0-2.7,0-5.4,0-8.1c0-0.8,0.2-1.1,1-1.1c3.4,0,6.9,0,10.3,0c0.7,0,1,0.2,1,0.9c0,3.1,0,6.2,0,9.3C48.5,87.3,47.7,86.1,46.9,84.8z"
		/>
	<path class="st0" d="M201.7,94.2c-0.5-1.4-1.8-0.8-2.7-1.1c-0.2-0.1-0.4-0.6-0.4-0.9c-0.2-3.1,0.2-6.1,0.9-9.1
		c0.6-2.6,0.9-5.2,1.4-7.8c0.1-0.7,0-1.3,0-2c0.1,0,0.2,0,0.3,0c0,0.6-0.1,1.2,0,1.7c0.2,1.9,0.3,3.8,0.8,5.7
		c1.4,5.2,1.5,10.5,1.4,15.9c0,2.1,0,4.1,0,6.2c-1,0-1.8,0-2.9,0c0.2-0.8,0.3-1.5,0.5-2.2c0.1,0,0.2,0,0.3,0c0.1,0.5,0.1,1,0.2,1.5
		c0.6,0.2,1.1,0.2,1.1-0.7c0-0.5,0-1,0-1.4c0-0.8-0.2-1.3-1.2-1.1C201.6,97.3,200.7,95.6,201.7,94.2z M200.7,87c0.9-1,0.9-1.4,0-2.2
		C200.7,85.5,200.7,86.1,200.7,87z"/>
	<path class="st0" d="M150.4,73.2c0,0.7-0.1,1.4,0,2.1c0.3,2.1,0.6,4.2,1,6.3c0.7,3.4,1.5,6.8,1.2,10.3c0,0.4,0,0.8,0,1.4
		c-1.1,0-2,0-3,0c-0.6,0-0.8,0.2-0.8,0.8c0,2.4-0.1,4.8-0.1,7.2c0,0.5,0.3,0.9,0.6,1.5c-0.3,0-0.7,0.1-1.3,0.2c0-4,0.1-7.9,0-11.8
		c-0.2-3.7,0.7-7.2,1.4-10.7c0.3-1.7,0.6-3.5,0.8-5.2c0.1-0.7,0-1.3,0-2C150.3,73.2,150.3,73.2,150.4,73.2z M150,86.7
		c0.1,0,0.3,0,0.4,0c0.5-0.6,0.6-1.2-0.4-2.1C150,85.5,150,86.1,150,86.7z"/>
	<path class="st0" d="M147.9,58.4c0,0.6-0.1,1.2-0.1,1.8c0.1,1.5,0.2,2.9,0.5,4.4c0.8,4.4,1.3,8.8,1,13.3c-0.2,2.7-0.7,5.3-1.1,7.9
		c-0.1,0-0.2,0-0.4,0c-0.1-0.5-0.2-0.9-0.4-1.4c-1.2-4.2-1.6-8.5-1.2-12.8c0.2-3,0.9-5.9,1.2-8.9c0.1-1.1,0-2.3,0-3.4
		c0-0.4,0.1-0.7,0.2-1.1C147.7,58.4,147.8,58.4,147.9,58.4z M147.4,69.7c0,1.8,0,3.5,0,5.3C148.1,74.3,148.1,70.4,147.4,69.7z"/>
	<path class="st0" d="M198.3,93.1c-0.9,0-1.7,0-2.4,0c0-0.1,0-0.2,0-0.3c0.5-0.1,1-0.2,1.7-0.3c0-1,0-1.9,0-2.9c0-9.1,0-18.2,0-27.3
		c0-0.5,0.1-1.3,0.3-1.3c0.7-0.2,1.5-0.1,2.3,0c0.1,0,0.2,0.6,0.2,1c-0.4,2.8-0.8,5.7-1.3,8.5c-0.1,0.5-0.1,1-0.1,1.5
		c0,3.6,0,7.3,0,10.9c0,0.8-0.2,1.5-0.2,2.3c-0.2,2-0.3,3.9-0.4,5.9C198.2,91.8,198.3,92.4,198.3,93.1z"/>
	<path class="st0" d="M203.1,86c-0.2-1.5-0.5-3-0.6-4.6c-0.1-3.2-0.2-6.5,0.1-9.7c0.2-3,0.8-5.9,1.2-8.9c0.1-1.1,0-2.3,0.1-3.4
		c0-0.4,0.1-0.8,0.4-1.1c0,0.8-0.1,1.5,0,2.3c0.4,3.1,0.8,6.1,1.2,9.2c0.2,1.4,0.4,2.8-0.3,4.1c-0.1,0.1-0.1,0.3,0,0.4
		c0.7,1.3,0.3,2.6,0,3.9c-0.5,2.6-1.1,5.2-1.7,7.9C203.4,86,203.3,86,203.1,86z M204.3,69.8c-0.2,0-0.3,0-0.5,0c0,1.7,0,3.4,0,5.1
		c0.2,0,0.3,0,0.5,0C204.4,73.2,204.3,71.5,204.3,69.8z"/>
	<path class="st0" d="M152.5,85.8c-0.6-3.2-1.2-6.4-1.7-9.5c-0.1-0.4,0.3-1,0.5-1.4c0.3-0.5,0.2-4.6-0.5-5.2c0,0.7,0,1.3,0,2
		s-0.2,1-1.2,0.7c0.1-1.2,0.3-2.4,0.4-3.6c0.3-2.8,0.7-5.6,1-8.4c0.1-0.7,0-1.4,0.3-2.2c0.1,0.3,0.2,0.6,0.2,0.9
		c-0.4,3.7,0.7,7.2,1.1,10.7c0.1,1.4,0.2,2.9,0.2,4.3c0,3.9,0,7.7,0,11.6C152.7,85.8,152.6,85.8,152.5,85.8z"/>
	<path class="st0" d="M19.8,73.5c0-2.8,0-5.5,0-8.3c1.4,0,2.7,0,4.1,0c0,2.8,0,5.5,0,8.3C22.6,73.5,21.2,73.5,19.8,73.5z"/>
	<path class="st0" d="M19.8,80.3c1.3,0,2.5,0,3.7,0c0.2,0,0.6,0.4,0.6,0.7c0,2.4,0,4.7,0,7.1c0,0.2-0.4,0.5-0.6,0.7h-0.1
		c-3.5,0.3-3.5,0.3-3.5-3.2C19.8,83.9,19.8,82.2,19.8,80.3z"/>
	<path class="st0" d="M200.9,58.3c0,0.7-0.1,1.3,0,2c0.3,2.7,0.7,5.3,0.9,8c0.3,3.9,0.4,7.8,0.4,11.7c-0.5-1.9-1.5-3.7-0.5-5.7
		c0.1-0.2-0.3-0.6-0.4-0.9c-0.2-0.9-0.3-1.8-0.4-2.7c-0.1-0.3-0.1-0.6-0.2-1c-0.1,0-0.2,0-0.4,0c0,0.4-0.1,0.8-0.1,1.2
		c-0.1,1-0.2,2-0.2,3.1c0,0.4,0.4,0.8,0.3,1.2c-0.2,2.2-0.6,4.4-1,6.6C198.2,73.8,200.4,66.2,200.9,58.3z"/>
	<path class="st0" d="M41.4,103.6c-1.9,0.7-3.1,2.1-4.4,3.7c0-1.6,0-3.1,0-4.7c0-0.2,0.4-0.5,0.6-0.5c3.9,0,7.7,0,11.7,0
		c0,1.8,0,3.4,0,5.4c-0.4-0.5-0.6-0.8-0.8-1c-1.3-1.7-3-2.9-4.9-3.6C43,102.7,42.1,103.4,41.4,103.6
		C41.3,103.7,41.4,103.6,41.4,103.6z"/>
	<path class="st0" d="M179,60.5c-3-3.4-6.4-2.9-8.8-0.1c0-1.6,0-3.1,0-4.5c0-0.2,0.5-0.5,0.7-0.5c2.4,0,4.9,0,7.3,0
		c0.3,0,0.7,0.3,0.7,0.5C179,57.4,179,58.8,179,60.5z"/>
	<path class="st0" d="M49.6,88.8c0-2.7,0-5.3,0-7.8c0-0.2,0.4-0.6,0.6-0.6c0.9-0.1,1.9,0,2.8,0c0,2.5-0.1,4.8,0,7.2
		c0,1.1-0.3,1.4-1.3,1.3C51.1,88.7,50.4,88.8,49.6,88.8z"/>
	<path class="st0" d="M19.8,80c0-2.1,0-4.1,0-6.1c1.4,0,2.7,0,4.2,0c0,1.9,0,3.6,0,5.4c0,0.2-0.4,0.7-0.6,0.7
		C22.2,80,21.1,80,19.8,80z"/>
	<path class="st0" d="M42.3,100.9c0-2,0-3.9,0-5.9c0.1,0,0.2,0,0.3,0c0,1.9,0,3.9,0,5.8c1.3,0.5,1.4,0.4,1.4-0.8c0-1.3,0-2.7,0-4
		c0-0.3,0-0.7,0-1c0.1,0,0.2,0,0.4,0c0,2,0,3.9,0,6c0.5,0,0.9,0.1,1.4,0.1c0-2.1,0-4.1,0-6.1c0.1,0,0.2,0,0.4,0c0,2,0,3.9,0,6
		c0.5,0,0.9,0,1.4,0c0-2,0-4,0-6c0.1,0,0.2,0,0.3,0c0,2,0,3.9,0,5.7c0.6,0.4,0.9,0.7,1.3,1c-0.4,0.1-0.9,0.3-1.3,0.3
		c-3.2,0-6.5,0-9.7,0c-0.4,0-0.8-0.3-1.2-0.4c0.4-0.1,0.7-0.3,1.1-0.4c0.1,0,0.2,0,0.5-0.1c0-2,0-3.9,0-5.9c0.1,0,0.2,0,0.4,0
		c0,2,0,3.9,0,5.8c1.1,0.4,1.5,0.1,1.5-1c-0.1-1.6,0-3.3,0-4.9c0.1,0,0.2,0,0.3,0c0,0.5,0.1,0.9,0.1,1.4c0,1.2,0.1,2.4,0,3.5
		C40.9,100.9,41.2,101.2,42.3,100.9z"/>
	<path class="st0" d="M33.8,69.3c0-1.1,0-2.2,0-3.3c0-0.6,0.2-0.9,0.9-0.9c2.8,0,2.2-0.3,2.3,2.2c0,1.8,0,3.6,0,5.4
		c0,0.7-0.2,0.9-0.9,0.9c-2.3,0.1-2.3,0.1-2.3-2.2C33.8,70.7,33.8,70,33.8,69.3L33.8,69.3z"/>
	<path class="st0" d="M33.9,80.4c0.9,0,1.8,0,2.8,0c0,1.5,0,2.9,0,4.3c0,1,0,2.1,0,3.1c0,0.8-0.3,1.1-1,1c-0.6,0-1.2,0-1.8,0
		C33.9,85.9,33.9,83.2,33.9,80.4z"/>
	<path class="st0" d="M145.1,116.8c0-0.6,0-1.3,0-1.9c0-1.1,0.1-2.3,0-3.4c-0.2-2.5,0.2-4.8,1.7-6.9c0.4-0.6,0.2-1.5,0.3-2.3
		c0.1-0.4,0.2-0.9,0.5-1.3c0,0.6-0.1,1.2,0,1.8c0.1,0.7,0.2,1.4,0.5,2c0.5,1,1.4,1.9,0.1,3.1c-0.3,0.3-0.1,1.1-0.2,1.6
		c-0.2,0.7-0.4,1.3-0.6,2c-1-0.5-1.2-0.4-1.2,0.6c-0.1,1.5,0.3,3-0.5,4.4c-0.1,0.1-0.1,0.2-0.2,0.3
		C145.3,116.8,145.2,116.8,145.1,116.8z"/>
	<path class="st0" d="M66.7,81.6c0.1,0.3,0.2,0.5,0.2,0.8c0,1.8,0,3.7,0,5.5c0,0.7-0.3,0.9-0.9,0.9c-2.5,0.1-2.5,0.1-2.5-2.3
		c0-1.3,0-2.6,0-4c0-0.3,0.3-0.6,0.4-0.9c0.2,0.3,0.4,0.5,0.6,0.8c0.1,0.1,0.1,0.2,0.1,0.4c0.5,0,0.9,0,1.4,0
		c0.1-0.4,0.2-0.8,0.3-1.2C66.5,81.6,66.6,81.6,66.7,81.6z"/>
	<path class="st0" d="M63.6,89.1c1.1,0,2.1,0,3.2,0c0,1.9,0,3.8,0,5.7c0,0.2-0.4,0.4-0.6,0.4c-0.8,0.1-1.7,0-2.6,0
		C63.6,93.2,63.6,91.2,63.6,89.1z"/>
	<path class="st0" d="M33.9,73.9c1,0,2,0,3.1,0c-0.1,1.9-0.2,3.8-0.3,5.6c0,0.2-0.4,0.5-0.6,0.5c-0.7,0.1-1.4,0-2.3,0
		C33.9,77.9,33.9,75.9,33.9,73.9z"/>
	<path class="st0" d="M24,92.9c-1.3,0-2.5,0-3.7,0c-0.2,0-0.6-0.4-0.6-0.6c-0.1-1,0-2.1,0-3.2c1.3,0,2.5,0,3.7,0
		c0.2,0,0.5,0.5,0.5,0.7C24.1,90.7,24,91.7,24,92.9z"/>
	<path class="st0" d="M151,61c-0.5,3.1-0.9,6-1.3,8.9c-0.1,0-0.2,0-0.3,0c-0.4-2.7-0.8-5.4-1.2-8.1c0-0.2,0.4-0.7,0.7-0.7
		C149.4,61,150.1,61,151,61z"/>
	<path class="st0" d="M35.4,58.3c0.1,0.6,0.3,1.1,0.4,1.7c0.2,0.5,0.1,1.2,0.9,1.3c0.2,0,0.2,0.8,0.2,1.2c0,2.5,0.6,2.3-2.4,2.3
		c-0.2,0-0.4,0-0.7-0.1c0.2-1.3-0.5-2.5,0.5-3.8c0.5-0.6,0.5-1.7,0.7-2.6C35.2,58.3,35.3,58.3,35.4,58.3z"/>
	<path class="st0" d="M23.9,64.7c-0.3,0-0.5,0.1-0.7,0.1c-2.2,0-2.8-0.7-2.2-2.9c0.1-0.5,0.7-1,0.9-1.5c0.3-0.7,0.5-1.4,0.8-2.2
		C23.2,60.4,24.6,62.3,23.9,64.7z"/>
	<path class="st0" d="M202.3,69.3c-0.4-2.5-0.8-5-1.1-7.6c-0.1-0.7,0.2-0.9,0.9-0.9c1.8,0,1.8-0.1,1.6,1.7c-0.3,2-0.6,4.1-0.9,6.1
		c0,0.2-0.1,0.4-0.2,0.7C202.4,69.3,202.4,69.3,202.3,69.3z"/>
	<path class="st0" d="M52.9,92.8c-1.1,0-2.2,0-3.3,0c0-1.1,0-2.1,0-3.1c0-0.2,0.4-0.6,0.7-0.6c0.8-0.1,1.7,0,2.6,0
		C52.9,90.3,52.9,91.5,52.9,92.8z"/>
	<path class="st0" d="M8.7,101.4c0.9,0.1,1.7,0.2,2.6,0.2c2.5,0,5.1,0,7.6,0.1c0.3,0,0.6,0.4,0.8,0.5c-0.3,0.2-0.5,0.5-0.8,0.5
		c-3,0-6,0.1-9.1,0c-0.5,0-0.9-0.5-1.4-0.8C8.5,101.7,8.6,101.5,8.7,101.4z"/>
	<path class="st0" d="M19.6,93.2c0.7,0,1.1,0,1.5,0c0.9,0,1.8,0,3,0c-0.1,0.9-0.1,2.4-0.3,2.4c-1.2,0.2-2.6,0.2-3.8,0
		C19.8,95.6,19.8,94.2,19.6,93.2z"/>
	<path class="st0" d="M36.7,92.7c-0.2,0.1-0.3,0.2-0.4,0.2c-2.6,0.3-2.6,0.3-2.5-2.3c0-0.5,0-0.9,0-1.4c0.2-0.1,0.3-0.2,0.4-0.2
		c2.5-0.2,2.5-0.2,2.5,2.3C36.7,91.8,36.7,92.2,36.7,92.7z"/>
	<path class="st0" d="M19.6,100.1c0,0.4,0,0.8,0,1.2c-2-0.1-3.9-0.2-5.8-0.3v0.1c-0.2,0-0.4-0.1-0.5-0.1c-0.3,0-0.7,0.3-1,0.2
		c-0.6-0.3-1,0.4-1.4,0.2c-0.3-0.1-0.4-0.5-0.6-0.7c0.2-0.2,0.5-0.5,0.7-0.5c1.7,0,3.5,0,5.2,0C17.3,100.1,18.5,100.1,19.6,100.1
		C19.7,100.1,19.6,100.1,19.6,100.1z"/>
	<path class="st0" d="M143.7,105.4c-0.2-0.7-0.5-1.3-0.7-2.1c1.4,0,2.6,0,4.2,0c-0.8,1.4-1.4,2.7-2.1,4
		C144.5,106.5,144.1,105.9,143.7,105.4C143.7,105.3,143.7,105.4,143.7,105.4z"/>
	<path class="st0" d="M52.7,93.2c0.1,0.2,0.2,0.2,0.2,0.2c0.4,2.3,0.3,2.4-2.1,2.4c-0.4,0-0.7,0-1-0.1c-0.1-0.1-0.2-0.2-0.2-0.2
		c-0.3-2.3-0.3-2.3,1.9-2.3C52,93.2,52.4,93.2,52.7,93.2z"/>
	<path class="st0" d="M38.2,100.7c-1,0.3-1.3,0-1.3-0.9c0-1.3,0-2.6,0-4c0-0.9,0.3-1.2,1.3-0.9C38.2,96.8,38.2,98.7,38.2,100.7z"/>
	<path class="st0" d="M36.9,78.1c1-0.7,11.1-0.6,11.9,0C44.8,78.1,41,78.1,36.9,78.1z"/>
	<path class="st0" d="M36.7,95.7c-1,0-1.8,0-2.8,0c0-0.8,0-1.6,0-2.5c0.9,0,1.8,0,2.8,0C36.7,94.1,36.7,94.8,36.7,95.7z"/>
	<path class="st0" d="M49.3,97.9c0,0.8,0,1.5,0,2.3c0,0.2-0.3,0.4-0.4,0.6c-0.2-0.2-0.5-0.4-0.5-0.7c0-1.5,0-3,0-4.5
		c0-0.3,0.3-0.5,0.5-0.8c0.2,0.3,0.4,0.5,0.5,0.8C49.4,96.4,49.3,97.1,49.3,97.9L49.3,97.9z"/>
	<ellipse class="st0" cx="58.2" cy="81" rx="6.8" ry="0.2"/>
	<path class="st0" d="M53.2,78.4c0,0.6,0,1,0,1.5c-1.1,0-2.3,0-3.4,0c-0.3-1.4-0.3-1.5,1-1.5C51.5,78.4,52.3,78.4,53.2,78.4z"/>
	<path class="st0" d="M47.4,97.8c0,0.8,0,1.5,0,2.3c0,0.2-0.3,0.4-0.4,0.6c-0.1-0.2-0.4-0.4-0.4-0.5c0-1.6,0-3.2,0-4.9
		c0-0.2,0.3-0.4,0.4-0.5c0.1,0.2,0.4,0.4,0.4,0.6C47.4,96.2,47.4,97,47.4,97.8L47.4,97.8z"/>
	<path class="st0" d="M44.7,97.9c0-0.8,0-1.6,0-2.4c0-0.2,0.2-0.4,0.3-0.6c0.2,0.2,0.5,0.4,0.5,0.6c0,1.6,0,3.2,0,4.8
		c0,0.2-0.3,0.4-0.5,0.6c-0.1-0.2-0.4-0.4-0.4-0.6C44.7,99.4,44.7,98.6,44.7,97.9L44.7,97.9z"/>
	<path class="st0" d="M42.9,97.8c0-0.8,0-1.5,0-2.3c0-0.2,0.2-0.4,0.4-0.7c0.2,0.2,0.4,0.4,0.4,0.6c0,1.6,0,3.2,0,4.7
		c0,0.2-0.3,0.4-0.4,0.6c-0.1-0.2-0.4-0.4-0.4-0.7C42.9,99.3,42.9,98.6,42.9,97.8z"/>
	<path class="st0" d="M42,97.8c0,0.8,0,1.6,0,2.3c0,0.2-0.3,0.4-0.4,0.6c-0.1-0.2-0.3-0.4-0.3-0.6c0-1.6,0-3.2,0-4.8
		c0-0.2,0.2-0.4,0.3-0.6c0.1,0.2,0.4,0.3,0.4,0.5C42,96.2,41.9,97,42,97.8L42,97.8z"/>
	<path class="st0" d="M152.6,67.8c-0.3-2.2-0.6-4.4-1-6.6c0.8-0.3,1.2-0.2,1.2,0.6c0,2,0,4,0,5.9C152.8,67.8,152.7,67.8,152.6,67.8z
		"/>
	<path class="st0" d="M40.1,97.8c0,0.8,0,1.6,0,2.4c0,0.2-0.2,0.4-0.4,0.6c-0.1-0.2-0.4-0.4-0.4-0.6c0-1.6,0-3.2,0-4.8
		c0-0.2,0.3-0.3,0.4-0.5c0.1,0.2,0.3,0.3,0.3,0.5C40.2,96.2,40.1,97,40.1,97.8z"/>
	<path class="st0" d="M147.9,103.1c0.5,0.1,1.4,0,1.4,0.2c0.1,0.7,0.1,1.5,0.1,2.3c-0.2,0-0.3,0.1-0.5,0.1c-0.4-0.8-0.8-1.5-1.2-2.3
		C147.8,103.4,147.8,103.2,147.9,103.1z"/>
	<path class="st0" d="M49.3,77.7c1.5,0,2.9,0,4.5,0C52.9,78.4,49.9,78.3,49.3,77.7z"/>
	<path class="st0" d="M66.7,81.1c-1,0-2.1,0-3.1,0c0-0.1,0-0.2,0-0.3c1.1,0,2.1,0,3.2,0C66.7,80.9,66.7,81,66.7,81.1z"/>
	<path class="st0" d="M68.3,81.6c-0.4-0.2-0.8-0.4-1.2-0.6c0-0.1,0-0.2,0-0.2c0.6,0,1.2,0,2,0C68.8,81.1,68.5,81.3,68.3,81.6
		C68.2,81.5,68.3,81.6,68.3,81.6z"/>
	<path class="st0" d="M32.2,80.9C32,81.1,32,81.1,32,81.1c-2.4,0.3-2.5,0.3-2.4-2.1c0-1.1,0-2.1,0.1-3.2c0-0.8,0.4-1.5,1.3-1.5
		s1.3,0.7,1.3,1.5C32.2,77.5,32.2,79.3,32.2,80.9z"/>
	<path class="st0" d="M28.5,81.1c-0.9,0-1.7,0-2.6,0c0-1.9-0.1-3.8,0.1-5.7c0-0.4,0.7-1,1.1-1.1c0.4,0,1.1,0.5,1.3,0.9
		c0.2,0.5,0.2,1.2,0.2,1.8C28.5,78.4,28.5,79.7,28.5,81.1z"/>
	<path class="st0" d="M25.9,71c0-0.1,0-0.2,0-0.2c0.4-0.6,0.8-1.3,1.2-1.9c0.4,0.5,0.9,1.1,1.2,1.6c0.3,0.4,0.4,0.9,0.8,1.5
		c0.6-1,1-1.8,1.5-2.6c0.2-0.3,0.4-0.9,0.9-0.3c-0.3,0.3-0.7,0.5-0.9,0.8c-0.5,0.8-0.9,1.7-1.5,2.8c-0.6-1.3-1.2-2.4-1.9-3.7
		C26.7,69.8,26.3,70.4,25.9,71z"/>
	<path class="st0" d="M27.7,96.3c-0.8,0-1.5,0-2.2,0c0-1.5-0.1-2.9,0.1-4.3c0-0.3,0.7-0.9,1.1-0.9s1,0.6,1,1
		C27.7,93.5,27.7,94.8,27.7,96.3z"/>
	<path class="st0" d="M32.3,96.3c-0.8,0-1.4,0-2.2,0c0-1.4-0.1-2.8,0.1-4.2c0-0.4,0.7-1,1-1c0.4,0.1,1,0.6,1.1,1.1
		C32.4,93.5,32.3,94.8,32.3,96.3z"/>
	<path class="st0" d="M56.9,91c0.1,1.8,0.2,3.5,0.2,5.3c0,0.2-0.4,0.5-0.6,0.5c-0.7,0.1-1.4,0-2.2,0c0-1.7-0.1-3.4,0-5
		C54.4,90.8,55.4,90.5,56.9,91L56.9,91z M56.9,96.3c0-1.5,0.1-2.8,0-4.2c0-0.4-0.7-1-1-1c-0.4,0-1.1,0.5-1.1,0.9
		c-0.1,1.4-0.1,2.8-0.1,4.3C55.4,96.3,56,96.3,56.9,96.3z"/>
	<path class="st0" d="M62.2,91.5c0,1.5,0,2.9,0,4.4c0,0.7-0.2,0.9-0.9,0.9c-2.2,0.1-2.2,0.1-2.2-2.1c0-0.6,0-1.1,0-1.7
		c0-0.9,0.1-1.7,1-2.2C61.1,90.4,61.6,91.1,62.2,91.5C62.3,91.5,62.2,91.5,62.2,91.5z M59.6,96.3c0.4,0,0.7,0,0.9,0.1
		c1,0.2,1.5-0.2,1.4-1.3c-0.1-0.9,0.1-1.9-0.1-2.8c-0.1-0.5-0.6-1.1-1-1.2c-0.7-0.2-1.2,0.4-1.2,1.1C59.5,93.5,59.6,94.9,59.6,96.3z
		"/>
	<path class="st0" d="M29.9,87.5c-0.2,0-0.5,0.1-0.6,0.1c-0.4-0.2-0.9-0.4-1-0.7c-0.1-0.3,0.1-0.9,0.3-1.1c0.3-0.2,1-0.2,1.3,0
		s0.3,0.8,0.3,1.2C30.1,87.1,29.9,87.3,29.9,87.5C29.8,87.5,29.9,87.5,29.9,87.5z"/>
	<path class="st0" d="M182.6,64.6c0-1.4,0-2.7,0-4.1c0-0.3,0.3-0.6,0.5-0.8c0.1,0.3,0.4,0.5,0.4,0.8c0,2.7,0,5.3,0,8
		c0,0.3-0.3,0.6-0.4,0.9c-0.2-0.3-0.4-0.6-0.4-0.9C182.5,67.1,182.6,65.8,182.6,64.6z"/>
	<path class="st0" d="M185.4,60.5c0.1,0.3,0.2,0.6,0.2,1c0,2.6,0,5.2,0,7.8c0,0.3-0.3,0.5-0.4,0.8c-0.1-0.3-0.4-0.5-0.4-0.8
		c0-2.7,0-5.3,0-8c0-0.3,0.2-0.6,0.3-0.9C185.2,60.5,185.3,60.5,185.4,60.5z"/>
	<path class="st0" d="M187,66.3c0-1.3,0-2.6,0-4c0-0.3,0.3-0.6,0.4-0.8c0.1,0.3,0.4,0.5,0.4,0.8c0,2.7,0,5.4,0,8.1
		c0,0.3-0.2,0.5-0.4,0.8c-0.1-0.3-0.4-0.5-0.4-0.8C187,68.9,187,67.6,187,66.3L187,66.3z"/>
	<path class="st0" d="M181.3,63.5c0,1.4,0,2.7,0,4.1c0,0.3-0.3,0.5-0.4,0.8c-0.2-0.3-0.4-0.5-0.4-0.8c0-2.6,0-5.3,0-7.9
		c0-0.3,0.2-0.6,0.4-0.9c0.2,0.3,0.4,0.6,0.4,0.9C181.3,60.9,181.2,62.2,181.3,63.5C181.2,63.5,181.2,63.5,181.3,63.5z"/>
	<ellipse class="st0" cx="184" cy="32.8" rx="0.2" ry="2.3"/>
	<path class="st0" d="M186.1,31.1c0,1.1,0,2.2,0,3.4c-0.1,0-0.2,0-0.3,0c0-1.1,0-2.2,0-3.4C185.9,31.1,186,31.1,186.1,31.1z"/>
	<path class="st0" d="M182.1,31.2c0,1.1,0,2.2,0,3.3c-0.1,0-0.2,0-0.3,0c0-1.1,0-2.2,0-3.3C182,31.2,182.1,31.2,182.1,31.2z"/>
	<path class="st0" d="M191.7,63.6c0.1,0.3,0.2,0.7,0.2,1c0,2.6,0,5.2,0,7.8c0,0.3-0.3,0.6-0.4,0.9c-0.2-0.3-0.5-0.6-0.5-0.9
		c0-2.6,0-5.2,0-7.7c0-0.4,0.2-0.7,0.3-1.1C191.4,63.6,191.5,63.6,191.7,63.6z"/>
	<path class="st0" d="M193.8,64.5c0.1,0.3,0.2,0.7,0.2,1c0,2.6,0,5.2,0,7.8c0,0.3-0.3,0.6-0.4,0.8c-0.1-0.3-0.4-0.6-0.4-0.9
		c0-2.6,0-5.3,0-7.9c0-0.3,0.1-0.6,0.2-0.9C193.6,64.5,193.7,64.5,193.8,64.5z"/>
	<path class="st0" d="M196.2,70.3c0,1.4,0,2.7,0,4.1c0,0.2-0.3,0.5-0.4,0.7c-0.1-0.3-0.4-0.5-0.4-0.8c0-2.7,0-5.4,0-8.2
		c0-0.2,0.2-0.5,0.4-0.7c0.2,0.2,0.4,0.5,0.4,0.7C196.3,67.6,196.2,68.9,196.2,70.3L196.2,70.3z"/>
	<path class="st0" d="M192.6,35.2c0,1.1,0,2.2,0,3.3c-0.1,0-0.2,0-0.3,0c0-1.1,0-2.2,0-3.3C192.4,35.2,192.5,35.2,192.6,35.2z"/>
	<path class="st0" d="M194.5,35.2c0,1.1,0,2.2,0,3.3c-0.1,0-0.2,0-0.3,0c0-1.1,0-2.2,0-3.3C194.3,35.2,194.4,35.2,194.5,35.2z"/>
	<path class="st0" d="M190.6,35.2c0,1.1,0,2.2,0,3.3c-0.1,0-0.2,0-0.3,0c0-1.1,0-2.2,0-3.3C190.4,35.2,190.5,35.2,190.6,35.2z"/>
	<path class="st0" d="M164.6,60.5c0,0.3,0.1,0.7,0.1,1c0,2.6,0,5.2,0,7.7c0,0.3-0.2,0.6-0.4,0.9c-0.1-0.3-0.4-0.6-0.4-0.9
		c0-2.6,0-5.2,0-7.8c0-0.3,0.1-0.6,0.2-0.9C164.3,60.5,164.4,60.5,164.6,60.5z"/>
	<path class="st0" d="M166.6,59.6c0.1,0.3,0.2,0.7,0.2,1c0,2.6,0,5.2,0,7.8c0,0.3-0.2,0.6-0.4,0.9c-0.2-0.3-0.4-0.6-0.4-0.8
		c0-2.6,0-5.2,0-7.9c0-0.3,0.1-0.6,0.2-1C166.3,59.6,166.4,59.6,166.6,59.6z"/>
	<path class="st0" d="M168.6,58.7c0.1,0.4,0.2,0.7,0.2,1.1c0,2.5,0,5.1,0,7.6c0,0.3-0.2,0.6-0.3,0.9c-0.1-0.3-0.4-0.6-0.4-0.9
		c0-2.5,0-5.1,0-7.6c0-0.4,0.1-0.7,0.2-1.1C168.3,58.7,168.5,58.7,168.6,58.7z"/>
	<path class="st0" d="M162.5,61.4c0.1,0.3,0.2,0.6,0.2,0.9c0,2.7,0,5.4,0,8.1c0,0.2-0.3,0.5-0.4,0.7c-0.1-0.2-0.4-0.4-0.4-0.7
		c0-2.8,0-5.5,0-8.3c0-0.2,0.1-0.5,0.2-0.7C162.2,61.4,162.3,61.4,162.5,61.4z"/>
	<path class="st0" d="M167.4,31.2c0,1.1,0,2.2,0,3.3c-0.1,0-0.1,0-0.2,0c0-1.1,0-2.2,0-3.3C167.3,31.2,167.4,31.2,167.4,31.2z"/>
	<path class="st0" d="M163.5,34.4c0-1.1,0-2.2,0-3.2c0.1,0,0.2,0,0.2,0c0,1.1,0,2.2,0,3.2C163.7,34.4,163.6,34.4,163.5,34.4z"/>
	<path class="st0" d="M165.3,34.5c0-1.1,0-2.2,0-3.3c0.1,0,0.1,0,0.2,0c0,1.1,0,2.2,0,3.3C165.5,34.5,165.4,34.5,165.3,34.5z"/>
	<path class="st0" d="M154.8,70.4c0,1.4,0,2.7,0,4.1c0,0.2-0.2,0.4-0.4,0.7c-0.1-0.2-0.4-0.4-0.4-0.6c0-2.8,0-5.5,0-8.3
		c0-0.2,0.3-0.5,0.4-0.7c0.1,0.3,0.3,0.5,0.3,0.8C154.8,67.7,154.8,69,154.8,70.4L154.8,70.4z"/>
	<path class="st0" d="M156.6,64.5c0.1,0.3,0.2,0.7,0.2,1c0,2.6,0,5.2,0,7.7c0,0.3-0.2,0.6-0.3,0.9c-0.1-0.3-0.4-0.6-0.4-0.9
		c0-2.7,0-5.3,0-8c0-0.3,0.1-0.5,0.2-0.8C156.4,64.5,156.5,64.5,156.6,64.5z"/>
	<path class="st0" d="M158.7,63.7c0,0.3,0.1,0.5,0.1,0.8c0,2.6,0,5.2,0,7.8c0,0.3-0.3,0.6-0.4,0.9c-0.1-0.3-0.3-0.6-0.3-0.9
		c0-2.5,0-5.1,0-7.6c0-0.4,0.1-0.7,0.2-1.1C158.5,63.6,158.6,63.6,158.7,63.7z"/>
	<path class="st0" d="M157.5,38.5c0-1.1,0-2.2,0-3.3c0.1,0,0.2,0,0.2,0c0,1.1,0,2.2,0,3.3C157.6,38.5,157.6,38.5,157.5,38.5z"/>
	<path class="st0" d="M155.9,35.2c0,1.1,0,2.2,0,3.3c-0.1,0-0.2,0-0.3,0c0-1.1,0-2.2,0-3.3C155.7,35.2,155.8,35.2,155.9,35.2z"/>
	<path class="st0" d="M159.3,38.5c0-1.1,0-2.2,0-3.3c0.1,0,0.1,0,0.2,0c0,1.1,0,2.2,0,3.3C159.5,38.5,159.4,38.5,159.3,38.5z"/>
	<path class="st0" d="M47.1,93.7c0-0.7,0-1.4,0-2.1c0.1,0,0.2,0,0.3,0c0,0.7,0,1.4,0,2.1C47.3,93.7,47.2,93.7,47.1,93.7z"/>
	<path class="st0" d="M38.7,93.5c0-0.6,0-1.3,0-1.9c0.1,0,0.2,0,0.3,0c0,0.6,0,1.2,0,1.9C38.9,93.5,38.8,93.5,38.7,93.5z"/>
	<path class="st0" d="M44.4,88.2c-0.2,0.6-0.4,1.2-0.6,1.8c-0.1,0-0.2-0.1-0.3-0.1c0.1-0.7-0.1-1.4,0.5-1.9
		C44.2,88.1,44.3,88.2,44.4,88.2z"/>
	<path class="st0" d="M176.5,72.2c-0.3,0.8-0.5,1.7-0.9,2.3c-0.5,1-1.5,0.9-2.1,0.1c-0.9-1.2-0.9-3.6,0-4.8c0.6-0.8,1.5-0.9,2.1,0
		C176.1,70.5,176.2,71.3,176.5,72.2z"/>
	<path class="st0" d="M145.1,102.2c-0.5,0-0.7,0-1.1,0.1c0-0.6-0.1-1.2-0.1-1.8c0.1-0.5,0.4-1.5,0.6-1.5c0.9,0.1,0.6,0.9,0.6,1.5
		C145.1,101,145.1,101.5,145.1,102.2z"/>
	<path class="st0" d="M145.5,84.9c0.6,0.6,0.6,1.2-0.4,2.1c0-0.9,0-1.5,0-2.1C145.2,84.9,145.4,84.9,145.5,84.9z"/>
	<path class="st0" d="M206.2,102.1c0-0.8,0-1.6,0-2.4c0-0.3,0.3-0.6,0.5-0.8c0.2,0.3,0.5,0.5,0.6,0.9c0.1,0.5,0,1.1,0,1.6
		C207.4,102.2,207,102.4,206.2,102.1z"/>
	<path class="st0" d="M205.6,86.7c0-0.6,0-1.2,0-1.8c0.2,0,0.3,0,0.5,0c0,0.6,0,1.2,0,1.8C206,86.7,205.8,86.7,205.6,86.7z"/>
	<path class="st0" d="M200.7,87c0-0.9,0-1.5,0-2.2C201.6,85.6,201.6,86,200.7,87z"/>
	<path class="st0" d="M150,86.7c0-0.6,0-1.2,0-2.1c1,0.8,0.9,1.5,0.4,2.1C150.3,86.7,150.2,86.7,150,86.7z"/>
	<path class="st0" d="M147.4,69.7c0.7,0.7,0.7,4.6,0,5.3C147.4,73.2,147.4,71.5,147.4,69.7z"/>
	<path class="st0" d="M204.3,69.8c0,1.7,0.1,3.4,0,5.1c-0.2,0-0.3,0-0.5,0c0-1.7,0-3.4,0-5.1C204,69.8,204.1,69.8,204.3,69.8z"/>
	<path class="st0" d="M56.9,96.3c-0.8,0-1.5,0-2.3,0c0-1.5-0.1-2.9,0.1-4.3c0-0.4,0.7-0.9,1.1-0.9c0.4,0,1,0.6,1,1
		C57,93.5,56.9,94.8,56.9,96.3z"/>
	<path class="st0" d="M59.6,96.3c0-1.4,0-2.7,0-4.1c0-0.7,0.5-1.3,1.2-1.1c0.4,0.1,0.9,0.7,1,1.2c0.2,0.9,0,1.8,0.1,2.8
		c0.1,1.1-0.3,1.5-1.4,1.3C60.2,96.3,60,96.3,59.6,96.3z"/>
</g>
</svg>
