<?xml version="1.0" encoding="utf-8"?>
<!-- Generator: Adobe Illustrator 24.2.1, SVG Export Plug-In . SVG Version: 6.00 Build 0)  -->
<svg version="1.1" xmlns="http://www.w3.org/2000/svg" xmlns:xlink="http://www.w3.org/1999/xlink" x="0px" y="0px"
	 viewBox="0 0 199 46" style="enable-background:new 0 0 199 46;" xml:space="preserve">
<style type="text/css">
	.st0{fill:#9ACCE0;}
	.st1{fill:#136282;}
	.st2{fill:#40B0E5;}
	.st3{fill:none;stroke:#40B0E5;stroke-miterlimit:10;}
	.st4{font-family:'Webdings';}
	.st5{font-size:45.6049px;}
</style>
<g id="Layer_1">
	<g>
		<path class="st0" d="M92.3,11.8h4v5.2c-0.6,0.2-1.2,0.4-1.8,0.4s-1.1,0.1-1.7,0.1c-1.5,0-2.7-0.4-3.5-1.3s-1.2-2.2-1.2-3.8
			c0-1.6,0.5-2.9,1.4-3.8s2.2-1.4,3.8-1.4c1,0,2,0.2,3,0.6l-0.7,1.7C94.9,9.2,94.1,9,93.3,9c-0.9,0-1.6,0.3-2.2,0.9
			s-0.8,1.4-0.8,2.5c0,1.1,0.2,1.9,0.7,2.5s1.1,0.9,1.9,0.9c0.4,0,0.9,0,1.3-0.1v-2.1h-1.9V11.8z"/>
		<path class="st0" d="M104.8,17.4l-0.7-2.4h-3.6l-0.7,2.4h-2.3l3.5-10h2.6l3.5,10H104.8z M103.6,13.2c-0.7-2.2-1-3.4-1.1-3.7
			s-0.1-0.5-0.2-0.7c-0.2,0.6-0.6,2-1.3,4.3H103.6z"/>
		<path class="st0" d="M117.2,17.4h-2.7l-4.3-7.6h-0.1c0.1,1.3,0.1,2.3,0.1,2.9v4.7h-1.9v-10h2.7l4.3,7.5h0
			c-0.1-1.3-0.1-2.2-0.1-2.8V7.4h1.9V17.4z"/>
		<path class="st0" d="M125.5,17.4h-5.8v-10h5.8v1.7h-3.6v2.2h3.4V13h-3.4v2.6h3.6V17.4z"/>
		<path class="st0" d="M133.5,14.6c0,0.9-0.3,1.6-1,2.1s-1.6,0.8-2.7,0.8c-1.1,0-2-0.2-2.8-0.6v-2c0.7,0.3,1.2,0.5,1.7,0.6
			s0.9,0.2,1.3,0.2c0.5,0,0.8-0.1,1.1-0.3c0.2-0.2,0.4-0.4,0.4-0.8c0-0.2-0.1-0.4-0.2-0.5s-0.3-0.3-0.5-0.4s-0.6-0.4-1.3-0.7
			c-0.6-0.3-1.1-0.6-1.4-0.8s-0.5-0.6-0.7-0.9s-0.3-0.8-0.3-1.2c0-0.9,0.3-1.6,0.9-2.1s1.4-0.8,2.5-0.8c0.5,0,1,0.1,1.5,0.2
			s1,0.3,1.5,0.5l-0.7,1.6c-0.5-0.2-1-0.4-1.3-0.5s-0.7-0.1-1-0.1c-0.4,0-0.7,0.1-0.9,0.3s-0.3,0.4-0.3,0.7c0,0.2,0,0.3,0.1,0.5
			s0.2,0.3,0.4,0.4s0.6,0.4,1.3,0.7c0.9,0.4,1.6,0.9,1.9,1.3C133.3,13.4,133.5,13.9,133.5,14.6z"/>
		<path class="st0" d="M143.5,17.4h-2.1v-4.3h-4v4.3h-2.1v-10h2.1v3.9h4V7.4h2.1V17.4z"/>
		<path class="st0" d="M152.1,17.4l-0.7-2.4h-3.6l-0.7,2.4h-2.3l3.5-10h2.6l3.5,10H152.1z M150.9,13.2c-0.7-2.2-1-3.4-1.1-3.7
			c-0.1-0.3-0.1-0.5-0.2-0.7c-0.2,0.6-0.6,2-1.3,4.3H150.9z"/>
		<path class="st1" d="M59,35.4v-15h3.2v12.4h6.1v2.6H59z"/>
		<path class="st1" d="M80,35.4l-1.1-3.6h-5.5l-1.1,3.6H69l5.3-15.1h3.9l5.3,15.1H80z M78.2,29.1c-1-3.2-1.6-5.1-1.7-5.5
			c-0.1-0.4-0.2-0.8-0.3-1c-0.2,0.9-0.9,3-1.9,6.5H78.2z"/>
		<path class="st1" d="M98.6,35.4h-4L88.1,24H88c0.1,2,0.2,3.4,0.2,4.3v7.1h-2.8v-15h4l6.5,11.2h0.1c-0.1-1.9-0.2-3.3-0.2-4.1v-7.1
			h2.9V35.4z"/>
		<path class="st1" d="M108.1,26.9h5.9v7.8c-1,0.3-1.9,0.5-2.7,0.7c-0.9,0.1-1.7,0.2-2.6,0.2c-2.3,0-4-0.7-5.2-2
			c-1.2-1.3-1.8-3.2-1.8-5.7c0-2.4,0.7-4.3,2.1-5.7c1.4-1.4,3.3-2,5.8-2c1.5,0,3,0.3,4.5,0.9l-1.1,2.5c-1.1-0.5-2.2-0.8-3.4-0.8
			c-1.4,0-2.5,0.5-3.3,1.4c-0.8,0.9-1.2,2.2-1.2,3.7c0,1.6,0.3,2.9,1,3.7c0.7,0.9,1.6,1.3,2.9,1.3c0.7,0,1.3-0.1,2-0.2v-3.1h-2.8
			V26.9z"/>
		<path class="st2" d="M129.4,22.8c-1.2,0-2.1,0.4-2.8,1.3c-0.7,0.9-1,2.2-1,3.8c0,3.3,1.3,5,3.8,5c1.1,0,2.3-0.3,3.8-0.8v2.7
			c-1.2,0.5-2.6,0.8-4.1,0.8c-2.2,0-3.8-0.7-5-2c-1.2-1.3-1.7-3.2-1.7-5.7c0-1.6,0.3-2.9,0.9-4.1c0.6-1.2,1.4-2.1,2.4-2.7
			c1.1-0.6,2.3-0.9,3.7-0.9c1.5,0,2.9,0.4,4.4,1.1l-1,2.6c-0.6-0.3-1.1-0.5-1.7-0.7C130.5,22.9,130,22.8,129.4,22.8z"/>
		<path class="st2" d="M145.6,35.4l-1.1-3.6h-5.5l-1.1,3.6h-3.4l5.3-15.1h3.9l5.3,15.1H145.6z M143.8,29.1c-1-3.2-1.6-5.1-1.7-5.5
			c-0.1-0.4-0.2-0.8-0.3-1c-0.2,0.9-0.9,3-1.9,6.5H143.8z"/>
		<path class="st2" d="M154.1,29.6v5.8h-3.2v-15h4.4c2,0,3.5,0.4,4.5,1.1c1,0.7,1.5,1.9,1.5,3.4c0,0.9-0.2,1.7-0.7,2.4
			s-1.2,1.2-2.1,1.6l4.4,6.5h-3.5l-3.6-5.8H154.1z M154.1,27h1c1,0,1.7-0.2,2.2-0.5c0.5-0.3,0.7-0.9,0.7-1.6c0-0.7-0.2-1.2-0.7-1.5
			c-0.5-0.3-1.2-0.5-2.3-0.5h-1V27z"/>
		<path class="st2" d="M177.2,27.7c0,2.5-0.7,4.4-2.1,5.7c-1.4,1.3-3.4,2-6.1,2h-4.2v-15h4.7c2.4,0,4.3,0.6,5.7,1.9
			S177.2,25.4,177.2,27.7z M173.9,27.8c0-3.2-1.4-4.8-4.3-4.8H168v9.8h1.4C172.4,32.7,173.9,31.1,173.9,27.8z"/>
		<path class="st2" d="M189.2,31.2c0,1.4-0.5,2.4-1.5,3.2c-1,0.8-2.3,1.2-4.1,1.2c-1.6,0-3-0.3-4.2-0.9v-3c1,0.5,1.9,0.8,2.6,1
			c0.7,0.2,1.3,0.3,1.9,0.3c0.7,0,1.2-0.1,1.6-0.4c0.4-0.3,0.6-0.7,0.6-1.2c0-0.3-0.1-0.6-0.2-0.8s-0.4-0.4-0.7-0.7
			c-0.3-0.2-1-0.5-1.9-1c-0.9-0.4-1.6-0.8-2.1-1.2s-0.8-0.9-1.1-1.4s-0.4-1.1-0.4-1.8c0-1.3,0.4-2.4,1.3-3.1
			c0.9-0.8,2.1-1.1,3.7-1.1c0.8,0,1.5,0.1,2.2,0.3c0.7,0.2,1.4,0.4,2.2,0.8l-1,2.5c-0.8-0.3-1.5-0.6-2-0.7c-0.5-0.1-1-0.2-1.5-0.2
			c-0.6,0-1.1,0.1-1.4,0.4c-0.3,0.3-0.5,0.6-0.5,1.1c0,0.3,0.1,0.5,0.2,0.7c0.1,0.2,0.3,0.4,0.6,0.6c0.3,0.2,1,0.5,2,1.1
			c1.4,0.7,2.4,1.3,2.9,2S189.2,30.2,189.2,31.2z"/>
	</g>
</g>
<g id="Layer_2">
	<g>
		<text transform="matrix(1 0 0 1 6.9581 33.5561)" class="st3 st4 st5"></text>
	</g>
</g>
</svg>
