<?xml version="1.0" encoding="utf-8"?>
<!-- Generator: Adobe Illustrator 24.2.1, SVG Export Plug-In . SVG Version: 6.00 Build 0)  -->
<svg version="1.1" id="Layer_1" xmlns="http://www.w3.org/2000/svg" xmlns:xlink="http://www.w3.org/1999/xlink" x="0px" y="0px"
	 viewBox="0 0 152 167" style="enable-background:new 0 0 152 167;" xml:space="preserve">
<style type="text/css">
	.st0{fill:none;stroke:#fff;stroke-width:3;stroke-miterlimit:10;}
	.st1{fill:none;stroke:#fff;stroke-width:2;stroke-miterlimit:10;}
	.st2{fill:none;stroke:#fff;stroke-miterlimit:10;}
	.st3{fill:none;stroke:#fff;stroke-width:4;stroke-miterlimit:10;}
</style>
<polygon class="st0" points="40,67.3 42.5,67.3 125.8,67.3 82.9,11.1 "/>
<polygon class="st1" points="83.7,61 129.6,24.5 144.3,44 93.3,74.4 "/>
<line class="st2" x1="119.4" y1="32.6" x2="132.2" y2="51.3"/>
<line class="st2" x1="88.1" y1="67.1" x2="137" y2="34.2"/>
<line class="st2" x1="106.5" y1="42.9" x2="117.1" y2="60.3"/>
<line class="st2" x1="92.2" y1="54.3" x2="102.7" y2="67.1"/>
<polygon class="st1" points="59.1,65.4 22.5,19.4 42.1,4.7 72.4,55.7 "/>
<line class="st2" x1="30.6" y1="29.6" x2="49.3" y2="16.9"/>
<line class="st2" x1="65.2" y1="61" x2="32.3" y2="12.1"/>
<line class="st2" x1="40.9" y1="42.5" x2="58.3" y2="32"/>
<line class="st2" x1="52.3" y1="56.8" x2="65.2" y2="46.4"/>
<polygon class="st1" points="86.7,83.9 123.3,129.9 103.7,144.6 73.4,93.6 "/>
<line class="st2" x1="115.2" y1="119.7" x2="96.5" y2="132.4"/>
<line class="st2" x1="80.7" y1="88.3" x2="113.5" y2="137.2"/>
<line class="st2" x1="104.9" y1="106.8" x2="87.5" y2="117.3"/>
<line class="st2" x1="93.5" y1="92.5" x2="80.7" y2="102.9"/>
<polygon class="st1" points="65.3,88.5 19.4,125 4.7,105.5 55.7,75.1 "/>
<line class="st2" x1="29.6" y1="116.9" x2="16.8" y2="98.2"/>
<line class="st2" x1="60.9" y1="82.4" x2="12" y2="115.2"/>
<line class="st2" x1="42.5" y1="106.6" x2="31.9" y2="89.2"/>
<line class="st2" x1="56.8" y1="95.2" x2="46.3" y2="82.4"/>
<circle class="st0" cx="73.4" cy="74.4" r="7.1"/>
<path class="st0" d="M51.6,74.4"/>
<path class="st0" d="M42.5,67.3l9.1,7.1l-6.7,87.9l76-2c0,0-7.9-85-5.6-85.9c2.2-0.9,9.3-7.1,9.3-7.1"/>
<path class="st1" d="M67.6,161.6v-27.9c0,0,4-11.7,10.8-11.7s12.7,11.5,12.7,11.5v28.1"/>
<line class="st2" x1="45.6" y1="158" x2="67.6" y2="157.5"/>
<line class="st2" x1="91.1" y1="156.9" x2="119" y2="156.5"/>
<line class="st2" x1="70.7" y1="142.4" x2="71.2" y2="147.1"/>
<line class="st3" x1="63.2" y1="85.6" x2="67.6" y2="80.5"/>
<line class="st3" x1="80.1" y1="79" x2="85.9" y2="84.7"/>
<line class="st3" x1="77" y1="68.5" x2="83.5" y2="62.2"/>
<line class="st3" x1="66.3" y1="71.5" x2="59.5" y2="65.8"/>
</svg>
