<?xml version="1.0" encoding="utf-8"?>
<!-- Generator: Adobe Illustrator 24.2.1, SVG Export Plug-In . SVG Version: 6.00 Build 0)  -->
<svg version="1.1" id="Layer_1" xmlns="http://www.w3.org/2000/svg" xmlns:xlink="http://www.w3.org/1999/xlink" x="0px" y="0px"
	 viewBox="0 0 93.5 114.5" style="enable-background:new 0 0 93.5 114.5;" xml:space="preserve">
<style type="text/css">
	.st0{fill:#FFFFFF;}
</style>
<g>
	<path class="st0" d="M41.7,72.6c0.7-0.6,1.5-1.2,2.3-1.7c0.4-0.3,0.8-0.5,1.3-0.5c3,0,6,0,9.1,0c0.5,0,0.9,0.3,1.4,0.5
		c1.1,0.9,2.1,1.9,3.2,2.8c0.3,0.5,0.5,1.1,0.8,1.6c0.2,0.3,0.5,0.5,0.8,0.6c0.3,0.1,0.6,0,1.1,0c0.1,0.5,0.1,1,0.2,1.5
		c0.4,0,0.8,0.1,1.2,0.1c0.1,0.3,0.2,0.7,0.3,1.1c1.5-0.3,2.3,0.2,1.9,1.8c1.8,0.3,1.8,0.3,2,2.3c0.9,0,1.9,0,3,0
		c0.1,0.8,0.1,1.5,0.2,2.3c1.8,0,3.5,0,5.4,0c0,2.2,0,4.2,0,6.4c-1.2-0.6-2.4-1.2-3.5-1.8c-3.9-2.4-7.8-4.9-11.7-7.3
		c-3.1-1.9-6.2-3.8-9.2-5.7c-1.1-0.7-1.9-0.7-3,0c-3.2,2.1-6.4,4-9.6,6.1c-0.1,0.1-0.3,0-0.4,0.1c-0.5,0.3-1.1,0.7-1.6,1
		c-0.9,0.6-1.8,1.3-2.6,1.9c-2.3,1.3-4.5,2.7-6.8,4c-0.8,0.5-1.6,1-2.4,1.5c-0.3,0.1-0.6,0.1-1,0.2c0-2,0-3.9,0-5.8
		c0-0.2,0.5-0.5,0.8-0.5c1.5-0.1,2.9,0,4.4,0c0.1-0.1,0.2-0.2,0.2-0.2c0.2-2,0.2-2,2.2-2c0.3,0,0.6,0,1-0.1c-0.1-1.3-0.2-2.6,1.9-2
		c-0.3-1.6,0.3-2.4,1.9-2c0.1-0.4,0.2-0.7,0.3-1.1c0.4-0.1,0.8-0.1,1.2-0.2c0.1-0.4,0.1-0.9,0.2-1.4c0.6-0.1,1.2-0.1,1.6-0.2
		c0.3-0.7,0.5-1.3,0.7-1.9C40.8,73.4,41.2,73,41.7,72.6z"/>
	<path class="st0" d="M28,90.8c0.3-0.4,0.6-0.8,1-1.2c0.7-0.3,0.9,0.1,0.8,0.7c-0.2,1.8-0.3,3.7-0.8,5.4c-1,3.5-2.2,7-3.3,10.5
		c-0.3,0.9-0.6,1.8-0.9,2.7c-0.2-2.5-0.2-5-0.2-7.5c-0.1-1.6,0.1-3.2,0.7-4.7c0.4-1,0.5-2.4,2-2.1C27.6,93.2,27.8,92,28,90.8z"/>
	<path class="st0" d="M54.3,110.8c-1.3,0-2.4,0-3.7,0c0-3.1,0-6.1,0-9.3c1.1,0.3,2.3,0.6,3.4,1c0.2,0.1,0.3,0.4,0.3,0.6
		C54.4,105.6,54.3,108.1,54.3,110.8z"/>
	<path class="st0" d="M48.5,101.5c0,3.2,0,6.2,0,9.3c-1.2,0-2.4,0-3.7,0c0-2,0-4.1,0-6.1c0-2.2,0-2.3,2.1-2.9
		C47.4,101.7,47.9,101.6,48.5,101.5z"/>
	<path class="st0" d="M38.8,84.1c0.3,0.9,0.9,1.8,0.8,2.7c0,1.9-0.2,3.8-0.7,5.7c-1.2,5.2-2.5,10.3-3.8,15.5
		c-0.2,0.9-0.9,1.7-1.5,2.5c-0.2,0.3-0.8,0.4-1.4,0.6c0-2.3,0-4.4,0-6.5c0-0.2,0.2-0.6,0.5-0.7c0.8-0.5,2.4,0,3,0.9
		c0.5-2,1-3.8,1.4-5.6c0.8-3.3,1.5-6.7,2.2-10C39.7,87.3,39.4,85.7,38.8,84.1C38.8,84.1,38.8,84.1,38.8,84.1z"/>
	<path class="st0" d="M62.3,100.3c0.3,0.8,0.6,1.6,0.8,2.4c0.1,0.5,0.3,0.9,0.4,1.4c0.3-0.1,0.5-0.3,0.7-0.3c1.9-0.6,2.7,0,2.7,2
		c0,1.7,0,3.3,0,5c-1.1,0-2.3-1-2.7-2.3C63.5,105.7,62.9,103,62.3,100.3L62.3,100.3z"/>
	<path class="st0" d="M28,90.8c-0.2,1.2-0.4,2.4-0.6,3.8c-1.6-0.3-1.6,1.1-2,2.1c-0.6,1.5-0.8,3.1-0.7,4.7c0.1,2.5,0,5,0.2,7.5
		c0.3-0.9,0.6-1.8,0.9-2.7c1.1-3.5,2.3-7,3.3-10.5c0.5-1.7,0.6-3.6,0.8-5.4c0.1-0.5-0.1-1-0.8-0.7c0.2-0.2,0.4-0.4,0.7-0.7
		c0.8,1.6,0.6,3.2,0.2,4.6c-1.1,3.9-2.3,7.8-3.5,11.6c-0.5,1.6-1,3.1-1.5,4.6c-0.1,0.3-0.3,0.7-0.6,0.9c0-3.3,0-6.5,0-9.8
		c-0.1,0-0.3,0-0.4,0c-0.2,1.6-0.4,3.1-0.5,4.4c-0.6,0.8-1.1,1.5-1.6,2.2c0.4-1.3,0.8-2.6,1.2-3.8c1.3-3.9,2.1-7.9,4.2-11.5
		C27.3,91.7,27.7,91.3,28,90.8z"/>
	<path class="st0" d="M62,110.7c0.6-1.4,0.2-2.6-0.2-4c-1.5-5.7-3-11.4-4.4-17.1c-0.9-3.6-2.4-6.9-4.8-9.9c-0.1-0.1-0.2-0.3-0.2-0.5
		c1.7,1.8,3.1,3.9,3.8,6.2c1.3,4,2.4,8.1,3.5,12.1c0.9,3.4,1.8,6.8,2.7,10.3C62.7,108.9,62.7,109.8,62,110.7z"/>
	<path class="st0" d="M79.4,96c-0.1-0.4-0.2-0.8-0.3-1.4c1.2,0,2.2,0,3.2,0c0.8,0,0.7,0.4,0.5,1c-0.2,0.5-0.5,1.1-0.7,1.6
		c-0.2,0.4-0.5,0.7-0.7,1.1c-0.2-0.1-0.6-0.1-0.7-0.2C80.2,97.4,79.8,96.7,79.4,96L79.4,96z"/>
	<path class="st0" d="M77.5,96.9c-0.4,0.6-0.8,1.3-1.5,2.2c-0.4-1.6-0.7-2.9-1-4.4c1.2,0,2.2,0,3.4,0c-0.3,0.7-0.5,1.4-0.8,2
		C77.6,96.8,77.5,96.9,77.5,96.9z"/>
	<path class="st0" d="M43.1,85.3c-2,7.6-4,15.2-5.9,22.7c-0.2,0.8-0.2,1.8-0.3,2.7c-0.1-0.7-0.3-1.4-0.1-2.1c1.8-7,3.6-14,5.5-21
		C42.4,86.9,42.8,86.1,43.1,85.3z"/>
	<path class="st0" d="M34.3,86.6c-3.3,7.8-5.3,16.1-8.4,24C28.7,102.6,30.8,94.3,34.3,86.6z"/>
	<path class="st0" d="M66.2,88.6c2.4,7.3,4.8,14.6,7.3,21.9c-0.1,0-0.2,0.1-0.3,0.1c-2.4-7.3-4.8-14.6-7.2-21.9
		C66,88.7,66.1,88.6,66.2,88.6z"/>
	<path class="st0" d="M76.4,105.7c0,1.7,0,3.3,0,5c-0.1,0-0.2,0-0.2,0c0-2.5,0-5,0-7.5c0,0,0.1,0,0.1,0c0.8,2.5,1.5,4.9,2.3,7.4
		c-0.1,0-0.2,0.1-0.3,0.1c-0.5-1.7-1-3.4-1.5-5C76.7,105.6,76.5,105.7,76.4,105.7z"/>
	<path class="st0" d="M62.3,100.3c-1-4.1-2.5-8.1-2.6-12.4c0-1,0.2-2,0.3-2.9c0-0.2,0.3-0.4,0.4-0.6l0,0c-0.9,2.6-0.5,5.2,0.1,7.7
		c0.6,2.4,1.2,4.7,1.7,7.1C62.3,99.5,62.2,99.9,62.3,100.3C62.3,100.3,62.3,100.3,62.3,100.3z"/>
	<path class="st0" d="M79.4,96c0.4,0.7,0.9,1.4,1.3,2.1c0.1,0.2,0.4,0.2,0.7,0.2c-0.1,3.1-0.1,6.2-0.2,9.2c0,1,0,2-0.2,3
		c0-2,0-4,0-5.9c0-0.7-0.1-1.5,0-2.2c0.2-2.1-0.1-4.2-1.4-5.9C79.4,96.4,79.4,96.2,79.4,96z"/>
	<path class="st0" d="M16.8,102.5c0,1,0.1,2,0.1,3c0,0.1-0.3,0.3-0.4,0.3c-0.2,0-0.5-0.1-0.6-0.2c-0.3-0.5,0-2.6,0.5-3.1
		C16.6,102.6,16.7,102.5,16.8,102.5z"/>
	<path class="st0" d="M80,104.5c-0.2,0.3,0.5,1.3-0.5,1.3c-0.9,0-0.3-0.9-0.4-1.4c-0.1-0.4-0.1-0.9,0-1.3c0-0.2,0.3-0.4,0.5-0.5
		c0.2,0.2,0.4,0.3,0.5,0.5C80.1,103.5,80,103.9,80,104.5z"/>
	<path class="st0" d="M82.1,105.8c0-0.8,0-1.7,0-2.5c0-0.2,0.3-0.4,0.4-0.7c0.2,0.2,0.5,0.4,0.5,0.7c0.1,0.7,0.1,1.4,0,2.1
		c0,0.2-0.5,0.4-0.7,0.6C82.2,105.9,82.2,105.8,82.1,105.8z"/>
	<path class="st0" d="M85.1,104.4c-0.3,0.5-0.5,1.4-0.7,1.4c-1-0.1-0.5-0.9-0.5-1.4c0-0.6-0.5-1.5,0.5-1.7
		C84.4,102.6,84.8,103.7,85.1,104.4z"/>
	<path class="st0" d="M18.8,104.1c-0.5,0.6,0.4,1.7-0.7,1.7c-0.9,0-0.4-1-0.5-1.5c0-0.6-0.4-1.4,0.5-1.7
		C18.2,102.6,18.6,103.7,18.8,104.1z"/>
	<path class="st0" d="M69.3,89.9c0.1-0.3,0.2-0.6,0.3-1c2,1.8,3,3.9,3.8,6.3c-0.1-0.1-0.2-0.3-0.3-0.4c-0.1-0.2-0.1-0.3-0.2-0.5
		c-0.8-1.4-1.6-2.8-2.5-4.2C70.2,89.5,69.8,89.5,69.3,89.9C69.3,89.9,69.3,89.9,69.3,89.9z"/>
	<path class="st0" d="M69.3,89.9c0.6,2.8,1.1,5.7,1.7,8.5l0,0C69.8,95.7,69,92.9,69.3,89.9C69.3,89.9,69.3,89.9,69.3,89.9z"/>
	<path class="st0" d="M60.4,84.3c0-0.8,0.5-1.2,1.2-0.8c1.1,0.7,2,1.6,3,2.4c-0.1,0.1-0.1,0.2-0.2,0.2c-0.8-0.7-1.6-1.4-2.4-2
		C61.4,83.5,60.8,83.6,60.4,84.3C60.4,84.3,60.4,84.3,60.4,84.3z"/>
	<path class="st0" d="M34,85.5c0.9-0.6,1.8-1.3,2.6-1.9c0.5-0.4,1.1-0.7,1.6-1c-0.4,0.4-0.9,0.8-1.3,1.3c-0.1,0.1-0.2,0.1-0.3,0.2
		C35.7,84.6,34.8,85,34,85.5z"/>
	<path class="st0" d="M36.6,84.1c0.1-0.1,0.2-0.1,0.3-0.2c0.7-0.2,1.4-1.2,1.9,0.2c0,0,0,0,0,0c-0.5-0.4-0.9-0.5-1.4-0.1
		c-0.6,0.5-1.3,1-2,1.5c-0.1-0.1-0.1-0.1-0.2-0.2C35.7,84.9,36.1,84.5,36.6,84.1z"/>
	<path class="st0" d="M71,98.4c0.5,1.5,1.1,3.1,1.6,4.6c-0.1,0-0.2,0.1-0.4,0.1C71.8,101.6,71.4,100,71,98.4
		C71,98.4,71,98.4,71,98.4z"/>
	<path class="st0" d="M58.8,73.6c-1.1-0.9-2.1-1.9-3.2-2.8c-0.2-0.2-0.5-0.6-0.7-0.6c-1.2,0.1-1-0.7-1-1.4c0-9.3,0-18.6,0-27.9
		c0-2,0.1-4,0.2-6c0-0.6-0.3-1.4,0.7-1.5c0,0,0-0.4-0.1-0.7c-0.1-0.4-0.4-0.8-0.4-1.2c0.3-2.4,0.7-4.9,1-7.3c0.1-0.7,0-1.4,0-2.2
		c0-0.5,0-1,0.1-1.5c0.4-1.9,0.9-3.7,1.3-5.6c0.3-1.7,0.4-3.4,0.6-5.1c0.1-0.4,0.3-0.9,0.3-1.3c0-0.4-0.1-0.8-0.3-1.1
		c-0.8-0.9-0.9-2-0.1-2.7c0.8-0.8,2.3-0.8,3.1,0.1c0.8,0.8,0.7,1.8-0.2,2.7c-0.2,0.2-0.5,0.5-0.4,0.8c0.4,2.9,0.9,5.7,1.3,8.6
		c0.2,0.9,0.5,1.9,0.6,2.8c0.1,1,0,2.1,0.1,3.1c0.1,1,0.3,2,0.5,3c1.2,6.5,1.2,13.1,1.2,19.7c0,10.2,0,20.4,0,30.5
		c0,0.4,0,0.8,0,1.3c-0.6-0.1-1-0.1-1.6-0.2c-0.1-0.5-0.1-1-0.2-1.5c-0.6,0-1.2-0.1-1.8-0.1c0.1-0.1,0.1-0.2,0.2-0.2
		C59.8,74.7,59.3,74.1,58.8,73.6z M57.3,56c0,1.3,0,2.5,0,3.8c0,0.3,0.3,0.6,0.4,0.9c0.1-0.3,0.4-0.6,0.4-0.9c0-2.7,0-5.3,0-8
		c0-0.3-0.2-0.5-0.4-0.8c-0.2,0.3-0.5,0.5-0.5,0.8C57.2,53.3,57.3,54.7,57.3,56z M60.1,52c-0.1,0-0.2,0-0.3,0
		c-0.1,0.3-0.3,0.6-0.3,0.9c0,2.7,0,5.3,0,8c0,0.3,0.2,0.5,0.4,0.8c0.2-0.3,0.4-0.5,0.4-0.8c0-2.6,0-5.2,0-7.8
		C60.3,52.6,60.2,52.3,60.1,52z M61.7,57.8C61.7,57.8,61.7,57.8,61.7,57.8c0,1.3,0,2.6,0,4c0,0.3,0.3,0.6,0.4,0.8
		c0.1-0.3,0.4-0.5,0.4-0.8c0-2.7,0-5.4,0-8.1c0-0.3-0.2-0.5-0.4-0.8c-0.1,0.3-0.4,0.6-0.4,0.8C61.7,55.1,61.7,56.4,61.7,57.8z
		 M56,55C56,55,56,55,56,55c0-1.3,0-2.6,0-3.9c0-0.3-0.3-0.6-0.4-0.9c-0.1,0.3-0.4,0.6-0.4,0.9c0,2.6,0,5.3,0,7.9
		c0,0.3,0.3,0.5,0.4,0.8c0.1-0.3,0.4-0.5,0.4-0.8C56,57.7,56,56.4,56,55z M58.8,22.7c-0.1,0-0.2,0-0.3,0c0,1.1,0,2.2,0,3.3
		c0.1,0,0.2,0,0.3,0C58.8,24.9,58.8,23.8,58.8,22.7z M60.8,22.6c-0.1,0-0.2,0-0.3,0c0,1.1,0,2.2,0,3.4c0.1,0,0.2,0,0.3,0
		C60.8,24.9,60.8,23.8,60.8,22.6z M56.9,22.7c-0.1,0-0.2,0-0.3,0c0,1.1,0,2.2,0,3.3c0.1,0,0.2,0,0.3,0
		C56.9,24.9,56.9,23.8,56.9,22.7z"/>
	<path class="st0" d="M66.2,11.8C65,10.8,64.8,9.9,65.4,9c0.6-0.9,1.7-1.2,2.8-0.7c1.2,0.6,1.6,2.1,0.6,3c-0.6,0.5-0.6,0.9-0.4,1.6
		c0.2,1.3,0.3,2.6,0.5,3.9c0.4,2.1,0.8,4.1,1.2,6.2c0.3,1.3,0.8,2.6,0.2,3.9c-0.1,0.1,0,0.4,0.1,0.5c1.5,7.3,1.7,14.6,1.7,22
		c-0.1,10.9,0,21.8,0,32.8c0,0.5,0,1,0,1.6c-0.5,0-0.8,0.1-1.3,0.1c-0.1-2.7-2.2-0.9-3.3-1.7c0-0.5-0.1-1.1-0.2-1.7
		c-0.6-0.1-1.1-0.1-1.7-0.2c0-0.6-0.1-1.2-0.1-1.8c-0.5-0.1-0.9-0.1-1.5-0.2c0-0.6,0-1.2,0-1.8c0-3.8-0.4-7.7,0.1-11.4
		c0.5-3.4,0.8-6.8,0.3-10c-0.7-4.6-0.2-9.2-0.4-13.8c-0.1-2,0.1-4,0-5.9c0-1-0.4-2-0.4-3c0-1.4,0.3-2.8,0.5-4.2c0.1-0.6,0-1.3,0-1.9
		c0-0.5,0-1,0.1-1.5c0.4-2,1-3.9,1.3-5.9c0.3-1.7,0.4-3.4,0.6-5C65.9,13,66.1,12.4,66.2,11.8z M66.4,55.1c-0.1,0-0.3,0-0.4,0
		c-0.1,0.4-0.3,0.7-0.3,1.1c0,2.6,0,5.2,0,7.7c0,0.3,0.3,0.6,0.5,0.9c0.1-0.3,0.4-0.6,0.4-0.9c0-2.6,0-5.2,0-7.8
		C66.5,55.7,66.4,55.4,66.4,55.1z M68.6,56c-0.1,0-0.3,0-0.4,0c-0.1,0.3-0.2,0.6-0.2,0.9c0,2.6,0,5.3,0,7.9c0,0.3,0.3,0.6,0.4,0.9
		c0.1-0.3,0.4-0.6,0.4-0.8c0-2.6,0-5.2,0-7.8C68.7,56.7,68.6,56.3,68.6,56z M70.9,61.8C71,61.8,71,61.8,70.9,61.8c0-1.4,0-2.7,0-4.1
		c0-0.2-0.3-0.5-0.4-0.7c-0.1,0.2-0.4,0.5-0.4,0.7c0,2.7,0,5.4,0,8.2c0,0.3,0.2,0.5,0.4,0.8c0.1-0.2,0.4-0.5,0.4-0.7
		C71,64.5,70.9,63.1,70.9,61.8z M67.3,26.7c-0.1,0-0.2,0-0.3,0c0,1.1,0,2.2,0,3.3c0.1,0,0.2,0,0.3,0C67.3,28.9,67.3,27.8,67.3,26.7z
		 M69.2,26.7c-0.1,0-0.2,0-0.3,0c0,1.1,0,2.2,0,3.3c0.1,0,0.2,0,0.3,0C69.2,28.9,69.2,27.8,69.2,26.7z M65.3,26.7
		c-0.1,0-0.2,0-0.3,0c0,1.1,0,2.2,0,3.3c0.1,0,0.2,0,0.3,0C65.3,28.9,65.3,27.8,65.3,26.7z"/>
	<path class="st0" d="M41.7,72.6c-0.5,0.4-0.9,0.9-1.4,1.3c-0.3,0.5-0.7,0.9-1,1.4c0.1,0.1,0.1,0.2,0.2,0.2c-0.6,0-1.2,0.1-1.8,0.1
		c-0.1,0.5-0.1,1-0.2,1.5c-0.4,0.1-0.8,0.1-1.2,0.2c-0.1,0.3-0.2,0.6-0.3,1c-0.1,0-0.1,0-0.2,0c0-0.3-0.1-0.5-0.1-0.8
		c0-14,0-28,0.1-42c0.1-3.9,1.2-7.8,1.2-11.6c-0.1-4.3,1.9-8.2,1.6-12.4c0-0.5,0.2-0.9,0.2-1.4c0.2-1.1,0.8-2.2-0.5-3.2
		c-0.7-0.5-0.2-1.7,0.5-2.3c0.8-0.6,1.9-0.5,2.6,0.2c0.6,0.6,0.8,1.8,0.1,2.4c-0.7,0.7-0.5,1.3-0.4,2.1c0.3,2,0.4,4,0.7,6
		c0.2,1.6,0.7,3.1,0.9,4.7c0.1,1,0,1.9,0.1,2.9c0.1,1,0.3,2,0.4,3c0.1,0.8,0.3,1.6,0.3,2.4c0,0.3-0.1,0.6-0.2,0.8
		c-0.3,0.4-0.6,0.7,0.2,0.8c0.1,0,0.2,0.3,0.2,0.4c-0.1,0.9,0.7,1.9-0.3,2.7c-0.1,0.1,0.1,0.5,0.1,0.6c0.8,0.1,0.6,0.6,0.6,1.1
		c0.1,7.2,0.2,14.3,0.2,21.5c0,4.3,0,8.6,0,12.8c0,0.8-0.1,1.4-0.8,1.9C43,71.2,42.4,71.9,41.7,72.6z M39.3,52c-0.1,0-0.3,0-0.4,0
		c-0.1,0.3-0.2,0.6-0.2,0.9c0,2.6,0,5.2,0,7.8c0,0.3,0.2,0.6,0.4,0.9c0.1-0.3,0.4-0.6,0.4-0.9c0-2.6,0-5.2,0-7.7
		C39.4,52.7,39.3,52.4,39.3,52z M41.3,51.1c-0.1,0-0.3,0-0.4,0c-0.1,0.3-0.2,0.6-0.2,1c0,2.6,0,5.2,0,7.9c0,0.3,0.3,0.6,0.4,0.8
		c0.1-0.3,0.4-0.6,0.4-0.9c0-2.6,0-5.2,0-7.8C41.5,51.8,41.4,51.4,41.3,51.1z M43.3,50.2c-0.1,0-0.3,0-0.4,0
		c-0.1,0.4-0.2,0.7-0.2,1.1c0,2.5,0,5.1,0,7.6c0,0.3,0.3,0.6,0.4,0.9c0.1-0.3,0.3-0.6,0.3-0.9c0-2.5,0-5.1,0-7.6
		C43.5,50.9,43.4,50.5,43.3,50.2z M37.2,52.9c-0.1,0-0.2,0-0.4,0c-0.1,0.2-0.2,0.5-0.2,0.7c0,2.8,0,5.5,0,8.3c0,0.2,0.2,0.4,0.4,0.7
		c0.1-0.2,0.4-0.5,0.4-0.7c0-2.7,0-5.4,0-8.1C37.4,53.5,37.2,53.2,37.2,52.9z M42.1,22.7c-0.1,0-0.1,0-0.2,0c0,1.1,0,2.2,0,3.3
		c0.1,0,0.1,0,0.2,0C42.1,24.9,42.1,23.8,42.1,22.7z M38.2,25.9c0.1,0,0.2,0,0.2,0c0-1.1,0-2.2,0-3.2c-0.1,0-0.2,0-0.2,0
		C38.2,23.8,38.2,24.9,38.2,25.9z M40,26c0.1,0,0.1,0,0.2,0c0-1.1,0-2.2,0-3.3c-0.1,0-0.1,0-0.2,0C40,23.8,40,24.9,40,26z"/>
	<path class="st0" d="M35.4,78.2c-0.5,0.1-0.8,0.1-1.2,0.2c-0.1,0.6-0.1,1.2-0.2,1.9c-0.6,0-1.1,0.1-1.6,0.1c-0.1,0.6-0.1,1.2-0.2,2
		c-1,0-1.9,0-2.9,0c-0.3,0.7,0.1,1.9-1.4,1.3c0-1.9,0-3.8,0-5.8c0-11.4,0-22.9,0-34.3c0-5.4,0.6-10.7,1.5-15.9
		c0-0.2,0.1-0.4,0.1-0.5c-0.7-2.2,0.4-4.2,0.7-6.3c0.3-2.3,0.6-4.7,0.9-7c0.2-1,0.5-2-0.5-2.9c-0.7-0.6-0.3-1.8,0.4-2.4
		c0.8-0.6,1.9-0.5,2.6,0.2c0.7,0.7,0.8,1.8,0.1,2.5c-0.6,0.6-0.5,1-0.4,1.7c0.2,1.3,0.3,2.6,0.5,3.8c0.1,1,0.2,2.1,0.5,3
		c1,3.2,0.8,6.6,1.3,9.9c0.1,0.8,0.3,1.6,0.2,2.3c-0.7,6.9,0,13.9-0.5,20.8C35,56.2,34.5,59.7,35,63c0.7,4.7,0.1,9.4,0.4,14
		C35.4,77.4,35.4,77.8,35.4,78.2z M29.5,61.9C29.5,61.9,29.5,61.9,29.5,61.9c0-1.4,0-2.7,0-4.1c0-0.3-0.2-0.5-0.3-0.8
		c-0.2,0.2-0.4,0.5-0.4,0.7c0,2.8,0,5.5,0,8.3c0,0.2,0.3,0.4,0.4,0.6c0.1-0.2,0.4-0.4,0.4-0.7C29.5,64.6,29.5,63.2,29.5,61.9z
		 M31.3,56c-0.1,0-0.2,0-0.4,0c-0.1,0.3-0.2,0.5-0.2,0.8c0,2.7,0,5.3,0,8c0,0.3,0.3,0.6,0.4,0.9c0.1-0.3,0.3-0.6,0.3-0.9
		c0-2.6,0-5.2,0-7.7C31.6,56.7,31.4,56.4,31.3,56z M33.4,55.2c-0.1,0-0.3,0-0.4,0c-0.1,0.4-0.2,0.7-0.2,1.1c0,2.5,0,5.1,0,7.6
		c0,0.3,0.2,0.6,0.3,0.9c0.1-0.3,0.4-0.6,0.4-0.9c0-2.6,0-5.2,0-7.8C33.6,55.7,33.5,55.4,33.4,55.2z M32.2,30c0.1,0,0.2,0,0.2,0
		c0-1.1,0-2.2,0-3.3c-0.1,0-0.2,0-0.2,0C32.2,27.8,32.2,28.9,32.2,30z M30.6,26.7c-0.1,0-0.2,0-0.3,0c0,1.1,0,2.2,0,3.3
		c0.1,0,0.2,0,0.3,0C30.6,28.9,30.6,27.8,30.6,26.7z M34,30c0.1,0,0.1,0,0.2,0c0-1.1,0-2.2,0-3.3c-0.1,0-0.1,0-0.2,0
		C34,27.8,34,28.9,34,30z"/>
	<path class="st0" d="M49.3,51c1.9,2.1,4.4,6.3,4.4,7.3c-0.5,0-1,0.1-1.6,0.2c0.1,0.3,0.2,0.6,0.4,0.8c1.1,1.4,1.4,2.9,1.3,4.6
		c-0.1,1.8,0,3.5-0.1,5.3c0,0.3-0.4,0.6-0.6,0.9c-0.2-0.3-0.4-0.6-0.5-0.9c-0.1-0.2,0-0.4,0-0.5c-0.1-0.3-0.3-0.5-0.5-0.7
		c-0.1,0.2-0.3,0.5-0.4,0.7c-0.2,0.5,0.4,1.4-0.5,1.4c-0.9,0-0.4-0.9-0.6-1.4c-0.1-0.2-0.2-0.5-0.4-0.7c-0.2,0.2-0.3,0.5-0.5,0.7
		c0,0,0,0.1,0,0.1c-0.2,0.4,0.4,1.3-0.6,1.2c-0.2,0-0.3-0.8-0.5-1.2c-0.1-0.3-0.3-0.6-0.5-0.9c-0.2,0.3-0.3,0.6-0.5,0.9
		c0,0.1,0,0.2,0,0.2c-0.1,0.4-0.3,0.7-0.4,1.1c-0.2-0.4-0.4-0.7-0.5-1.1c-0.1-0.2,0-0.4,0-0.5c-0.1-0.2-0.3-0.3-0.5-0.5
		c-0.1,0.2-0.3,0.3-0.4,0.5c-0.1,0.3,0,0.6,0,0.9c0,0.7-0.3,0.9-1,0.7c0-2.7-0.1-5.4,0.1-8.1c0-0.7,0.7-1.4,1.2-2.1
		c0.2-0.4,0.5-0.8,0.8-1.3c-0.7,0-1.3-0.1-2.3-0.1C46.2,55.8,47.7,53.4,49.3,51z M51.2,63.7c-0.3-0.8-0.5-1.7-0.9-2.4
		c-0.5-0.9-1.5-0.8-2.1,0c-0.9,1.2-0.9,3.6,0,4.8c0.6,0.9,1.6,0.9,2.1-0.1C50.8,65.3,50.9,64.5,51.2,63.7z"/>
	<path class="st0" d="M20.2,64.6c0,0.6-0.1,1.2,0,1.8c0.2,1.5,0.2,3,0.6,4.4c1.9,6.7,1.7,13.6,1.6,20.4c0,0.3-0.2,0.5-0.4,0.8
		c-0.1-0.3-0.3-0.5-0.4-0.8c-0.2-0.3-0.4-0.5-0.6-0.8c-0.2,0.3-0.4,0.5-0.5,0.8c-0.1,0.3,0,0.6,0,0.9c0,1.3,0,1.3,1.2,2.1
		c-1.4,0-2.6,0-3.6,0c-0.1-0.5-0.3-1-0.3-1.5c-0.1-1,0-2,0-3c0-3.4-0.2-6.7,0.1-10.1c0.2-2.4,0.8-4.8,1.3-7.2
		c0.4-2.3,1.1-4.5,0.7-6.9c-0.1-0.3,0.2-0.7,0.3-1C20.1,64.6,20.1,64.6,20.2,64.6z M19.8,93.7c0-0.7,0-1.2,0-1.7
		c0-0.6,0.3-1.4-0.6-1.5c-0.2,0-0.5,1-0.6,1.5c-0.1,0.6,0,1.1,0.1,1.8C19,93.7,19.3,93.7,19.8,93.7z M20.2,76.4c-0.1,0-0.2,0-0.4,0
		c0,0.6,0,1.2,0,2.1C20.8,77.6,20.8,77,20.2,76.4z"/>
	<path class="st0" d="M82.7,94.3c-1.2,0-2.3,0-3.4,0c1.5-0.7,0.8-2.1,0.9-3.2c0-0.2-0.4-0.5-0.6-0.8c-0.2,0.2-0.4,0.5-0.6,0.7
		c-0.2,0.3-0.3,0.6-0.4,0.9c-0.1-0.3-0.4-0.7-0.4-1c0-3.9-0.1-7.8,0-11.7c0.1-1.8,0.7-3.6,1-5.4c0.4-2.3,0.8-4.7,1.2-7.1
		c0.1-0.7,0-1.4,0.3-2.2c0,0.7-0.1,1.4,0,2.1c0.3,2.4,0.6,4.8,1.2,7.1c0.9,3.5,1.2,7.1,1.1,10.7c-0.1,2.2,0,4.5,0,6.7
		c0,0.7-0.3,1.3-0.4,2C82.6,93.6,82.7,93.9,82.7,94.3z M80.9,93.6c0.8,0.3,1.2,0.1,1.2-0.7c0-0.6,0.1-1.1,0-1.6
		c-0.1-0.3-0.4-0.6-0.6-0.9C81.3,90.7,81,91,81,91.2C80.9,92,80.9,92.8,80.9,93.6z M80.3,78.2c0.2,0,0.3,0,0.5,0c0-0.6,0-1.2,0-1.8
		c-0.2,0-0.3,0-0.5,0C80.3,77,80.3,77.6,80.3,78.2z"/>
	<path class="st0" d="M76.4,85.7c-0.5-1.4-1.8-0.8-2.7-1.1c-0.2-0.1-0.4-0.6-0.4-0.9c-0.2-3.1,0.2-6.1,0.9-9.1
		c0.6-2.6,0.9-5.2,1.4-7.8c0.1-0.7,0-1.3,0-2c0.1,0,0.2,0,0.3,0c0,0.6-0.1,1.2,0,1.7c0.2,1.9,0.3,3.8,0.8,5.7
		c1.4,5.2,1.5,10.5,1.4,15.9c0,2.1,0,4.1,0,6.2c-1,0-1.8,0-2.9,0c0.2-0.8,0.3-1.5,0.5-2.2c0.1,0,0.2,0,0.3,0c0.1,0.5,0.1,1,0.2,1.5
		c0.6,0.2,1.1,0.2,1.1-0.7c0-0.5,0-1,0-1.4c0-0.8-0.2-1.3-1.2-1.1C76.3,88.8,75.4,87.1,76.4,85.7z M75.4,78.5c0.9-1,0.9-1.4,0-2.2
		C75.4,77,75.4,77.6,75.4,78.5z"/>
	<path class="st0" d="M25.1,64.7c0,0.7-0.1,1.4,0,2.1c0.3,2.1,0.6,4.2,1,6.3c0.7,3.4,1.5,6.8,1.2,10.3c0,0.4,0,0.8,0,1.4
		c-1.1,0-2,0-3,0c-0.6,0-0.8,0.2-0.8,0.8c0,2.4-0.1,4.8-0.1,7.2c0,0.5,0.3,0.9,0.6,1.5c-0.3,0-0.7,0.1-1.3,0.2c0-4,0.1-7.9,0-11.8
		c-0.2-3.7,0.7-7.2,1.4-10.7c0.3-1.7,0.6-3.5,0.8-5.2c0.1-0.7,0-1.3,0-2C25,64.7,25,64.7,25.1,64.7z M24.7,78.2c0.1,0,0.3,0,0.4,0
		c0.5-0.6,0.6-1.2-0.4-2.1C24.7,77,24.7,77.6,24.7,78.2z"/>
	<path class="st0" d="M22.6,49.9c0,0.6-0.1,1.2-0.1,1.8c0.1,1.5,0.2,2.9,0.5,4.4c0.8,4.4,1.3,8.8,1,13.3c-0.2,2.7-0.7,5.3-1.1,7.9
		c-0.1,0-0.2,0-0.4,0c-0.1-0.5-0.2-0.9-0.4-1.4c-1.2-4.2-1.6-8.5-1.2-12.8c0.2-3,0.9-5.9,1.2-8.9c0.1-1.1,0-2.3,0-3.4
		c0-0.4,0.1-0.7,0.2-1.1C22.4,49.9,22.5,49.9,22.6,49.9z M22.1,61.2c0,1.8,0,3.5,0,5.3C22.8,65.8,22.8,61.9,22.1,61.2z"/>
	<path class="st0" d="M73,84.6c-0.9,0-1.7,0-2.4,0c0-0.1,0-0.2,0-0.3c0.5-0.1,1-0.2,1.7-0.3c0-1,0-1.9,0-2.9c0-9.1,0-18.2,0-27.3
		c0-0.5,0.1-1.3,0.3-1.3c0.7-0.2,1.5-0.1,2.3,0c0.1,0,0.2,0.6,0.2,1c-0.4,2.8-0.8,5.7-1.3,8.5c-0.1,0.5-0.1,1-0.1,1.5
		c0,3.6,0,7.3,0,10.9c0,0.8-0.2,1.5-0.2,2.3c-0.2,2-0.3,3.9-0.4,5.9C72.9,83.2,73,83.9,73,84.6z"/>
	<path class="st0" d="M77.8,77.5c-0.2-1.5-0.5-3-0.6-4.6c-0.1-3.2-0.2-6.5,0.1-9.7c0.2-3,0.8-5.9,1.2-8.9c0.1-1.1,0-2.3,0.1-3.4
		c0-0.4,0.1-0.8,0.4-1.1c0,0.8-0.1,1.5,0,2.3c0.4,3.1,0.8,6.1,1.2,9.2c0.2,1.4,0.4,2.8-0.3,4.1c-0.1,0.1-0.1,0.3,0,0.4
		c0.7,1.3,0.3,2.6,0,3.9c-0.5,2.6-1.1,5.2-1.7,7.9C78.1,77.5,78,77.5,77.8,77.5z M79,61.3c-0.2,0-0.3,0-0.5,0c0,1.7,0,3.4,0,5.1
		c0.2,0,0.3,0,0.5,0C79.1,64.7,79,63,79,61.3z"/>
	<path class="st0" d="M27.2,77.3c-0.6-3.2-1.2-6.4-1.7-9.5c-0.1-0.4,0.3-1,0.5-1.4c0.3-0.5,0.2-4.6-0.5-5.2c0,0.7,0,1.3,0,2
		c0,0.7-0.2,1-1.2,0.7c0.1-1.2,0.3-2.4,0.4-3.6c0.3-2.8,0.7-5.6,1-8.4c0.1-0.7,0-1.4,0.3-2.2c0.1,0.3,0.2,0.6,0.2,0.9
		c-0.4,3.7,0.7,7.2,1.1,10.7c0.1,1.4,0.2,2.9,0.2,4.3c0,3.9,0,7.7,0,11.6C27.4,77.3,27.3,77.3,27.2,77.3z"/>
	<path class="st0" d="M75.6,49.8c0,0.7-0.1,1.3,0,2c0.3,2.7,0.7,5.3,0.9,8c0.3,3.9,0.4,7.8,0.4,11.7c-0.5-1.9-1.5-3.7-0.5-5.7
		c0.1-0.2-0.3-0.6-0.4-0.9c-0.2-0.9-0.3-1.8-0.4-2.7c-0.1-0.3-0.1-0.6-0.2-1c-0.1,0-0.2,0-0.4,0c0,0.4-0.1,0.8-0.1,1.2
		c-0.1,1-0.2,2-0.2,3.1c0,0.4,0.4,0.8,0.3,1.2c-0.2,2.2-0.6,4.4-1,6.6C72.9,65.3,75.1,57.6,75.6,49.8z"/>
	<path class="st0" d="M53.7,52c-3-3.4-6.4-2.9-8.8-0.1c0-1.6,0-3.1,0-4.5c0-0.2,0.5-0.5,0.7-0.5c2.4,0,4.9,0,7.3,0
		c0.3,0,0.7,0.3,0.7,0.5C53.7,48.8,53.7,50.3,53.7,52z"/>
	<path class="st0" d="M19.8,108.3c0-0.6,0-1.3,0-1.9c0-1.1,0.1-2.3,0-3.4c-0.2-2.5,0.2-4.8,1.7-6.9c0.4-0.6,0.2-1.5,0.3-2.3
		c0.1-0.4,0.2-0.9,0.5-1.3c0,0.6-0.1,1.2,0,1.8c0.1,0.7,0.2,1.4,0.5,2c0.5,1,1.4,1.9,0.1,3.1c-0.3,0.3-0.1,1.1-0.2,1.6
		c-0.2,0.7-0.4,1.3-0.6,2c-1-0.5-1.2-0.4-1.2,0.6c-0.1,1.5,0.3,3-0.5,4.4c-0.1,0.1-0.1,0.2-0.2,0.3C20,108.3,19.9,108.3,19.8,108.3z
		"/>
	<path class="st0" d="M25.7,52.5c-0.5,3.1-0.9,6-1.3,8.9c-0.1,0-0.2,0-0.3,0c-0.4-2.7-0.8-5.4-1.2-8.1c0-0.2,0.4-0.7,0.7-0.7
		C24.1,52.5,24.8,52.5,25.7,52.5z"/>
	<path class="st0" d="M77,60.8c-0.4-2.5-0.8-5-1.1-7.6c-0.1-0.7,0.2-0.9,0.9-0.9c1.8,0,1.8-0.1,1.6,1.7c-0.3,2-0.6,4.1-0.9,6.1
		c0,0.2-0.1,0.4-0.2,0.7C77.1,60.8,77.1,60.8,77,60.8z"/>
	<path class="st0" d="M18.4,96.9c-0.2-0.7-0.5-1.3-0.7-2.1c1.4,0,2.6,0,4.2,0c-0.8,1.4-1.4,2.7-2.1,4C19.2,98,18.8,97.4,18.4,96.9
		C18.4,96.8,18.4,96.9,18.4,96.9z"/>
	<path class="st0" d="M27.3,59.3c-0.3-2.2-0.6-4.4-1-6.6c0.8-0.3,1.2-0.2,1.2,0.6c0,2,0,4,0,5.9C27.5,59.3,27.4,59.3,27.3,59.3z"/>
	<path class="st0" d="M22.6,94.6c0.5,0.1,1.4,0,1.4,0.2c0.1,0.7,0.1,1.5,0.1,2.3c-0.2,0-0.3,0.1-0.5,0.1c-0.4-0.8-0.8-1.5-1.2-2.3
		C22.5,94.8,22.5,94.7,22.6,94.6z"/>
	<path class="st0" d="M57.3,56c0-1.4,0-2.7,0-4.1c0-0.3,0.3-0.6,0.5-0.8c0.1,0.3,0.4,0.5,0.4,0.8c0,2.7,0,5.3,0,8
		c0,0.3-0.3,0.6-0.4,0.9c-0.2-0.3-0.4-0.6-0.4-0.9C57.2,58.6,57.3,57.3,57.3,56z"/>
	<path class="st0" d="M60.1,52c0.1,0.3,0.2,0.6,0.2,1c0,2.6,0,5.2,0,7.8c0,0.3-0.3,0.5-0.4,0.8c-0.1-0.3-0.4-0.5-0.4-0.8
		c0-2.7,0-5.3,0-8c0-0.3,0.2-0.6,0.3-0.9C59.9,52,60,52,60.1,52z"/>
	<path class="st0" d="M61.7,57.8c0-1.3,0-2.6,0-4c0-0.3,0.3-0.6,0.4-0.8c0.1,0.3,0.4,0.5,0.4,0.8c0,2.7,0,5.4,0,8.1
		c0,0.3-0.2,0.5-0.4,0.8c-0.1-0.3-0.4-0.5-0.4-0.8C61.7,60.4,61.7,59.1,61.7,57.8C61.7,57.8,61.7,57.8,61.7,57.8z"/>
	<path class="st0" d="M56,55c0,1.4,0,2.7,0,4.1c0,0.3-0.3,0.5-0.4,0.8c-0.2-0.3-0.4-0.5-0.4-0.8c0-2.6,0-5.3,0-7.9
		c0-0.3,0.2-0.6,0.4-0.9c0.2,0.3,0.4,0.6,0.4,0.9C56,52.4,56,53.7,56,55C56,55,56,55,56,55z"/>
	<ellipse class="st0" cx="58.7" cy="24.3" rx="0.2" ry="2.3"/>
	<path class="st0" d="M60.8,22.6c0,1.1,0,2.2,0,3.4c-0.1,0-0.2,0-0.3,0c0-1.1,0-2.2,0-3.4C60.6,22.6,60.7,22.6,60.8,22.6z"/>
	<path class="st0" d="M56.9,22.7c0,1.1,0,2.2,0,3.3c-0.1,0-0.2,0-0.3,0c0-1.1,0-2.2,0-3.3C56.7,22.7,56.8,22.7,56.9,22.7z"/>
	<path class="st0" d="M66.4,55.1c0.1,0.3,0.2,0.7,0.2,1c0,2.6,0,5.2,0,7.8c0,0.3-0.3,0.6-0.4,0.9c-0.2-0.3-0.5-0.6-0.5-0.9
		c0-2.6,0-5.2,0-7.7c0-0.4,0.2-0.7,0.3-1.1C66.1,55,66.2,55.1,66.4,55.1z"/>
	<path class="st0" d="M68.6,56c0.1,0.3,0.2,0.7,0.2,1c0,2.6,0,5.2,0,7.8c0,0.3-0.3,0.6-0.4,0.8c-0.1-0.3-0.4-0.6-0.4-0.9
		c0-2.6,0-5.3,0-7.9c0-0.3,0.1-0.6,0.2-0.9C68.3,56,68.4,56,68.6,56z"/>
	<path class="st0" d="M70.9,61.8c0,1.4,0,2.7,0,4.1c0,0.2-0.3,0.5-0.4,0.7c-0.1-0.3-0.4-0.5-0.4-0.8c0-2.7,0-5.4,0-8.2
		c0-0.2,0.2-0.5,0.4-0.7c0.2,0.2,0.4,0.5,0.4,0.7C71,59.1,71,60.4,70.9,61.8C71,61.8,71,61.8,70.9,61.8z"/>
	<path class="st0" d="M67.3,26.7c0,1.1,0,2.2,0,3.3c-0.1,0-0.2,0-0.3,0c0-1.1,0-2.2,0-3.3C67.1,26.7,67.2,26.7,67.3,26.7z"/>
	<path class="st0" d="M69.2,26.7c0,1.1,0,2.2,0,3.3c-0.1,0-0.2,0-0.3,0c0-1.1,0-2.2,0-3.3C69,26.7,69.1,26.7,69.2,26.7z"/>
	<path class="st0" d="M65.3,26.7c0,1.1,0,2.2,0,3.3c-0.1,0-0.2,0-0.3,0c0-1.1,0-2.2,0-3.3C65.1,26.7,65.2,26.7,65.3,26.7z"/>
	<path class="st0" d="M39.3,52c0,0.3,0.1,0.7,0.1,1c0,2.6,0,5.2,0,7.7c0,0.3-0.2,0.6-0.4,0.9c-0.1-0.3-0.4-0.6-0.4-0.9
		c0-2.6,0-5.2,0-7.8c0-0.3,0.1-0.6,0.2-0.9C39,52,39.1,52,39.3,52z"/>
	<path class="st0" d="M41.3,51.1c0.1,0.3,0.2,0.7,0.2,1c0,2.6,0,5.2,0,7.8c0,0.3-0.2,0.6-0.4,0.9c-0.2-0.3-0.4-0.6-0.4-0.8
		c0-2.6,0-5.2,0-7.9c0-0.3,0.1-0.6,0.2-1C41,51.1,41.2,51.1,41.3,51.1z"/>
	<path class="st0" d="M43.3,50.2c0.1,0.4,0.2,0.7,0.2,1.1c0,2.5,0,5.1,0,7.6c0,0.3-0.2,0.6-0.3,0.9c-0.1-0.3-0.4-0.6-0.4-0.9
		c0-2.5,0-5.1,0-7.6c0-0.4,0.1-0.7,0.2-1.1C43.1,50.2,43.2,50.2,43.3,50.2z"/>
	<path class="st0" d="M37.2,52.9c0.1,0.3,0.2,0.6,0.2,0.9c0,2.7,0,5.4,0,8.1c0,0.2-0.3,0.5-0.4,0.7c-0.1-0.2-0.4-0.4-0.4-0.7
		c0-2.8,0-5.5,0-8.3c0-0.2,0.1-0.5,0.2-0.7C36.9,52.9,37.1,52.9,37.2,52.9z"/>
	<path class="st0" d="M42.1,22.7c0,1.1,0,2.2,0,3.3c-0.1,0-0.1,0-0.2,0c0-1.1,0-2.2,0-3.3C42,22.7,42.1,22.7,42.1,22.7z"/>
	<path class="st0" d="M38.2,25.9c0-1.1,0-2.2,0-3.2c0.1,0,0.2,0,0.2,0c0,1.1,0,2.2,0,3.2C38.4,25.9,38.3,25.9,38.2,25.9z"/>
	<path class="st0" d="M40,26c0-1.1,0-2.2,0-3.3c0.1,0,0.1,0,0.2,0c0,1.1,0,2.2,0,3.3C40.2,25.9,40.1,25.9,40,26z"/>
	<path class="st0" d="M29.5,61.9c0,1.4,0,2.7,0,4.1c0,0.2-0.2,0.4-0.4,0.7c-0.1-0.2-0.4-0.4-0.4-0.6c0-2.8,0-5.5,0-8.3
		c0-0.2,0.3-0.5,0.4-0.7c0.1,0.3,0.3,0.5,0.3,0.8C29.5,59.2,29.5,60.5,29.5,61.9C29.5,61.9,29.5,61.9,29.5,61.9z"/>
	<path class="st0" d="M31.3,56c0.1,0.3,0.2,0.7,0.2,1c0,2.6,0,5.2,0,7.7c0,0.3-0.2,0.6-0.3,0.9c-0.1-0.3-0.4-0.6-0.4-0.9
		c0-2.7,0-5.3,0-8c0-0.3,0.1-0.5,0.2-0.8C31.1,56,31.2,56,31.3,56z"/>
	<path class="st0" d="M33.4,55.2c0,0.3,0.1,0.5,0.1,0.8c0,2.6,0,5.2,0,7.8c0,0.3-0.3,0.6-0.4,0.9c-0.1-0.3-0.3-0.6-0.3-0.9
		c0-2.5,0-5.1,0-7.6c0-0.4,0.1-0.7,0.2-1.1C33.2,55.1,33.3,55.1,33.4,55.2z"/>
	<path class="st0" d="M32.2,30c0-1.1,0-2.2,0-3.3c0.1,0,0.2,0,0.2,0c0,1.1,0,2.2,0,3.3C32.3,30,32.3,30,32.2,30z"/>
	<path class="st0" d="M30.6,26.7c0,1.1,0,2.2,0,3.3c-0.1,0-0.2,0-0.3,0c0-1.1,0-2.2,0-3.3C30.4,26.7,30.5,26.7,30.6,26.7z"/>
	<path class="st0" d="M34,30c0-1.1,0-2.2,0-3.3c0.1,0,0.1,0,0.2,0c0,1.1,0,2.2,0,3.3C34.2,30,34.1,30,34,30z"/>
	<path class="st0" d="M51.2,63.7c-0.3,0.8-0.5,1.7-0.9,2.3c-0.5,1-1.5,0.9-2.1,0.1c-0.9-1.2-0.9-3.6,0-4.8c0.6-0.8,1.5-0.9,2.1,0
		C50.8,61.9,50.9,62.8,51.2,63.7z"/>
	<path class="st0" d="M19.8,93.7c-0.5,0-0.7,0-1.1,0.1c0-0.6-0.1-1.2-0.1-1.8c0.1-0.5,0.4-1.5,0.6-1.5c0.9,0.1,0.6,0.9,0.6,1.5
		C19.8,92.5,19.8,93,19.8,93.7z"/>
	<path class="st0" d="M20.2,76.4c0.6,0.6,0.6,1.2-0.4,2.1c0-0.9,0-1.5,0-2.1C20,76.4,20.1,76.4,20.2,76.4z"/>
	<path class="st0" d="M80.9,93.6c0-0.8,0-1.6,0-2.4c0-0.3,0.3-0.6,0.5-0.8c0.2,0.3,0.5,0.5,0.6,0.9c0.1,0.5,0,1.1,0,1.6
		C82.2,93.7,81.7,93.9,80.9,93.6z"/>
	<path class="st0" d="M80.3,78.2c0-0.6,0-1.2,0-1.8c0.2,0,0.3,0,0.5,0c0,0.6,0,1.2,0,1.8C80.7,78.2,80.5,78.2,80.3,78.2z"/>
	<path class="st0" d="M75.4,78.5c0-0.9,0-1.5,0-2.2C76.3,77.1,76.3,77.4,75.4,78.5z"/>
	<path class="st0" d="M24.7,78.2c0-0.6,0-1.2,0-2.1c1,0.8,0.9,1.5,0.4,2.1C25,78.2,24.9,78.2,24.7,78.2z"/>
	<path class="st0" d="M22.1,61.2c0.7,0.7,0.7,4.6,0,5.3C22.1,64.7,22.1,63,22.1,61.2z"/>
	<path class="st0" d="M79,61.3c0,1.7,0.1,3.4,0,5.1c-0.2,0-0.3,0-0.5,0c0-1.7,0-3.4,0-5.1C78.7,61.3,78.8,61.3,79,61.3z"/>
</g>
</svg>
