<?xml version="1.0" encoding="utf-8"?>
<!-- Generator: Adobe Illustrator 24.2.1, SVG Export Plug-In . SVG Version: 6.00 Build 0)  -->
<svg version="1.1" id="Layer_2" xmlns="http://www.w3.org/2000/svg" xmlns:xlink="http://www.w3.org/1999/xlink" x="0px" y="0px"
	 viewBox="0 0 38 119.6" style="enable-background:new 0 0 38 119.6;" xml:space="preserve">
<style type="text/css">
	.st0{fill:none;stroke:#FFFFFF;stroke-miterlimit:10;}
</style>
<g>
	<path class="st0" d="M28.6,74.9c-0.3,12.4-0.6,24.8-1,37.2c0,0.5,0.4,1.3-0.5,1.6c-2.5-2.2-4.2-1.7-5.9,0c-0.8-0.1-0.5-0.7-0.5-1.1
		c0-4.5,0-9.1,0-13.6c0-6.4,0-12.8,0-19.3c0-1-0.3-1.2-1.2-1.2c-2.1,0.1-2.1,0-2.1,2.2c0,10.6,0,21.2,0,31.8c0,0.4,0.4,1.1-0.5,1.2
		c-1.2-1.2-2.5-2-4.2-1.2c-0.6,0.3-1.1,0.8-1.6,1.1c-0.9-0.2-0.5-0.9-0.5-1.3c-0.2-8.2-0.4-16.3-0.6-24.5c-0.1-4.3-0.2-8.6-0.4-12.9
		c3.2,0,6.3-0.1,9.5-0.1C22.2,74.8,25.4,74.8,28.6,74.9z"/>
	<path class="st0" d="M13.5,26.4c-2.2-1.6-3.2-3.9-3.3-6.6c-0.1-2.5-0.1-5.1,0-7.7c0.1-4.7,4.1-8.5,8.9-8.5c4.8,0,8.8,3.8,8.8,8.5
		c0,2.6,0.1,5.2,0,7.8c-0.1,2.6-1.2,4.8-3.3,6.4c-0.2-1-0.7-0.1-1.1-0.2c-3.1-2.6-5.7-2.6-8.8,0C14.3,26.3,13.8,25.4,13.5,26.4z"/>
	<path class="st0" d="M28.6,74.9c-3.2,0-6.4,0-9.5-0.1c0-4.7,0-9.4,0.1-14.1c0-0.3-0.2-0.5-0.3-0.7c0.9,0,1.8,0,2.7,0
		c2.7,0,5.4,0,8.1,0c0,1.6,0,3.2,0,4.8c0,0.7,0.2,1.1,1,1c0,0.1,0,0.2,0,0.2c-0.6,0-1.1,0.1-1,0.9c0.1,0.3,0,0.7,0,1.1
		c0,0.7,0,1.3,0,2c0,1.7,0.1,1.7,1.6,1.3c0.1,0.9,0.1,1.8,0.3,2.7c0.2,0.9-0.2,1-0.9,0.9C30,74.8,29.3,74.8,28.6,74.9z"/>
	<path class="st0" d="M4.2,67.9c0-0.7,0-1.4,0-2.1c0.5,0,1.1,0.2,1.6-0.1C6,66.2,5.6,67,6.7,67c1,0,0.8-0.6,0.9-1.1
		c0.9,0.2,0.9-0.4,0.9-1c0-8.3,0-16.6,0-24.9c0-0.5,0-0.9-0.4-1.3c-0.6-0.5-0.2-0.8,0.4-0.9c0.7,0.1,1.4,0.3,2-0.2
		c0.4,0.3,0.6,0.7,0.1,1.1c-0.4,0.3-0.4,0.6-0.4,0.9c0,1.6,0,3.2,0,4.8c0,0.3-0.1,0.8,0.3,0.8c0.9,0.1,0.7,0.7,0.7,1.2
		c0.2,3.5,0.4,7.1,0.5,10.6c-0.2,0.6,0.2,0.7,0.6,0.8c0.9,0.4,1.9,0.8,2.8,1.1c0.6,0.2,0.6,0.6,0.5,1.1c-0.4,0.8-0.5,1.9-1.9,1.1
		c-1.7-0.9-1.8-0.8-1.7,1.3c0,0.4-0.2,1.1,0.3,1.3c0.4,0.2,0.9-0.2,1.2-0.5c0.5-0.5,0.9-0.4,1.4,0.1c1.6,1.6,1.6,1.8-0.4,2.9
		c-0.3,0.2-0.7,0.4-1.1,0.5c-1.2,0.1-1.2,0.9-1.2,1.9c0.2,2.9,0.1,2.9-2.8,2.6c0.4-0.6,0.4-1.1-0.3-1.3c-0.7-0.1-0.7-0.5-0.7-1
		c0.1-0.7-0.2-0.9-0.9-0.8C6.5,67.9,5.4,67.9,4.2,67.9z"/>
	<path class="st0" d="M5.8,65.7c-0.5,0.3-1,0.1-1.6,0.1c0-4.1,0-8.2-0.1-12.3c0-4,0-8,0-12c0-2.7,1.6-4.8,4.3-5.7c0,0.6,0,1.2,0,1.8
		c-0.6,0.1-0.9,0.5-0.4,0.9c0.5,0.4,0.4,0.8,0.4,1.3c0,8.3,0,16.6,0,24.9c0,0.7,0,1.2-0.9,1c-0.1-0.6-0.1-1.1-0.9-1.1
		C5.9,64.8,5.8,65.2,5.8,65.7z"/>
	<path class="st0" d="M30.5,65.7c-0.8,0.1-1-0.3-1-1c0-1.6,0-3.2,0-4.8c0.1-1,0.1-2,0-3c0-0.4,0-0.9,0-1.3c0-5.4,0-10.9,0-16.3
		c0-0.9,0.6-1.8,0.1-2.8c0-0.2,0-0.3,0-0.5c2.2,0.2,4.2,2.6,4.3,5.2c0.1,3.6,0,7.2,0,10.8c0,4.6,0,9.2-0.1,13.9
		c-0.4,0.1-0.8,0.1-1.2,0.2c-0.2,0-0.4-0.1-0.4-0.3c0-0.7-0.3-0.8-0.9-0.9C30.6,64.8,30.6,65.2,30.5,65.7z"/>
	<path class="st0" d="M9.5,70.9c2.9,0.3,2.9,0.3,2.8-2.6c-0.1-1,0-1.7,1.2-1.9c0.4,0,0.7-0.3,1.1-0.5c2-1.1,2-1.3,0.4-2.9
		c-0.5-0.5-0.9-0.6-1.4-0.1c-0.3,0.3-0.8,0.7-1.2,0.5c-0.5-0.2-0.2-0.8-0.3-1.3c-0.1-2,0-2.1,1.7-1.3c1.5,0.8,1.5-0.3,1.9-1.1
		c0.4,0,0.8,0,1.1,0.1c0.7,0.5,1.4-0.1,2,0c0.1,0.2,0.3,0.4,0.3,0.7c0,4.7-0.1,9.4-0.1,14.1c-3.2,0-6.3,0.1-9.5,0.1
		c-0.4,0-0.8,0-1.2,0c-2,0-2,0-1.7-2.1c0.1-0.5,0.1-1,0.2-1.5C7.7,70.7,8.6,71.2,9.5,70.9z"/>
	<path class="st0" d="M10.8,35.3c1.2,0,2.3-0.4,3.4-0.5c0.8-0.1,0.4-0.7,0.5-1.1c0.1-0.4-0.3-1.1,0.6-1.1c2.5,0,5,0,7.5,0
		c0.4,0,0.7,0.1,0.6,0.6c0,0.5,0,1,0,1.5c0,0-0.1,0.1-0.1,0.1c-1.4,0-2.9,0-4.3,0c-1.1,0-2.3,0-3.4-0.1c-0.6,0-1,0.1-0.9,0.8
		c0.1,0.9-0.4,1-1.1,1.1c-1,0.2-2.1,0-3.1,0.5C10.1,36.5,9.8,35.8,10.8,35.3z"/>
	<path class="st0" d="M11,113.6c0.5-0.4,1-0.9,1.6-1.1c1.7-0.8,3,0,4.2,1.2c0.2,0.6,0.6,1.2,0.5,1.9c-2.2,0-4.5,0-6.7,0.1
		C10.4,114.9,10.9,114.3,11,113.6z"/>
	<path class="st0" d="M21.2,113.7c1.7-1.7,3.4-2.2,5.9,0c0.1,0.6,0.6,1.2,0.4,1.9c-2.2,0-4.5,0-6.7-0.1
		C20.6,114.8,21,114.3,21.2,113.7z"/>
	<path class="st0" d="M13.5,26.4c0.2-1,0.7-0.1,1.1-0.2c0.7,2.3,2.4,3.6,4.5,3.6c2.1,0,3.7-1.4,4.3-3.6c0.4,0,0.9-0.8,1.1,0.2
		c-0.4,1-0.9,2-1.5,2.8c-0.1,0-0.2,0.1-0.2,0.2c0,0,0,0.1,0,0c-2.4,1.6-4.8,1.7-7.3,0.2C14.6,28.8,14,27.6,13.5,26.4z"/>
	<path class="st0" d="M15.5,29.7c2.5,1.4,4.9,1.4,7.3-0.2c0.2,0.5-0.3,0.8-0.4,1.1c-0.3,0.7-0.6,1.5,0.4,1.9c-2.5,0-5,0-7.5,0
		c0.9-0.4,0.7-1.1,0.5-1.8C15.7,30.5,15.3,30.2,15.5,29.7z"/>
	<path class="st0" d="M9.5,70.9c-0.9,0.2-1.8-0.2-2.6,0.3c-0.4-0.5-1-0.1-1.4-0.4c-1.2-0.7-1.4-1.8-1.2-3c1.1,0,2.3,0,3.4,0
		c0.6,0,1,0.2,0.9,0.8c-0.1,0.5,0,0.8,0.7,1C9.9,69.8,9.9,70.4,9.5,70.9z"/>
	<path class="st0" d="M31.2,71.2c-1.5,0.4-1.6,0.3-1.6-1.3c0-0.7,0-1.3,0-2c1.4,0,2.9,0,4.3,0c0.4,1.5-0.4,2.9-1.9,3.1
		C31.7,71,31.4,71,31.2,71.2z"/>
	<path class="st0" d="M10.8,35.3c-1,0.5-0.6,1.2-0.3,1.9c0,0.1,0,0.2,0,0.3c-0.6,0.4-1.3,0.2-2,0.2c0-0.6,0-1.2,0-1.8
		c0-2.2,0-4.5,0-6.7c1,1.5,1.7,3.1,1.7,4.9C10.2,34.5,9.9,35.2,10.8,35.3z"/>
	<path class="st0" d="M29.6,36c0,0.2,0,0.3,0,0.5c0,0.8-0.3,1.1-1.1,1c-1.1-0.2-2.3-0.3-3.4-0.6c-2-0.4-1.7-0.2-1.7-2.1
		c0,0,0.1-0.1,0.1-0.1c1.8,0.3,3.5,0.5,5.3,0.9C29,35.7,29.4,35.6,29.6,36z"/>
	<path class="st0" d="M20.7,115.5c2.2,0,4.5,0,6.7,0.1c0.1,0.6,0.4,1.5-0.5,1.6c-0.5,0-1.2,0.1-1.7,0c-1.2-0.1-2.4-0.1-3.6,0
		C20.2,117.3,20.8,116.2,20.7,115.5z"/>
	<path class="st0" d="M10.6,115.6c2.2,0,4.5,0,6.7-0.1c0.1,1.8,0,2-2.1,1.7c-1.1-0.2-2.3,0-3.4-0.1
		C10.5,116.9,10.4,117.1,10.6,115.6z"/>
	<path class="st0" d="M33.9,67.9c-1.4,0-2.9,0-4.3,0c0-0.4,0-0.7,0-1.1c-0.1-0.8,0.3-1,1-0.9c0.2,0.4-0.1,1.1,0.8,1
		c0.7,0,1-0.2,1-0.9c0-0.5,0.4-0.5,0.7-0.2c0.1,0.1-0.2,0.2-0.3,0.2c0.4-0.1,0.8-0.1,1.2-0.2C34,66.5,34,67.2,33.9,67.9z"/>
	<path class="st0" d="M22.8,29.5c0-0.1,0-0.2,0.2-0.2C23,29.4,23,29.5,22.8,29.5z"/>
	<path class="st0" d="M23.4,26.3c-0.6,2.2-2.3,3.6-4.3,3.6c-2.1,0-3.7-1.3-4.5-3.6C17.7,23.7,20.3,23.7,23.4,26.3z"/>
	<path class="st0" d="M29.5,56.9c0.1,1,0.1,2,0,3c-2.7,0-5.4,0-8.1,0c0-1,0-1.9,0-2.9C24.1,57,26.8,56.9,29.5,56.9z"/>
	<path class="st0" d="M21.4,57c0,1,0,1.9,0,2.9c-0.9,0-1.8,0-2.7,0c-0.7-0.1-1.4,0.5-2,0c0-1,0-1.9,0-2.9c0.8-0.1,1.5-0.1,2.3-0.2
		C19.8,57.1,20.6,56.9,21.4,57z"/>
	<path class="st0" d="M32.7,66c0.2,0,0.4-0.1,0.3-0.2c-0.3-0.3-0.8-0.2-0.7,0.2c0,0.7-0.3,0.9-1,0.9c-0.9,0-0.6-0.7-0.8-1
		c0-0.1,0-0.2,0-0.2c0.1-0.5,0.1-0.9,0.8-0.9c0.6,0,1,0.2,0.9,0.9C32.3,65.9,32.5,66,32.7,66z"/>
	<path class="st0" d="M19,56.9c-0.8,0.1-1.5,0.1-2.3,0.2c-1.7-0.4-3.4-0.1-5.1-0.2c-0.2-3.5-0.4-7.1-0.5-10.6c0-0.5,0.2-1.1-0.7-1.2
		c-0.4,0-0.3-0.5-0.3-0.8c0-1.6,0-3.2,0-4.8c0-0.4,0-0.7,0.4-0.9c0.5-0.3,0.3-0.7-0.1-1.1c0-0.1,0-0.2,0-0.3c1-0.5,2.1-0.2,3.1-0.5
		c0.7-0.2,1.2-0.3,1.1-1.1c-0.1-0.7,0.2-0.9,0.9-0.8c1.1,0.1,2.3,0,3.4,0.1c-0.1,0.2-0.1,0.4-0.2,0.6c-1,0.8-1,1.1,0,1.9
		c0.5,0.5,0,1.2,0.4,1.7c-0.6,0.1-1.1,0.3-1.1,1c0,0.7,0.5,0.9,1.1,1c-0.1,0.4-0.3,0.7,0,1.1c0.4,0.5-0.2,0.5-0.4,0.7
		c-0.9,0.6-1,1.2-0.2,1.9c0.3,0.3,1,0.4,0.4,1c-0.3,0.3,0.3,0.5,0.2,0.9c-0.6,0-1.1,0.2-1.1,0.9c0,0.7,0.5,1,1.1,1
		c-0.3,0.6,0.1,1.3-0.5,1.8c-1,0.9-1,1.2,0.1,2c0.2,0.7,0.7,1.4-0.3,1.8c-0.6,0.6-0.7,1.2,0,1.8C18.7,56.4,19.1,56.5,19,56.9z"/>
	<path class="st0" d="M11.7,56.9c1.7,0.1,3.4-0.2,5.1,0.2c0,1,0,1.9,0,2.9c-0.4,0-0.8,0-1.1-0.1c0.1-0.5,0.1-0.9-0.5-1.1
		c-1-0.3-1.9-0.7-2.8-1.1C11.9,57.6,11.5,57.5,11.7,56.9z"/>
	<path class="st0" d="M5.8,65.7c0-0.5,0.1-0.9,0.9-0.9c0.9,0,0.8,0.5,0.9,1.1c-0.1,0.5,0.1,1.1-0.9,1.1C5.6,67,6,66.2,5.8,65.7z"/>
	<path class="st0" d="M18.6,54.3c1-0.5,0.5-1.2,0.3-1.8c0.6-0.1,1.1-0.3,1.1-1c0-0.8-0.6-1-1.2-1c0.6-0.5,0.1-1.2,0.5-1.8
		c1-0.7,1-1,0-1.9c0.1-0.3-0.5-0.5-0.2-0.9c0.6-0.7-0.2-0.7-0.4-1c0.6,0.1,1.2,0,1.3-0.8c0.1-0.8-0.5-1.1-1.2-1.2
		c0.2-0.2,0.7-0.2,0.4-0.7c-0.3-0.4,0-0.7,0-1.1c1.1-0.7,1.1-1.2,0-2c-0.4-0.5,0.1-1.3-0.4-1.7c0.7-0.1,1.2-0.2,1.2-1
		c0-0.7-0.6-0.9-1.2-0.9c0.1-0.2,0.1-0.4,0.2-0.6c1.4,0,2.9,0,4.3,0c0,1.9-0.3,1.7,1.7,2.1c1.1,0.2,2.3,0.3,3.4,0.6
		c0.8,0.2,1.2-0.1,1.1-1c0.6,0.9-0.1,1.8-0.1,2.8c0.1,5.4,0,10.9,0,16.3c0,0.4,0,0.9,0,1.3c-2.7,0-5.4,0-8.1,0.1
		c-0.8-0.1-1.6,0.1-2.4-0.1c0-0.4-0.3-0.5-0.4-0.8c0.7,0.1,1.4,0,1.4-0.9C20,54.3,19.3,54.2,18.6,54.3z"/>
	<path class="st0" d="M19.2,39.2c1.1,0.8,1.1,1.3,0,2c-0.6-0.1-1.1-0.3-1.1-1C18.1,39.5,18.6,39.3,19.2,39.2z"/>
	<path class="st0" d="M18.8,50.4c0.7,0,1.2,0.2,1.2,1c0,0.7-0.5,0.9-1.1,1C17.8,51.6,17.8,51.4,18.8,50.4z"/>
	<path class="st0" d="M18.8,35.5c0.6,0,1.1,0.2,1.2,0.9c0,0.8-0.5,1-1.2,1C17.8,36.5,17.8,36.2,18.8,35.5z"/>
	<path class="st0" d="M18.8,42.9c0.7,0.1,1.3,0.3,1.2,1.2c-0.1,0.8-0.7,0.9-1.3,0.8C17.8,44.1,17.9,43.5,18.8,42.9z"/>
	<path class="st0" d="M18.6,54.3c0.8-0.1,1.4,0,1.4,1c0,0.9-0.7,1-1.4,0.9C17.9,55.5,17.9,54.9,18.6,54.3z"/>
	<path class="st0" d="M19.2,46.7c1,0.9,1,1.2,0,1.9c-0.7,0-1.2-0.3-1.1-1C18.1,46.9,18.6,46.8,19.2,46.7z"/>
</g>
</svg>
